<?xml version="1.0" encoding="utf-8"?>
<!-- Generator: Adobe Illustrator 18.1.1, SVG Export Plug-In . SVG Version: 6.00 Build 0)  -->
<svg version="1.1" id="Layer_1" xmlns="http://www.w3.org/2000/svg" xmlns:xlink="http://www.w3.org/1999/xlink" x="0px" y="0px"
	 viewBox="0 0 108 129.6" enable-background="new 0 0 108 129.6" xml:space="preserve">
<g>
	<g>
		<path fill="#AFB42B" d="M54.3,1.7c28.4,0,51.3,22.9,51.3,51.2s-38.7,75-51.3,75c-15.6,0-51.3-46.8-51.3-75
			C3.1,24.6,26,1.7,54.3,1.7z"/>
	</g>
</g>
<g>
	<path fill="#2196F3" d="M54.3,10.4c-24.8,0-45,20.2-45,44.9s20.2,44.9,45,44.9s45-20.2,45-44.9S79.2,10.4,54.3,10.4z"/>
	<path fill="#FF9800" d="M54.3,101.3c-25.4,0-46-20.6-46-45.9s20.7-45.9,46-45.9s46,20.6,46,45.9S79.7,101.3,54.3,101.3z M54.3,11.4
		c-24.3,0-44,19.7-44,43.9s19.8,43.9,44,43.9c24.3,0,44-19.7,44-43.9S78.6,11.4,54.3,11.4z"/>
</g>
<g>
	<g>
		<g>
			<path fill="#CDDC39" d="M54.3,14.4c22.6,0,41,18.3,41,40.9S77,96.3,54.3,96.3s-41-18.3-41-40.9S31.7,14.4,54.3,14.4z"/>
		</g>
		<g>
			<path fill="#FFFFFF" d="M54.3,97.5C31,97.5,12,78.6,12,55.3s19-42.2,42.3-42.2s42.3,18.9,42.3,42.2S77.6,97.5,54.3,97.5z
				 M54.3,15.6c-21.9,0-39.8,17.8-39.8,39.7C14.5,77.2,32.4,95,54.3,95s39.8-17.8,39.8-39.7C94.1,33.4,76.3,15.6,54.3,15.6z"/>
		</g>
	</g>
</g>
<g>
	<g>
		<path fill="#FFFFFF" d="M64.8,23.7c-0.8,0.5-1,1.5-0.5,2.3c0,0,0.3,0.5,0.6,1.4c-0.2,0.1-0.4,0.3-0.6,0.5
			c-0.3,0.3-0.5,0.6-0.6,0.9l-19.5,0c-0.1-0.2-0.2-0.3-0.4-0.5c-0.1-0.1-0.3-0.3-0.5-0.4c0.4-1.1,0.8-1.8,0.8-1.9
			c0.5-0.8,0.2-1.8-0.5-2.3c-0.8-0.5-1.8-0.3-2.3,0.5c0,0-0.8,1.3-1.4,3.5c-0.3,0.1-0.5,0.3-0.8,0.6c-1.3,1.3-1.3,3.3,0,4.6
			c0,0,0.1,0,0.1,0.1c0,2.6,0.6,5.7,2.2,9c-0.3,1.1-0.1,2.4,0.8,3.2c0.5,0.5,1.1,0.8,1.7,0.9c1.8,2.4,4.2,4.9,7.5,7.5l2.7,2.1
			c2.9,2.4,5.1,4.9,6.9,7.2c-0.1,0.2-0.2,0.3-0.3,0.5l-13.1,0c-0.1-0.2-0.2-0.4-0.3-0.5c1.2-1.7,3.2-3.8,4.8-5.4l-2.4-2.4
			c-2.2,2.1-3.9,4.3-5.3,6.4c-0.7,0.1-1.5,0.4-2,0.9c-1,1-1.2,2.5-0.6,3.7c-1.3,2.8-2.2,5.4-2.6,7.8c-0.1,0.1-0.2,0.2-0.3,0.2
			c-1.2,1.2-1.3,3-0.3,4.3c-0.1,2.9,0.2,4.9,0.2,5.1c0.2,0.8,0.9,1.3,1.6,1.3c0.1,0,0.3,0,0.4,0c0.9-0.2,1.4-1.1,1.2-2
			c0-0.2-0.3-1.3-0.3-3c0.4-0.1,0.8-0.2,1.2-0.4l23.2,0c0.2,0.2,0.4,0.3,0.6,0.5c-0.1,1.7-0.3,2.9-0.3,3c-0.2,0.9,0.3,1.8,1.2,2
			c0.1,0,0.3,0.1,0.4,0c0.7,0,1.4-0.5,1.6-1.3c0.1-0.2,0.4-1.6,0.4-3.8c0.2-0.1,0.5-0.3,0.7-0.5c1.3-1.3,1.3-3.3,0-4.6
			c-0.3-0.3-0.7-0.6-1.2-0.7c-0.5-2.4-1.3-5.2-2.8-8.1c0.4-1.1,0.1-2.4-0.8-3.4c-0.5-0.5-1.1-0.8-1.7-0.9c-1.8-2.7-4.2-5.4-7.4-8
			c0,0-2.6-2.2-2.7-2.1c-2.9-2.1-5.1-4.3-6.7-6.3l13.4,0c-1.2,1.5-3.7,4-5.5,5.5l3.5,1.3c2.1-2,3.8-4,5.1-5.9
			c0.7-0.1,1.3-0.4,1.9-0.9c1-1,1.2-2.4,0.7-3.6c1.4-3.2,1.9-6.2,2-8.8c0.1-0.1,0.2-0.1,0.3-0.2c1.3-1.3,1.3-3.3,0-4.6
			c-0.3-0.3-0.5-0.4-0.8-0.6c-0.4-1.9-1-3-1-3C66.7,23.4,65.6,23.2,64.8,23.7z M66.6,74.4l-22.9,0c0,0-0.1-0.1-0.1-0.1
			c-0.2-0.2-0.4-0.3-0.6-0.5c0.3-1.7,0.9-3.7,1.8-5.7c0.9,0,1.7-0.3,2.4-0.9c0,0,0-0.1,0.1-0.1l14.3,0c0,0,0,0,0,0
			c1,1,2.4,1.2,3.6,0.7c1,2.3,1.6,4.4,2,6.3C66.9,74.2,66.7,74.2,66.6,74.4z M46.6,40.2c-0.4-0.3-0.9-0.5-1.4-0.5
			c-1.1-2.3-1.6-4.5-1.8-6.4c0.2-0.1,0.4-0.3,0.5-0.4c0.2-0.2,0.3-0.4,0.4-0.6h19.9c0,0,0.1,0.1,0.1,0.1c0.6,0.6,1.4,0.9,2.1,0.9
			c-0.2,1.9-0.7,4-1.8,6.3c-1-0.3-2.1-0.1-2.9,0.5L46.6,40.2z"/>
	</g>
</g>
</svg>
