<?xml version="1.0" encoding="utf-8"?>
<!-- Generator: Adobe Illustrator 18.1.1, SVG Export Plug-In . SVG Version: 6.00 Build 0)  -->
<svg version="1.1" id="Layer_1" xmlns="http://www.w3.org/2000/svg" xmlns:xlink="http://www.w3.org/1999/xlink" x="0px" y="0px"
	 viewBox="0 0 108 129.6" enable-background="new 0 0 108 129.6" xml:space="preserve">
<g>
	<path fill="#AD1457" d="M54,1.7c28.4,0,51.3,22.9,51.3,51.2s-38.7,75-51.3,75c-15.6,0-51.3-46.8-51.3-75C2.7,24.6,25.6,1.7,54,1.7z
		"/>
</g>
<g>
	<g>
		<path fill="#D81B60" d="M54,14.4c22.6,0,41,18.3,41,40.9S76.6,96.3,54,96.3S13,77.9,13,55.3S31.4,14.4,54,14.4z"/>
		<path fill="#FFFFFF" d="M54,97.5c-23.3,0-42.3-18.9-42.3-42.2s19-42.2,42.3-42.2s42.3,18.9,42.3,42.2S77.3,97.5,54,97.5z M54,15.6
			c-21.9,0-39.8,17.8-39.8,39.7C14.2,77.2,32.1,95,54,95s39.8-17.8,39.8-39.7C93.8,33.4,75.9,15.6,54,15.6z"/>
	</g>
</g>
<path fill="#FFFFFF" d="M74.1,47.3h-2.5c-0.5,0-1,0.1-1.5,0.1v-5.6c0-0.3,0-0.6-0.1-0.9c1.6-1.2,2.7-3.1,2.7-5.3
	c0-4-3.7-7.2-7.8-6.4c-1.3-1.4-3.3-2.2-5.3-2.1c-1.3-1.8-3.4-3-5.6-3c-1.8,0-3.5,0.7-4.8,2c-0.3-0.1-0.7-0.2-1-0.3l-0.4-0.1
	c-0.3-0.1-0.7-0.1-1-0.1c-0.5,0-1,0-1.5,0h-0.1v0c-2.9,0.3-5.3,2-6.3,4.4c-2.8,0.5-5,3-5,6c0,2.1,1.1,3.9,2.7,5
	c0,0.2-0.1,0.4-0.1,0.7v37c0,2.4,2,4.4,4.4,4.4h24.9c2.4,0,4.4-2,4.4-4.4V68.3c0.5,0.1,1,0.1,1.5,0.1h2.5c4.5,0,8.1-3.6,8.1-8.1
	v-4.9C82.2,50.9,78.5,47.3,74.1,47.3z M42.2,78.5C42.2,78.5,42.2,78.5,42.2,78.5c-0.9-0.1-1.5-0.7-1.5-1.5l-0.1-26.5
	c0-0.8,0.7-1.5,1.5-1.5c0.8,0,1.5,0.7,1.5,1.5L43.7,77C43.7,77.8,43,78.5,42.2,78.5z M67.2,45.8H39.4v-3.9c0-0.8,0.7-1.5,1.5-1.5
	h24.9c0.8,0,1.5,0.7,1.5,1.5C67.2,41.8,67.2,45,67.2,45.8z M68.5,38.4c-0.8-0.6-1.7-1-2.8-1H40.8c-1.1,0-2.1,0.4-2.9,1.1
	c-0.7-0.6-1.1-1.4-1.1-2.4c0-1.8,1.4-3.2,3.2-3.2l1.2,0l0.2-1.2c0.3-1.4,1.7-2.9,3.9-3.1H47c0.7,0,1.3,0.3,1.9,0.6l1.2,0.8l0.8-1.2
	c0.7-1.1,1.9-1.7,3.2-1.7c1.5,0,2.8,0.9,3.5,2.2l0.5,1l1.1-0.2c1.5-0.3,3.1,0.3,4,1.6l0.6,1l1.1-0.4c0.4-0.2,0.8-0.2,1.2-0.2
	c2,0,3.6,1.6,3.6,3.6C69.8,36.8,69.3,37.8,68.5,38.4z M77.8,60.3c0,2-1.7,3.7-3.7,3.7h-2.5c-0.5,0-1-0.1-1.5-0.3V52
	c0.5-0.2,1-0.3,1.5-0.3h2.5c2,0,3.7,1.7,3.7,3.7V60.3z"/>
</svg>
