<?xml version="1.0" encoding="utf-8"?>
<!-- Generator: Adobe Illustrator 18.1.1, SVG Export Plug-In . SVG Version: 6.00 Build 0)  -->
<svg version="1.1" id="Layer_1" xmlns="http://www.w3.org/2000/svg" xmlns:xlink="http://www.w3.org/1999/xlink" x="0px" y="0px"
	 viewBox="0 0 108 129.6" enable-background="new 0 0 108 129.6" xml:space="preserve">
<g>
	<path fill="#AD1457" d="M54,1.7c28.4,0,51.3,22.9,51.3,51.2s-38.7,75-51.3,75c-15.6,0-51.3-46.8-51.3-75C2.7,24.6,25.6,1.7,54,1.7z
		"/>
</g>
<g>
	<g>
		<path fill="#D81B60" d="M54,14.4c22.6,0,41,18.3,41,40.9S76.6,96.3,54,96.3S13,77.9,13,55.3S31.4,14.4,54,14.4z"/>
		<path fill="#FFFFFF" d="M54,97.5c-23.3,0-42.3-18.9-42.3-42.2s19-42.2,42.3-42.2s42.3,18.9,42.3,42.2S77.3,97.5,54,97.5z M54,15.6
			c-21.9,0-39.8,17.8-39.8,39.7C14.2,77.2,32.1,95,54,95s39.8-17.8,39.8-39.7C93.8,33.4,75.9,15.6,54,15.6z"/>
	</g>
</g>
<g>
	<g>
		<path fill="#FFFFFF" d="M78.1,81H29.6c-0.5,0-0.9,0.4-1,0.8c-0.1,0.5,0.2,0.9,0.7,1.1L43.1,87c0.2,0,0.4,0.1,0.5,0.1h20.5
			c0.1,0,0.3,0,0.5-0.1L78.3,83c0.5-0.1,0.8-0.6,0.7-1.1C79,81.4,78.6,81,78.1,81z"/>
		<path fill="#FFFFFF" d="M73.3,49.8c-0.4-0.1-0.7-0.4-0.7-0.8l0.3-4.6c0-0.3-0.1-0.5-0.3-0.7c-0.2-0.2-0.4-0.3-0.7-0.3h-36
			c-0.3,0-0.5,0.1-0.7,0.3c-0.2,0.2-0.3,0.5-0.3,0.7l2,34.3c0,0.5,0.5,0.9,1,0.9h32.1c0.5,0,0.9-0.4,1-0.9l0.3-5.5
			c0.2,0,0.4,0,0.7,0c6.3,0,11.5-5.3,11.5-11.7C83.3,55.4,79,50.5,73.3,49.8z M41.6,76.1C41.6,76.1,41.5,76.1,41.6,76.1
			c-0.9,0-1.5-0.6-1.6-1.4l-1.6-26.4c0-0.8,0.6-1.5,1.4-1.6c0.8-0.1,1.5,0.6,1.6,1.4L43,74.5C43,75.3,42.4,76,41.6,76.1z M72.4,69.2
			c-0.4-0.4-0.5-0.5-0.9-0.9l0.8-13.9c0-0.5,0.5-0.8,1-0.7c3.5,0.7,6.2,3.8,6.2,7.7C79.4,65.5,76.3,69,72.4,69.2z"/>
		<path fill="#FFFFFF" d="M42.1,35.3c0.5,2.2,2.3,3.5,3.4,4.1c0.4,0.2,1,0.1,1.1-0.4l0.5-1.2c0.2-0.4,0-0.8-0.3-1
			c-0.7-0.4-1.7-1.2-1.9-2.1c-0.2-0.9,0.3-1.9,1.4-3.1c1.8-2,2.5-3.9,2.1-5.7c-0.5-2.1-2.3-3.4-3.4-4c-0.4-0.2-1,0-1.1,0.4l-0.5,1.3
			c-0.1,0.4,0,0.8,0.4,1c0.6,0.4,1.6,1,1.8,1.9c0.2,1-0.6,2.2-1.4,3.1C42.4,31.5,41.7,33.4,42.1,35.3z"/>
		<path fill="#FFFFFF" d="M49.9,35.3c0.5,2.2,2.3,3.5,3.4,4.1c0.4,0.2,1,0.1,1.1-0.4l0.5-1.2c0.2-0.4,0-0.8-0.3-1
			c-0.7-0.4-1.7-1.2-1.9-2.1c-0.2-0.9,0.3-1.9,1.4-3.1c1.8-2,2.5-3.9,2.1-5.7c-0.5-2.1-2.3-3.4-3.4-4c-0.4-0.2-1,0-1.1,0.4l-0.5,1.3
			c-0.1,0.4,0,0.8,0.4,1c0.6,0.4,1.6,1,1.8,1.9c0.2,1-0.6,2.2-1.4,3.1C50.2,31.5,49.5,33.4,49.9,35.3z"/>
		<path fill="#FFFFFF" d="M57.8,35.3c0.5,2.2,2.3,3.5,3.4,4.1c0.4,0.2,1,0.1,1.1-0.4l0.5-1.2c0.2-0.4,0-0.8-0.3-1
			c-0.7-0.4-1.7-1.2-1.9-2.1c-0.2-0.9,0.3-1.9,1.4-3.1c1.8-2,2.5-3.9,2.1-5.7c-0.5-2.1-2.3-3.4-3.4-4c-0.4-0.2-1,0-1.1,0.4l-0.5,1.3
			c-0.1,0.4,0,0.8,0.4,1c0.6,0.4,1.6,1,1.8,1.9c0.2,1-0.6,2.2-1.4,3.1C58.1,31.5,57.4,33.4,57.8,35.3z"/>
	</g>
</g>
</svg>
