<?xml version="1.0" encoding="utf-8"?>
<!-- Generator: Adobe Illustrator 18.1.1, SVG Export Plug-In . SVG Version: 6.00 Build 0)  -->
<svg version="1.1" id="Layer_1" xmlns="http://www.w3.org/2000/svg" xmlns:xlink="http://www.w3.org/1999/xlink" x="0px" y="0px"
	 viewBox="0 0 108 129.6" enable-background="new 0 0 108 129.6" xml:space="preserve">
<g>
	<g>
		<path fill="#6A1B9A" d="M54.3,1.7c28.4,0,51.3,22.9,51.3,51.2s-38.7,75-51.3,75c-15.6,0-51.3-46.8-51.3-75
			C3.1,24.6,26,1.7,54.3,1.7z"/>
	</g>
</g>
<g>
	<path fill="#2196F3" d="M54.3,10.4c-24.8,0-45,20.2-45,44.9s20.2,44.9,45,44.9s45-20.2,45-44.9S79.2,10.4,54.3,10.4z"/>
	<path fill="#FF9800" d="M54.3,101.3c-25.4,0-46-20.6-46-45.9s20.7-45.9,46-45.9s46,20.6,46,45.9S79.7,101.3,54.3,101.3z M54.3,11.4
		c-24.3,0-44,19.7-44,43.9s19.8,43.9,44,43.9c24.3,0,44-19.7,44-43.9S78.6,11.4,54.3,11.4z"/>
</g>
<g>
	<g>
		<g>
			<path fill="#8E24AA" d="M54.3,14.4c22.6,0,41,18.3,41,40.9S77,96.3,54.3,96.3s-41-18.3-41-40.9S31.7,14.4,54.3,14.4z"/>
		</g>
		<g>
			<path fill="#FFFFFF" d="M54.3,97.5C31,97.5,12,78.6,12,55.3s19-42.2,42.3-42.2s42.3,18.9,42.3,42.2S77.6,97.5,54.3,97.5z
				 M54.3,15.6c-21.9,0-39.8,17.8-39.8,39.7C14.5,77.2,32.4,95,54.3,95s39.8-17.8,39.8-39.7C94.1,33.4,76.3,15.6,54.3,15.6z"/>
		</g>
	</g>
</g>
<g>
	<path fill="#FFFFFF" d="M80.4,28.3c-0.2-0.2-0.5-0.3-0.8-0.3c-0.1,0-0.1,0-0.2,0L76,28.6c-0.2,0-0.4,0.1-0.5,0.3l-20.7,19
		L38.3,31.4l0.9-0.9l11.3,11.3c0.4,0.4,1,0.4,1.4,0c0.2-0.2,0.3-0.4,0.3-0.7s-0.1-0.5-0.3-0.7l-12-12c-0.4-0.4-1-0.4-1.4,0l-2.3,2.3
		l-6.6,6.6c-0.2,0.2-0.3,0.4-0.3,0.7s0.1,0.5,0.3,0.7l12,12v0c0,0,0,0,0,0l5,5l-8.3,10.3c-0.3,0.4-0.3,1.1,0.1,1.5l0.4,0.4
		c-1-0.6-2.1-1-3.2-1c-1.6,0-3.1,0.6-4.3,1.8c-1,1-2.5,7.1-3.3,10.6c-0.1,0.4,0,0.7,0.3,1c0.3,0.3,0.7,0.4,1,0.3l6.8-1.5
		c0.4-0.1,2.7-0.7,3.7-1.8c2-2.1,2.3-5.3,0.8-7.6l0.6,0.6c0.4,0.4,1,0.4,1.5,0.1l10.3-8.3l10,10c0.2,0.2,0.5,0.3,0.7,0.3l3.9-0.1
		l0.2,4.2c0,0.4,0.3,0.8,0.7,0.9l9.9,3.2c0.1,0,0.2,0,0.3,0c0,0,0,0,0.1,0c0.1,0,0.2,0,0.3-0.1c0,0,0.1,0,0.1,0
		c0.1,0,0.2-0.1,0.3-0.2c0.1-0.1,0.2-0.2,0.2-0.3c0-0.1,0.1-0.2,0.1-0.4c0-0.1,0-0.2,0-0.3l-3.2-9.9c-0.1-0.4-0.5-0.7-0.9-0.7
		l-4.2-0.2l0.2-3.7c0,0,0,0,0,0c0-0.3-0.1-0.5-0.3-0.7L60.7,53.9c7.5-8.1,19.1-20.6,19.1-20.6c0.1-0.2,0.2-0.3,0.3-0.5l0.6-3.5
		C80.8,28.9,80.6,28.5,80.4,28.3z M42,68.1l-1.4-1.4l7.3-9.1l3.2,3.3L42,68.1z M31.6,38.1l5.2-5.2l10.6,10.6l-5.2,5.2L31.6,38.1z
		 M74.6,70.8l1.7,5.3l-2-2c0-0.4-0.1-0.8-0.4-1.1c-0.6-0.6-1.5-0.6-2.1,0c-0.6,0.6-0.6,1.5,0,2.1c0.3,0.3,0.7,0.4,1.1,0.4l2,2
		l-5.3-1.7l-0.2-5.2L74.6,70.8z M78,32L59.2,52.4l-2.9-2.9l20.4-18.8l1.6-0.3L78,32z"/>
</g>
</svg>
