<?xml version="1.0" encoding="utf-8"?>
<!-- Generator: Adobe Illustrator 18.1.1, SVG Export Plug-In . SVG Version: 6.00 Build 0)  -->
<svg version="1.1" id="Layer_1" xmlns="http://www.w3.org/2000/svg" xmlns:xlink="http://www.w3.org/1999/xlink" x="0px" y="0px"
	 viewBox="0 0 44 44" enable-background="new 0 0 44 44" xml:space="preserve">
<g>
	<path fill="#03A9F4" d="M22,42.5C10.7,42.5,1.5,33.3,1.5,22S10.7,1.5,22,1.5S42.5,10.7,42.5,22S33.3,42.5,22,42.5z M22,2.5
		C11.2,2.5,2.5,11.2,2.5,22S11.2,41.5,22,41.5S41.5,32.8,41.5,22S32.8,2.5,22,2.5z"/>
</g>
<path fill="#03A9F4" d="M25.9,32H24c-0.8,0-1.4-0.6-1.4-1.4v-4c0-0.6,0.4-1.1,0.9-1.3c0.9-0.3,1.7-0.9,2.5-1.8
	c2.4-2.7,2.6-9.7,0.3-12.6l-0.2-0.2h-8.4l-0.2,0.2c-2.3,2.9-2.1,9.9,0.3,12.6c0.8,0.9,1.5,1.5,2.5,1.8c0.6,0.2,0.9,0.7,0.9,1.3v4
	c0,0.8-0.6,1.4-1.4,1.4h-1.8c-0.4,0-0.6,0.3-0.6,0.7s0.3,0.7,0.6,0.7h3.2h1.3h3.2c0.4,0,0.6-0.3,0.6-0.7S26.2,32,25.9,32z M18,12.9
	c0.2-0.5,0.7-0.9,1.3-0.9h5.5c0.6,0,1.1,0.3,1.3,0.9c0.5,1.2,0.7,2.9,0.7,4.5h-9.4C17.2,15.8,17.4,14.1,18,12.9z"/>
</svg>
