<?xml version="1.0" encoding="utf-8"?>
<!-- Generator: Adobe Illustrator 18.1.1, SVG Export Plug-In . SVG Version: 6.00 Build 0)  -->
<svg version="1.1" id="Layer_1" xmlns="http://www.w3.org/2000/svg" xmlns:xlink="http://www.w3.org/1999/xlink" x="0px" y="0px"
	 viewBox="0 0 44 44" enable-background="new 0 0 44 44" xml:space="preserve">
<g>
	<path fill="#03A9F4" d="M22,42.5C10.7,42.5,1.5,33.3,1.5,22S10.7,1.5,22,1.5S42.5,10.7,42.5,22S33.3,42.5,22,42.5z M22,2.5
		C11.2,2.5,2.5,11.2,2.5,22S11.2,41.5,22,41.5S41.5,32.8,41.5,22S32.8,2.5,22,2.5z"/>
</g>
<path fill="#03A9F4" d="M30.9,13.1C30.8,13,30.7,13,30.6,13c0,0,0,0-0.1,0l-1.2,0.2c-0.1,0-0.1,0-0.2,0.1l-7.1,6.5l-5.6-5.6l0.3-0.3
	l3.9,3.9c0.1,0.1,0.3,0.1,0.5,0c0.1-0.1,0.1-0.2,0.1-0.2s0-0.2-0.1-0.2l-4.1-4.1c-0.1-0.1-0.3-0.1-0.5,0L15.8,14l-2.3,2.3
	c-0.1,0.1-0.1,0.1-0.1,0.2s0,0.2,0.1,0.2l4.1,4.1v0c0,0,0,0,0,0l1.7,1.7L16.5,26c-0.1,0.1-0.1,0.4,0,0.5l0.1,0.1
	c-0.3-0.2-0.7-0.3-1.1-0.3c-0.6,0-1.1,0.2-1.5,0.6c-0.4,0.4-0.8,2.4-1.1,3.6c0,0.1,0,0.3,0.1,0.3c0.1,0.1,0.2,0.1,0.3,0.1l2.3-0.5
	c0.1,0,0.9-0.2,1.3-0.6c0.7-0.7,0.8-1.8,0.3-2.6l0.2,0.2c0.1,0.1,0.3,0.1,0.5,0l3.5-2.8l3.4,3.4c0.1,0.1,0.2,0.1,0.2,0.1l1.3,0
	l0.1,1.4c0,0.1,0.1,0.3,0.2,0.3l3.4,1.1c0,0,0.1,0,0.1,0c0,0,0,0,0,0c0,0,0.1,0,0.1,0c0,0,0,0,0,0c0,0,0.1,0,0.1-0.1
	c0,0,0.1-0.1,0.1-0.1c0,0,0-0.1,0-0.1c0,0,0-0.1,0-0.1l-1.1-3.4c0-0.1-0.2-0.2-0.3-0.2l-1.4-0.1l0.1-1.3c0,0,0,0,0,0
	c0-0.1,0-0.2-0.1-0.2l-3.5-3.5c2.6-2.7,6.5-7,6.5-7c0-0.1,0.1-0.1,0.1-0.2l0.2-1.2C31,13.3,31,13.2,30.9,13.1z M17.8,26.7l-0.5-0.5
	l2.5-3.1l1.1,1.1L17.8,26.7z M14.3,16.5l1.8-1.8l3.6,3.6l-1.8,1.8L14.3,16.5z M28.9,27.6l0.6,1.8l-0.7-0.7c0-0.1,0-0.3-0.1-0.4
	c-0.2-0.2-0.5-0.2-0.7,0c-0.2,0.2-0.2,0.5,0,0.7c0.1,0.1,0.2,0.2,0.4,0.1l0.7,0.7l-1.8-0.6l-0.1-1.8L28.9,27.6z M30.1,14.4l-6.4,7
	l-1-1l7-6.4l0.5-0.1L30.1,14.4z"/>
</svg>
