<?xml version="1.0" encoding="utf-8"?>
<!-- Generator: Adobe Illustrator 18.1.1, SVG Export Plug-In . SVG Version: 6.00 Build 0)  -->
<svg version="1.1" id="Layer_1" xmlns="http://www.w3.org/2000/svg" xmlns:xlink="http://www.w3.org/1999/xlink" x="0px" y="0px"
	 viewBox="0 0 44 44" enable-background="new 0 0 44 44" xml:space="preserve">
<g>
	<path fill="#03A9F4" d="M22,42.5C10.7,42.5,1.5,33.3,1.5,22S10.7,1.5,22,1.5S42.5,10.7,42.5,22S33.3,42.5,22,42.5z M22,2.5
		C11.2,2.5,2.5,11.2,2.5,22S11.2,41.5,22,41.5S41.5,32.8,41.5,22S32.8,2.5,22,2.5z"/>
</g>
<g>
	<g>
		<path fill="#03A9F4" d="M29.7,31.2H12.8c-0.2,0-0.3,0.1-0.3,0.3c0,0.2,0.1,0.3,0.2,0.4l4.8,1.4c0.1,0,0.1,0,0.2,0h7.1
			c0,0,0.1,0,0.2,0l4.8-1.4c0.2,0,0.3-0.2,0.2-0.4C30,31.4,29.8,31.2,29.7,31.2z"/>
		<path fill="#03A9F4" d="M28,20.4c-0.1,0-0.3-0.1-0.3-0.3l0.1-1.6c0-0.1,0-0.2-0.1-0.3c-0.1-0.1-0.2-0.1-0.2-0.1H15
			c-0.1,0-0.2,0-0.2,0.1c-0.1,0.1-0.1,0.2-0.1,0.3l0.7,11.9c0,0.2,0.2,0.3,0.3,0.3h11.2c0.2,0,0.3-0.1,0.3-0.3l0.1-1.9
			c0.1,0,0.2,0,0.2,0c2.2,0,4-1.8,4-4.1C31.5,22.3,30,20.6,28,20.4z M17,29.5C17,29.5,17,29.5,17,29.5c-0.3,0-0.5-0.2-0.5-0.5
			l-0.6-9.2c0-0.3,0.2-0.5,0.5-0.5c0.3,0,0.5,0.2,0.5,0.5l0.6,9.2C17.5,29.3,17.3,29.5,17,29.5z M27.7,27.1
			c-0.1-0.1-0.2-0.2-0.3-0.3l0.3-4.8c0-0.2,0.2-0.3,0.3-0.3c1.2,0.2,2.2,1.3,2.2,2.7C30.1,25.9,29.1,27,27.7,27.1z"/>
		<path fill="#03A9F4" d="M17.2,15.3c0.2,0.8,0.8,1.2,1.2,1.4c0.1,0.1,0.3,0,0.4-0.1l0.2-0.4c0.1-0.1,0-0.3-0.1-0.3
			c-0.2-0.1-0.6-0.4-0.7-0.7c-0.1-0.3,0.1-0.7,0.5-1.1c0.6-0.7,0.9-1.3,0.7-2c-0.2-0.7-0.8-1.2-1.2-1.4c-0.1-0.1-0.3,0-0.4,0.1
			l-0.2,0.4c0,0.1,0,0.3,0.1,0.3c0.2,0.1,0.5,0.4,0.6,0.7c0.1,0.4-0.2,0.8-0.5,1.1C17.3,14,17,14.7,17.2,15.3z"/>
		<path fill="#03A9F4" d="M19.9,15.3c0.2,0.8,0.8,1.2,1.2,1.4c0.1,0.1,0.3,0,0.4-0.1l0.2-0.4c0.1-0.1,0-0.3-0.1-0.3
			c-0.2-0.1-0.6-0.4-0.7-0.7c-0.1-0.3,0.1-0.7,0.5-1.1c0.6-0.7,0.9-1.3,0.7-2c-0.2-0.7-0.8-1.2-1.2-1.4c-0.1-0.1-0.3,0-0.4,0.1
			l-0.2,0.4c0,0.1,0,0.3,0.1,0.3c0.2,0.1,0.5,0.4,0.6,0.7c0.1,0.4-0.2,0.8-0.5,1.1C20,14,19.7,14.7,19.9,15.3z"/>
		<path fill="#03A9F4" d="M22.6,15.3c0.2,0.8,0.8,1.2,1.2,1.4c0.1,0.1,0.3,0,0.4-0.1l0.2-0.4c0.1-0.1,0-0.3-0.1-0.3
			c-0.2-0.1-0.6-0.4-0.7-0.7c-0.1-0.3,0.1-0.7,0.5-1.1c0.6-0.7,0.9-1.3,0.7-2c-0.2-0.7-0.8-1.2-1.2-1.4c-0.1-0.1-0.3,0-0.4,0.1
			l-0.2,0.4c0,0.1,0,0.3,0.1,0.3c0.2,0.1,0.5,0.4,0.6,0.7c0.1,0.4-0.2,0.8-0.5,1.1C22.7,14,22.5,14.7,22.6,15.3z"/>
	</g>
</g>
</svg>
