<?xml version="1.0" encoding="utf-8"?>
<!-- Generator: Adobe Illustrator 18.1.1, SVG Export Plug-In . SVG Version: 6.00 Build 0)  -->
<svg version="1.1" id="Layer_1" xmlns="http://www.w3.org/2000/svg" xmlns:xlink="http://www.w3.org/1999/xlink" x="0px" y="0px"
	 viewBox="0 0 44 44" enable-background="new 0 0 44 44" xml:space="preserve">
<g>
	<path fill="#03A9F4" d="M22,42.5C10.7,42.5,1.5,33.3,1.5,22S10.7,1.5,22,1.5S42.5,10.7,42.5,22S33.3,42.5,22,42.5z M22,2.5
		C11.2,2.5,2.5,11.2,2.5,22S11.2,41.5,22,41.5S41.5,32.8,41.5,22S32.8,2.5,22,2.5z"/>
</g>
<g>
	<g>
		<path fill="#03A9F4" d="M21.6,12.5c2.3,0,4,1.7,4,4s-1.7,4-4,4s-4-1.7-4-4S19.3,12.5,21.6,12.5z"/>
		<path fill="#03A9F4" d="M21.6,31.5c-3.3,0-6.3-1.7-8-4.3c0-2.7,5.4-4.1,8-4.1s8,1.5,8,4.1C27.9,29.8,25,31.5,21.6,31.5z"/>
	</g>
	<path fill="#03A9F4" d="M29.1,23.9L29.1,23.9c-0.5,0-0.8-0.3-0.8-0.7v-5.3c0-0.4,0.3-0.7,0.7-0.7h0.1c0.4,0,0.7,0.3,0.7,0.7v5.3
		C29.8,23.6,29.5,23.9,29.1,23.9z"/>
	<path fill="#03A9F4" d="M32.4,20.5L32.4,20.5c0,0.5-0.3,0.8-0.7,0.8h-5.3c-0.4,0-0.7-0.3-0.7-0.7v-0.1c0-0.4,0.3-0.7,0.7-0.7h5.3
		C32.1,19.8,32.4,20.1,32.4,20.5z"/>
</g>
</svg>
