<?xml version="1.0" encoding="utf-8"?>
<!-- Generator: Adobe Illustrator 18.1.1, SVG Export Plug-In . SVG Version: 6.00 Build 0)  -->
<svg version="1.1" id="Layer_1" xmlns="http://www.w3.org/2000/svg" xmlns:xlink="http://www.w3.org/1999/xlink" x="0px" y="0px"
	 viewBox="0 0 44 44" enable-background="new 0 0 44 44" xml:space="preserve">
<g>
	<path fill="#03A9F4" d="M25.5,11.2c-0.3,0.2-0.4,0.5-0.2,0.8c0,0,0.1,0.2,0.2,0.5c-0.1,0-0.1,0.1-0.2,0.2c-0.1,0.1-0.2,0.2-0.2,0.3
		l-6.9,0c0-0.1-0.1-0.1-0.1-0.2c-0.1-0.1-0.1-0.1-0.2-0.1c0.1-0.4,0.3-0.6,0.3-0.7c0.2-0.3,0.1-0.6-0.2-0.8
		c-0.3-0.2-0.6-0.1-0.8,0.2c0,0-0.3,0.5-0.5,1.2c-0.1,0.1-0.2,0.1-0.3,0.2c-0.5,0.5-0.5,1.2,0,1.6c0,0,0,0,0,0c0,0.9,0.2,2,0.8,3.2
		c-0.1,0.4,0,0.8,0.3,1.2c0.2,0.2,0.4,0.3,0.6,0.3c0.6,0.9,1.5,1.8,2.7,2.7l0.9,0.8c1,0.9,1.8,1.7,2.4,2.6c0,0.1-0.1,0.1-0.1,0.2
		l-4.7,0c0-0.1-0.1-0.1-0.1-0.2c0.4-0.6,1.1-1.4,1.7-1.9l-0.8-0.8c-0.8,0.8-1.4,1.5-1.9,2.3c-0.3,0-0.5,0.1-0.7,0.3
		c-0.4,0.4-0.4,0.9-0.2,1.3c-0.5,1-0.8,1.9-0.9,2.8c0,0-0.1,0.1-0.1,0.1c-0.4,0.4-0.4,1.1-0.1,1.5c-0.1,1,0.1,1.7,0.1,1.8
		c0.1,0.3,0.3,0.4,0.6,0.4c0,0,0.1,0,0.1,0c0.3-0.1,0.5-0.4,0.4-0.7c0-0.1-0.1-0.5-0.1-1.1c0.1,0,0.3-0.1,0.4-0.2l8.3,0
		c0.1,0.1,0.1,0.1,0.2,0.2c0,0.6-0.1,1-0.1,1.1c-0.1,0.3,0.1,0.6,0.4,0.7c0,0,0.1,0,0.1,0c0.3,0,0.5-0.2,0.6-0.4
		c0-0.1,0.1-0.6,0.2-1.4c0.1,0,0.2-0.1,0.2-0.2c0.5-0.5,0.5-1.2,0-1.6c-0.1-0.1-0.3-0.2-0.4-0.3c-0.2-0.9-0.5-1.8-1-2.9
		c0.1-0.4,0.1-0.9-0.3-1.2c-0.2-0.2-0.4-0.3-0.6-0.3c-0.7-0.9-1.5-1.9-2.6-2.9c0,0-0.9-0.8-0.9-0.8c-1-0.8-1.8-1.5-2.4-2.2l4.8,0
		c-0.4,0.5-1.3,1.4-1.9,2l1.3,0.5c0.8-0.7,1.4-1.4,1.8-2.1c0.2,0,0.5-0.1,0.7-0.3c0.3-0.3,0.4-0.9,0.2-1.3c0.5-1.2,0.7-2.2,0.7-3.1
		c0,0,0.1,0,0.1-0.1c0.5-0.5,0.5-1.2,0-1.6c-0.1-0.1-0.2-0.2-0.3-0.2c-0.2-0.7-0.4-1.1-0.4-1.1C26.2,11.1,25.8,11,25.5,11.2z
		 M26.2,29.2l-8.1,0c0,0,0,0,0,0c-0.1-0.1-0.1-0.1-0.2-0.2c0.1-0.6,0.3-1.3,0.6-2c0.3,0,0.6-0.1,0.8-0.3c0,0,0,0,0,0l5.1,0
		c0,0,0,0,0,0c0.3,0.3,0.8,0.4,1.3,0.2c0.4,0.8,0.6,1.6,0.7,2.2C26.3,29.1,26.2,29.1,26.2,29.2z M19,17c-0.2-0.1-0.3-0.2-0.5-0.2
		c-0.4-0.8-0.6-1.6-0.6-2.3c0.1,0,0.1-0.1,0.2-0.2c0.1-0.1,0.1-0.1,0.2-0.2l7.1,0c0,0,0,0,0,0c0.2,0.2,0.5,0.3,0.8,0.3
		c-0.1,0.7-0.2,1.4-0.6,2.2c-0.3-0.1-0.7,0-1,0.2L19,17z"/>
</g>
<g>
	<path fill="#03A9F4" d="M22,42.5C10.7,42.5,1.5,33.3,1.5,22S10.7,1.5,22,1.5S42.5,10.7,42.5,22S33.3,42.5,22,42.5z M22,2.5
		C11.2,2.5,2.5,11.2,2.5,22S11.2,41.5,22,41.5S41.5,32.8,41.5,22S32.8,2.5,22,2.5z"/>
</g>
</svg>
