<?xml version="1.0" encoding="utf-8"?>
<!-- Generator: Adobe Illustrator 18.1.1, SVG Export Plug-In . SVG Version: 6.00 Build 0)  -->
<svg version="1.1" id="Layer_1" xmlns="http://www.w3.org/2000/svg" xmlns:xlink="http://www.w3.org/1999/xlink" x="0px" y="0px"
	 viewBox="0 0 44 44" enable-background="new 0 0 44 44" xml:space="preserve">
<g>
	<path fill="#03A9F4" d="M22,42.5C10.7,42.5,1.5,33.3,1.5,22S10.7,1.5,22,1.5S42.5,10.7,42.5,22S33.3,42.5,22,42.5z M22,2.5
		C11.2,2.5,2.5,11.2,2.5,22S11.2,41.5,22,41.5S41.5,32.8,41.5,22S32.8,2.5,22,2.5z"/>
</g>
<g>
	<path fill="#03A9F4" d="M16.2,19.9c0.4,0,0.8-0.1,1.1-0.2l2.2,2.2l2.4-2.4l-2.2-2.2c0.4-1.3,0.1-2.8-0.9-3.7
		c-0.7-0.7-1.6-1.1-2.6-1.1c-0.5,0-1.1,0.1-1.6,0.4c-0.1,0-0.1,0.1-0.1,0.2c0,0.1,0,0.2,0.1,0.2l2.3,2.3c0.2,0.2,0.3,0.4,0.3,0.6
		c0,0.2-0.1,0.5-0.3,0.6c-0.3,0.3-0.9,0.3-1.3,0l-2.3-2.3c-0.1-0.1-0.1-0.1-0.2-0.1c-0.1,0-0.2,0.1-0.2,0.1
		c-0.7,1.4-0.4,3.1,0.7,4.2C14.3,19.5,15.2,19.9,16.2,19.9z"/>
	<path fill="#03A9F4" d="M27.8,24.1c-0.4,0-0.8,0.1-1.1,0.2l-2.4-2.4l-2.4,2.4l2.4,2.4c-0.4,1.3-0.1,2.8,0.9,3.7
		c0.7,0.7,1.6,1.1,2.6,1.1c0.5,0,1.1-0.1,1.6-0.4c0.1,0,0.1-0.1,0.1-0.2c0-0.1,0-0.2-0.1-0.2l-2.3-2.3c-0.2-0.2-0.3-0.4-0.3-0.6
		c0-0.2,0.1-0.5,0.3-0.6c0.3-0.3,0.9-0.3,1.3,0l2.3,2.3c0.1,0.1,0.1,0.1,0.2,0.1c0.1,0,0.2-0.1,0.2-0.1c0.7-1.4,0.4-3.1-0.7-4.2
		C29.7,24.5,28.8,24.1,27.8,24.1z"/>
	<path fill="#03A9F4" d="M26.8,18.7c0,0,0.4,0.3,0.7,0.2c0.4-0.2,1.4,0.8,1.8,1.1c0,0,0,0,0,0l-0.2,0.2c-0.2,0.2-0.2,0.6,0,0.9
		c0.2,0.2,0.6,0.2,0.9,0l1.4-1.4c0.2-0.2,0.2-0.6,0-0.9c-0.2-0.2-0.6-0.2-0.9,0l-0.2,0.2c-0.2-0.3-0.5-0.7-0.5-0.9
		c0.2-0.7-1.2-2.3-1.2-2.3c-3.4-3.4-5.7-3.4-6.8-3c-0.4,0.2-0.4,0.2,0.1,0.3c3.3,0.6,3.7,2.5,3.2,3.3c-0.2,0.3,0.1,0.6,0.1,0.6
		l0.1,0.1l-5.6,5.6c0.1,0,0.1,0.1,0.2,0.2l0.9,0.9c0.1,0.1,0.1,0.1,0.2,0.2l5.6-5.6L26.8,18.7z"/>
	<path fill="#03A9F4" d="M19.5,23.3c-0.2-0.2-0.6-0.2-0.8,0l-6.2,5.6c-0.2,0.2-0.2,0.5,0,0.7l1.7,1.7c0.2,0.2,0.5,0.2,0.7,0l5.6-6.2
		c0.2-0.2,0.2-0.6,0-0.8L19.5,23.3z"/>
</g>
</svg>
