<?xml version="1.0" encoding="utf-8"?>
<!-- Generator: Adobe Illustrator 18.1.1, SVG Export Plug-In . SVG Version: 6.00 Build 0)  -->
<svg version="1.1" id="Layer_1" xmlns="http://www.w3.org/2000/svg" xmlns:xlink="http://www.w3.org/1999/xlink" x="0px" y="0px"
	 viewBox="0 0 44 44" enable-background="new 0 0 44 44" xml:space="preserve">
<g>
	<path fill="#03A9F4" d="M22,42.5C10.7,42.5,1.5,33.3,1.5,22S10.7,1.5,22,1.5S42.5,10.7,42.5,22S33.3,42.5,22,42.5z M22,2.5
		C11.2,2.5,2.5,11.2,2.5,22S11.2,41.5,22,41.5S41.5,32.8,41.5,22S32.8,2.5,22,2.5z"/>
</g>
<g>
	<path fill="#03A9F4" d="M29,17.9c0-3.9-3.2-6.9-7.1-6.9c-1.9,0-3.7,0.9-4.9,2.1c-1.3,1.3-2,3.1-2,5c0,1.3,0.4,2.5,1,3.5
		c0,0,0,0,0,0c0.1,0.2,1.8,3.3,2,3.6c0.1,0.1,0.1,0.5,0.2,1v0c0,0,3.8,1.7,8,0l0-0.5h0c0-0.3,0.1-0.5,0.1-0.6
		c0.1-0.3,1.8-3.5,1.9-3.7c0,0,0,0,0,0C28.7,20.4,29,19.2,29,17.9z M20,25.8l-1.5-5.5c0-0.2,0-0.3,0.1-0.4c0-0.1,0.1-0.1,0.2-0.1
		c0.2-0.1,0.5,0.1,0.5,0.3l1.6,5.7L20,25.8z M21.6,21.2l-2.1-1.6l0.4-0.6l2.1,1.6L21.6,21.2z M22,20.6l2.1-1.6l0.4,0.6l-2.1,1.6
		L22,20.6z M25.6,20.2l-1.4,5.6l-0.9,0l1.5-5.8c0-0.1,0.1-0.1,0.1-0.2c0.1-0.1,0.3-0.2,0.4-0.1C25.5,19.7,25.6,20,25.6,20.2z"/>
	<path fill="#03A9F4" d="M20.4,30.8c0,0.1,0,0.2,0,0.3H24c0-0.2,0-0.3,0-0.3H20.4z"/>
	<path fill="#03A9F4" d="M20.9,32.5c0.7,0.7,1.9,0.7,2.6,0c0.1-0.1,0.1-0.1,0.1-0.2h-3C20.8,32.3,20.9,32.4,20.9,32.5z"/>
	<path fill="#03A9F4" d="M20.6,31.9h3.2c0-0.1,0.1-0.3,0.1-0.4h-3.4C20.5,31.6,20.6,31.8,20.6,31.9z"/>
	<path fill="#03A9F4" d="M26.1,28.9L26.1,27c0,0-3.4,1.7-7.9,0c0.1,1.6,0.1,2,0.1,2l2.2,1.3c0,0,0,0.1,0,0.2H24c0-0.2,0-0.3,0-0.3
		L26.1,28.9z"/>
</g>
</svg>
