<?xml version="1.0" encoding="utf-8"?>
<!-- Generator: Adobe Illustrator 18.1.1, SVG Export Plug-In . SVG Version: 6.00 Build 0)  -->
<svg version="1.1" id="Layer_1" xmlns="http://www.w3.org/2000/svg" xmlns:xlink="http://www.w3.org/1999/xlink" x="0px" y="0px"
	 viewBox="0 0 44 44" enable-background="new 0 0 44 44" xml:space="preserve">
<g>
	<path fill="#03A9F4" d="M22,42.5C10.7,42.5,1.5,33.3,1.5,22S10.7,1.5,22,1.5S42.5,10.7,42.5,22S33.3,42.5,22,42.5z M22,2.5
		C11.2,2.5,2.5,11.2,2.5,22S11.2,41.5,22,41.5S41.5,32.8,41.5,22S32.8,2.5,22,2.5z"/>
</g>
<g id="layer1" transform="translate(-313.03964,-301.79625)">
	<g id="g2554" transform="matrix(2.5585897,0,0,2.5585897,313.03964,301.79625)">
		<g id="g8" transform="translate(-2.73438e-2,-599.527)">
			<path id="path10" fill="#03A9F4" d="M10,610.8v-3h0.6v3H10z"/>
		</g>
		<g id="g12" transform="translate(-2.73438e-2,-599.527)">
			<path id="path14" fill="#03A9F4" d="M6.6,610.8v-3h0.6v3H6.6z"/>
		</g>
		<g id="g16" transform="translate(-2.73438e-2,-599.527)">
			<path id="path18" fill="#03A9F4" d="M7.4,610.8v-3h0.6v3H7.4z"/>
		</g>
		<g id="g20" transform="translate(-2.73438e-2,-599.527)">
			<path id="path22" fill="#03A9F4" d="M8.3,610.8v-3H9v3H8.3z"/>
		</g>
		<g id="g24" transform="translate(-2.73438e-2,-599.527)">
			<path id="path26" fill="#03A9F4" d="M9.8,607.8v3H9.2v-3H9.8z"/>
		</g>
		<g id="g28" transform="translate(-2.73438e-2,-599.527)">
			<path id="path30" fill="#03A9F4" d="M10.4,607.6H6.9l1.8-1.1L10.4,607.6z"/>
		</g>
		<g id="g32" transform="translate(-2.73438e-2,-599.527)">
			<path id="path34" fill="#03A9F4" d="M6.5,607.6H5v-1.1h3.3L6.5,607.6z"/>
		</g>
		<g id="g36" transform="translate(-2.73438e-2,-599.527)">
			<path id="path38" fill="#03A9F4" d="M9,606.5h3.2v1.1h-1.5L9,606.5z"/>
		</g>
		<g id="g40" transform="translate(-2.73438e-2,-599.527)">
			<path id="path42" fill="#03A9F4" d="M11.8,606.3H5.4c0.6-1.1,1.8-1.9,3.2-1.9C10,604.4,11.2,605.2,11.8,606.3z"/>
		</g>
		<g id="g44" transform="translate(-2.73438e-2,-599.527)">
			<path id="path46" fill="#03A9F4" d="M6,610.7l0,0.1L6,610.7l0.2,0.1l0-0.1l0.1-0.1L6,610.7l0.1-0.2L6,610.7L6,610.7L6,610.7z
				 M5.5,610l0,0.1L5.5,610l0.2,0.1l0-0.1l0.1-0.1L5.5,610l0.1-0.2L5.5,610L5.5,610L5.5,610z M5.1,609.1l0,0.1L5.1,609.1l0.2,0.1
				l0-0.1l0.1-0.1L5.1,609.1l0.1-0.2L5.1,609.1L5.1,609.1L5.1,609.1z M6.4,610.8H5v-2.7l0,0l0,0.1l0.1-0.1l0.1,0.1l0-0.1l0.1-0.1
				H5.1l0-0.1l0,0.1H5v-0.3h1.4V610.8z"/>
		</g>
		<g id="g48" transform="translate(-2.73438e-2,-599.527)">
			<path id="path50" fill="#03A9F4" d="M6.4,611v0.8H5V611H6.4z"/>
		</g>
		<g id="g52" transform="translate(-2.73438e-2,-599.527)">
			<path id="path54" fill="#03A9F4" d="M10.9,611h1.4v0.8h-1.4V611z"/>
		</g>
		<g id="g56" transform="translate(-2.73438e-2,-599.527)">
			<path id="path58" fill="#03A9F4" d="M9.6,611.6L9.6,611.6L9.6,611.6l-0.1-0.2L9.6,611.6l-0.2-0.1l0.1,0.1l0,0.1L9.6,611.6l0,0.1
				L9.6,611.6z M10.4,611.3L10.4,611.3L10.4,611.3l-0.1-0.2L10.4,611.3l-0.2-0.1l0.1,0.1l0,0.1L10.4,611.3l0,0.1L10.4,611.3z
				 M7.7,611.6l0,0.1L7.7,611.6l0.2,0.1l0-0.1l0.1-0.1L7.7,611.6l0.1-0.2L7.7,611.6L7.7,611.6L7.7,611.6z M6.8,611.3l0,0.1
				L6.8,611.3l0.2,0.1l0-0.1l0.1-0.1L6.8,611.3l0.1-0.2L6.8,611.3L6.8,611.3L6.8,611.3z M10.6,611v0.8H8.7l0-0.1l0.1-0.1H8.7l0-0.1
				l0,0.1H8.5l0.1,0.1l0,0.1H6.6V611H10.6z M8.7,611.8H8.5H8.7L8.7,611.8z"/>
		</g>
		<g id="g60" transform="translate(-2.73438e-2,-599.527)">
			<path id="path62" fill="#03A9F4" d="M11.2,610.7L11.2,610.7L11.2,610.7l-0.1-0.2L11.2,610.7l-0.2-0.1l0.1,0.1l0,0.1L11.2,610.7
				l0,0.1L11.2,610.7z M11.8,610L11.8,610L11.8,610l-0.1-0.2L11.8,610l-0.2-0.1l0.1,0.1l0,0.1L11.8,610l0,0.1L11.8,610z M12.1,609.1
				L12.1,609.1L12.1,609.1l-0.1-0.2L12.1,609.1l-0.2-0.1l0.1,0.1l0,0.1L12.1,609.1l0,0.1L12.1,609.1z M12.3,610.8h-1.4v-3h1.4v0.3
				h-0.1l0-0.1l0,0.1H12l0.1,0.1l0,0.1l0.1-0.1l0.1,0.1l0-0.1l0,0V610.8z"/>
		</g>
	</g>
</g>
</svg>
