<?xml version="1.0" encoding="utf-8"?>
<!-- Generator: Adobe Illustrator 18.1.1, SVG Export Plug-In . SVG Version: 6.00 Build 0)  -->
<svg version="1.1" id="Layer_1" xmlns="http://www.w3.org/2000/svg" xmlns:xlink="http://www.w3.org/1999/xlink" x="0px" y="0px"
	 viewBox="0 0 44 44" enable-background="new 0 0 44 44" xml:space="preserve">
<g>
	<path fill="#03A9F4" d="M22,42.5C10.7,42.5,1.5,33.3,1.5,22S10.7,1.5,22,1.5S42.5,10.7,42.5,22S33.3,42.5,22,42.5z M22,2.5
		C11.2,2.5,2.5,11.2,2.5,22S11.2,41.5,22,41.5S41.5,32.8,41.5,22S32.8,2.5,22,2.5z"/>
</g>
<g>
	<path fill="#03A9F4" d="M28.6,19.7h-0.9c-0.2,0-0.4,0-0.5,0v-2c0-0.1,0-0.2,0-0.3c0.6-0.4,0.9-1.1,0.9-1.8c0-1.4-1.3-2.5-2.7-2.3
		c-0.5-0.5-1.2-0.8-1.8-0.7c-0.4-0.6-1.2-1-2-1c-0.6,0-1.2,0.3-1.7,0.7c-0.1,0-0.2-0.1-0.4-0.1l-0.2,0c-0.1,0-0.2,0-0.4,0
		c-0.2,0-0.4,0-0.5,0h0v0c-1,0.1-1.9,0.7-2.2,1.5c-1,0.2-1.8,1.1-1.8,2.1c0,0.7,0.4,1.4,0.9,1.8c0,0.1,0,0.2,0,0.2v13
		c0,0.9,0.7,1.6,1.6,1.6h8.7c0.9,0,1.6-0.7,1.6-1.6v-3.7c0.2,0,0.3,0.1,0.5,0.1h0.9c1.6,0,2.9-1.3,2.9-2.9v-1.7
		C31.5,21,30.2,19.7,28.6,19.7z M17.5,30.7C17.4,30.7,17.4,30.7,17.5,30.7c-0.3,0-0.5-0.2-0.5-0.5l0-9.3c0-0.3,0.2-0.5,0.5-0.5
		c0.3,0,0.5,0.2,0.5,0.5l0,9.3C18,30.5,17.7,30.7,17.5,30.7z M26.2,19.2h-9.8v-1.4c0-0.3,0.2-0.5,0.5-0.5h8.7c0.3,0,0.5,0.2,0.5,0.5
		C26.2,17.8,26.2,18.9,26.2,19.2z M26.7,16.6c-0.3-0.2-0.6-0.4-1-0.4H17c-0.4,0-0.8,0.2-1,0.4c-0.2-0.2-0.4-0.5-0.4-0.9
		c0-0.6,0.5-1.1,1.1-1.1l0.4,0l0.1-0.4c0.1-0.5,0.6-1,1.4-1.1h0.6c0.2,0,0.5,0.1,0.7,0.2l0.4,0.3l0.3-0.4c0.3-0.4,0.7-0.6,1.1-0.6
		c0.5,0,1,0.3,1.2,0.8l0.2,0.4l0.4-0.1c0.5-0.1,1.1,0.1,1.4,0.6l0.2,0.3l0.4-0.1c0.2-0.1,0.3-0.1,0.4-0.1c0.7,0,1.3,0.6,1.3,1.3
		C27.1,16,27,16.4,26.7,16.6z M29.9,24.3c0,0.7-0.6,1.3-1.3,1.3h-0.9c-0.2,0-0.4,0-0.5-0.1v-4.1c0.2-0.1,0.3-0.1,0.5-0.1h0.9
		c0.7,0,1.3,0.6,1.3,1.3V24.3z"/>
</g>
</svg>
