<?xml version="1.0" encoding="utf-8"?>
<!-- Generator: Adobe Illustrator 18.1.1, SVG Export Plug-In . SVG Version: 6.00 Build 0)  -->
<svg version="1.1" id="Layer_1" xmlns="http://www.w3.org/2000/svg" xmlns:xlink="http://www.w3.org/1999/xlink" x="0px" y="0px"
	 viewBox="0 0 44 44" enable-background="new 0 0 44 44" xml:space="preserve">
<g>
	<path fill="#03A9F4" d="M22,42.5C10.7,42.5,1.5,33.3,1.5,22S10.7,1.5,22,1.5S42.5,10.7,42.5,22S33.3,42.5,22,42.5z M22,2.5
		C11.2,2.5,2.5,11.2,2.5,22S11.2,41.5,22,41.5S41.5,32.8,41.5,22S32.8,2.5,22,2.5z"/>
</g>
<g>
	<g>
		<circle fill="#03A9F4" cx="19.2" cy="19.3" r="2.2"/>
		<path fill="#03A9F4" d="M26.7,18.1l-2-0.6l-0.4-0.8l1-1.8c0.1-0.1,0-0.3-0.1-0.4l-1.2-1.2c-0.1-0.1-0.3-0.1-0.4-0.1l-1.8,1
			L21,13.8l-0.6-2c0-0.1-0.2-0.2-0.3-0.2h-1.7c-0.2,0-0.3,0.1-0.3,0.2l-0.6,2l-0.8,0.4l-1.8-1c-0.1-0.1-0.3,0-0.4,0.1l-1.2,1.2
			c-0.1,0.1-0.1,0.3-0.1,0.4l1,1.8l-0.4,0.8l-2,0.6c-0.1,0-0.2,0.2-0.2,0.3v1.7c0,0.2,0.1,0.3,0.2,0.3l2,0.6l0.4,0.8l-1,1.8
			c-0.1,0.1,0,0.3,0.1,0.4l1.2,1.2c0.1,0.1,0.3,0.1,0.4,0.1l1.8-1l0.8,0.4l0.6,2c0,0.1,0.2,0.2,0.3,0.2h1.7c0.2,0,0.3-0.1,0.3-0.2
			l0.6-2l0.8-0.4l0.6,0.3c0.1,0.1,0.3,0,0.4-0.1c0.1-0.1,0.1-0.3,0.1-0.4l-0.4-1l0.8-0.8l0.9,0.4c0,0,0.1,0,0.1,0c0,0,0,0,0,0
			c0.2,0,0.3-0.2,0.3-0.3c0-0.1,0-0.2-0.1-0.2l-0.2-0.4l0.4-0.8l2-0.6c0.1,0,0.2-0.2,0.2-0.3v-1.7C27,18.3,26.9,18.1,26.7,18.1z
			 M19.2,22.2c-1.6,0-2.9-1.3-2.9-2.9s1.3-2.9,2.9-2.9s2.9,1.3,2.9,2.9S20.8,22.2,19.2,22.2z"/>
	</g>
	<g>
		<circle fill="#03A9F4" cx="27.1" cy="27" r="1.7"/>
		<path fill="#03A9F4" d="M32.3,26.3l-1.1-0.4l-0.4-1l0.6-1.1c0.1-0.1,0-0.3-0.1-0.4l-0.6-0.6c-0.1-0.1-0.3-0.1-0.4-0.1l-1.1,0.6
			l-1-0.4l-0.4-1.1c0-0.1-0.2-0.2-0.3-0.2h-0.9c-0.1,0-0.3,0.1-0.3,0.2L25.9,23l-1,0.4l-1.1-0.6c-0.1-0.1-0.3,0-0.4,0.1l-0.6,0.6
			c-0.1,0.1-0.1,0.3-0.1,0.4l0.6,1.1l-0.4,1l-1.1,0.4c-0.1,0-0.2,0.2-0.2,0.3v0.9c0,0.1,0.1,0.3,0.2,0.3l1.1,0.4l0.4,1l-0.6,1.1
			c-0.1,0.1,0,0.3,0.1,0.4l0.6,0.6c0.1,0.1,0.3,0.1,0.4,0.1l1.1-0.6l1,0.4l0.4,1.1c0,0.1,0.2,0.2,0.3,0.2h0.9c0.1,0,0.3-0.1,0.3-0.2
			l0.4-1.1l1-0.4l1.1,0.6c0.1,0.1,0.3,0,0.4-0.1l0.6-0.6c0.1-0.1,0.1-0.3,0.1-0.4l-0.6-1.1l0.4-1l1.1-0.4c0.1,0,0.2-0.2,0.2-0.3
			v-0.9C32.5,26.4,32.4,26.3,32.3,26.3z M27.1,29.4c-1.3,0-2.4-1.1-2.4-2.4c0-1.3,1.1-2.4,2.4-2.4c1.3,0,2.4,1.1,2.4,2.4
			C29.5,28.4,28.4,29.4,27.1,29.4z"/>
	</g>
</g>
</svg>
