<?xml version="1.0" encoding="utf-8"?>
<!-- Generator: Adobe Illustrator 18.1.1, SVG Export Plug-In . SVG Version: 6.00 Build 0)  -->
<svg version="1.1" id="Layer_1" xmlns="http://www.w3.org/2000/svg" xmlns:xlink="http://www.w3.org/1999/xlink" x="0px" y="0px"
	 viewBox="0 0 108 129.6" enable-background="new 0 0 108 129.6" xml:space="preserve">
<g>
	<path fill="#00695C" d="M54,1.7c28.4,0,51.3,22.9,51.3,51.2s-38.7,75-51.3,75c-15.6,0-51.3-46.8-51.3-75C2.7,24.6,25.6,1.7,54,1.7z
		"/>
</g>
<g>
	<g>
		<path fill="#00897B" d="M54,14.4c22.6,0,41,18.3,41,40.9S76.6,96.3,54,96.3S13,77.9,13,55.3S31.4,14.4,54,14.4z"/>
		<path fill="#FFFFFF" d="M54,97.5c-23.3,0-42.3-18.9-42.3-42.2s19-42.2,42.3-42.2s42.3,18.9,42.3,42.2S77.3,97.5,54,97.5z M54,15.6
			c-21.9,0-39.8,17.8-39.8,39.7C14.2,77.2,32.1,95,54,95s39.8-17.8,39.8-39.7C93.8,33.4,75.9,15.6,54,15.6z"/>
	</g>
</g>
<g>
	<rect x="43.4" y="29.1" fill="#FFFFFF" width="21.1" height="53.9"/>
	<path fill="#FFFFFF" d="M73.3,46.4v-1.2h2.1c0.9,0,1.6-0.7,1.6-1.6c0-0.9-0.7-1.6-1.6-1.6h-2.1v-1.6h-3.8v-2.5h3.8v-1.2h2.1
		c0.9,0,1.6-0.7,1.6-1.6c0-0.9-0.7-1.6-1.6-1.6h-2.1V32h-3.8v-2.3c0-2.7-2.2-4.9-4.9-4.9H43.4c-2.7,0-4.9,2.2-4.9,4.9V32h-3.8v1.2
		h-2.1c-0.9,0-1.6,0.7-1.6,1.6c0,0.9,0.7,1.6,1.6,1.6h2.1v1.6h3.8v2.5h-3.8v1.2h-2.1c-0.9,0-1.6,0.7-1.6,1.6c0,0.9,0.7,1.6,1.6,1.6
		h2.1v1.6h3.8v2.5h-3.8v1.2h-2.1c-0.9,0-1.6,0.7-1.6,1.6c0,0.9,0.7,1.6,1.6,1.6h2.1v1.6h3.8v2.5h-3.8v1.2h-2.1
		c-0.9,0-1.6,0.7-1.6,1.6c0,0.9,0.7,1.6,1.6,1.6h2.1v1.6h3.8v2.5h-3.8v1.2h-2.1c-0.9,0-1.6,0.7-1.6,1.6c0,0.9,0.7,1.6,1.6,1.6h2.1
		v1.6h3.8v2.5h-3.8v1.2h-2.1c-0.9,0-1.6,0.7-1.6,1.6c0,0.9,0.7,1.6,1.6,1.6h2.1v1.6h3.8v2.3c0,2.7,2.2,4.9,4.9,4.9h21.1
		c2.7,0,4.9-2.2,4.9-4.9v-2.3h3.8V79h2.1c0.9,0,1.6-0.7,1.6-1.6c0-0.9-0.7-1.6-1.6-1.6h-2.1v-1.6h-3.8v-2.5h3.8v-1.2h2.1
		c0.9,0,1.6-0.7,1.6-1.6c0-0.9-0.7-1.6-1.6-1.6h-2.1v-1.6h-3.8v-2.5h3.8v-1.2h2.1c0.9,0,1.6-0.7,1.6-1.6c0-0.9-0.7-1.6-1.6-1.6h-2.1
		v-1.6h-3.8v-2.5h3.8v-1.2h2.1c0.9,0,1.6-0.7,1.6-1.6c0-0.9-0.7-1.6-1.6-1.6h-2.1v-1.6h-3.8v-2.5H73.3z M67.3,82.6
		c0,1.5-1.2,2.8-2.7,2.8H43.4c-1.5,0-2.7-1.2-2.7-2.8v-53c0-1.5,1.2-2.7,2.7-2.7h21.1c1.5,0,2.7,1.2,2.7,2.7V82.6z"/>
</g>
</svg>
