<?xml version="1.0" encoding="utf-8"?>
<!-- Generator: Adobe Illustrator 18.1.1, SVG Export Plug-In . SVG Version: 6.00 Build 0)  -->
<svg version="1.1" id="Layer_1" xmlns="http://www.w3.org/2000/svg" xmlns:xlink="http://www.w3.org/1999/xlink" x="0px" y="0px"
	 viewBox="0 0 108 129.6" enable-background="new 0 0 108 129.6" xml:space="preserve">
<g>
	<g>
		<path fill="#00695C" d="M54.3,1.7c28.4,0,51.3,22.9,51.3,51.2s-38.7,75-51.3,75c-15.6,0-51.3-46.8-51.3-75
			C3.1,24.6,26,1.7,54.3,1.7z"/>
	</g>
</g>
<g>
	<path fill="#2196F3" d="M54.3,10.4c-24.8,0-45,20.2-45,44.9s20.2,44.9,45,44.9s45-20.2,45-44.9S79.2,10.4,54.3,10.4z"/>
	<path fill="#FF9800" d="M54.3,101.3c-25.4,0-46-20.6-46-45.9s20.7-45.9,46-45.9s46,20.6,46,45.9S79.7,101.3,54.3,101.3z M54.3,11.4
		c-24.3,0-44,19.7-44,43.9s19.8,43.9,44,43.9c24.3,0,44-19.7,44-43.9S78.6,11.4,54.3,11.4z"/>
</g>
<g>
	<g>
		<g>
			<path fill="#00897B" d="M54.3,14.4c22.6,0,41,18.3,41,40.9S77,96.3,54.3,96.3s-41-18.3-41-40.9S31.7,14.4,54.3,14.4z"/>
		</g>
		<g>
			<path fill="#FFFFFF" d="M54.3,97.5C31,97.5,12,78.6,12,55.3s19-42.2,42.3-42.2s42.3,18.9,42.3,42.2S77.6,97.5,54.3,97.5z
				 M54.3,15.6c-21.9,0-39.8,17.8-39.8,39.7C14.5,77.2,32.4,95,54.3,95s39.8-17.8,39.8-39.7C94.1,33.4,76.3,15.6,54.3,15.6z"/>
		</g>
	</g>
</g>
<g>
	<g>
		<rect x="43.7" y="29.1" fill="#FFFFFF" width="21.1" height="53.9"/>
	</g>
	<g>
		<path fill="#FFFFFF" d="M73.6,46.4v-1.2h2.1c0.9,0,1.6-0.7,1.6-1.6c0-0.9-0.7-1.6-1.6-1.6h-2.1v-1.6h-3.8v-2.5h3.8v-1.2h2.1
			c0.9,0,1.6-0.7,1.6-1.6c0-0.9-0.7-1.6-1.6-1.6h-2.1V32h-3.8v-2.3c0-2.7-2.2-4.9-4.9-4.9H43.8c-2.7,0-4.9,2.2-4.9,4.9V32h-3.8v1.2
			H33c-0.9,0-1.6,0.7-1.6,1.6c0,0.9,0.7,1.6,1.6,1.6h2.1v1.6h3.8v2.5h-3.8v1.2H33c-0.9,0-1.6,0.7-1.6,1.6c0,0.9,0.7,1.6,1.6,1.6h2.1
			v1.6h3.8v2.5h-3.8v1.2H33c-0.9,0-1.6,0.7-1.6,1.6c0,0.9,0.7,1.6,1.6,1.6h2.1v1.6h3.8v2.5h-3.8v1.2H33c-0.9,0-1.6,0.7-1.6,1.6
			c0,0.9,0.7,1.6,1.6,1.6h2.1v1.6h3.8v2.5h-3.8v1.2H33c-0.9,0-1.6,0.7-1.6,1.6c0,0.9,0.7,1.6,1.6,1.6h2.1v1.6h3.8v2.5h-3.8v1.2H33
			c-0.9,0-1.6,0.7-1.6,1.6c0,0.9,0.7,1.6,1.6,1.6h2.1v1.6h3.8v2.3c0,2.7,2.2,4.9,4.9,4.9h21.1c2.7,0,4.9-2.2,4.9-4.9v-2.3h3.8V79
			h2.1c0.9,0,1.6-0.7,1.6-1.6c0-0.9-0.7-1.6-1.6-1.6h-2.1v-1.6h-3.8v-2.5h3.8v-1.2h2.1c0.9,0,1.6-0.7,1.6-1.6c0-0.9-0.7-1.6-1.6-1.6
			h-2.1v-1.6h-3.8v-2.5h3.8v-1.2h2.1c0.9,0,1.6-0.7,1.6-1.6c0-0.9-0.7-1.6-1.6-1.6h-2.1v-1.6h-3.8v-2.5h3.8v-1.2h2.1
			c0.9,0,1.6-0.7,1.6-1.6c0-0.9-0.7-1.6-1.6-1.6h-2.1v-1.6h-3.8v-2.5H73.6z M67.6,82.6c0,1.5-1.2,2.8-2.7,2.8H43.8
			c-1.5,0-2.7-1.2-2.7-2.8v-53c0-1.5,1.2-2.7,2.7-2.7h21.1c1.5,0,2.7,1.2,2.7,2.7V82.6z"/>
	</g>
</g>
</svg>
