<?xml version="1.0" encoding="utf-8"?>
<!-- Generator: Adobe Illustrator 18.1.1, SVG Export Plug-In . SVG Version: 6.00 Build 0)  -->
<svg version="1.1" id="Layer_1" xmlns="http://www.w3.org/2000/svg" xmlns:xlink="http://www.w3.org/1999/xlink" x="0px" y="0px"
	 viewBox="0 0 108 129.6" enable-background="new 0 0 108 129.6" xml:space="preserve">
<g>
	<path fill="#4527A0" d="M54,1.7c28.4,0,51.3,22.9,51.3,51.2s-38.7,75-51.3,75c-15.6,0-51.3-46.8-51.3-75C2.7,24.6,25.6,1.7,54,1.7z
		"/>
</g>
<g>
	<g>
		<path fill="#5E35B1" d="M54,14.4c22.6,0,41,18.3,41,40.9S76.6,96.3,54,96.3S13,77.9,13,55.3S31.4,14.4,54,14.4z"/>
		<path fill="#FFFFFF" d="M54,97.5c-23.3,0-42.3-18.9-42.3-42.2s19-42.2,42.3-42.2s42.3,18.9,42.3,42.2S77.3,97.5,54,97.5z M54,15.6
			c-21.9,0-39.8,17.8-39.8,39.7C14.2,77.2,32.1,95,54,95s39.8-17.8,39.8-39.7C93.8,33.4,75.9,15.6,54,15.6z"/>
	</g>
</g>
<g>
	<path fill="#FFFFFF" d="M74.3,43C74.2,31.8,65,22.9,53.8,23.1c-5.6,0.1-10.6,2.5-14.3,6.2c-3.6,3.7-5.9,8.9-5.8,14.5
		c0,3.7,1.1,7.2,2.9,10.2c0,0,0,0,0,0c0.3,0.5,5.3,9.5,5.7,10.4c0.2,0.2,0.4,1.3,0.5,2.9v0c0,0,10.9,4.9,23,0l0-1.5h0
		c0.1-0.7,0.2-1.5,0.3-1.9c0.3-1,5.2-10.1,5.5-10.6c0,0,0,0,0,0C73.3,50.2,74.3,46.7,74.3,43z M48.2,66l-4.5-15.9
		c-0.1-0.5,0-0.9,0.3-1.3c0.1-0.1,0.3-0.3,0.5-0.3c0.7-0.2,1.4,0.2,1.6,0.8L50.9,66L48.2,66z M52.8,52.6L46.5,48l1.3-1.7l6.2,4.6
		L52.8,52.6z M54,50.9l6.1-4.7l1.3,1.7l-6.1,4.7L54,50.9z M64.3,49.8l-4.2,16.1l-2.6,0l4.4-16.8c0.1-0.2,0.2-0.4,0.3-0.6
		c0.3-0.3,0.8-0.5,1.3-0.3C64.1,48.4,64.5,49.1,64.3,49.8z"/>
	<path fill="#FFFFFF" d="M49.5,80.4c0,0.3,0,0.7,0.1,1h10.2c0-0.6,0-1,0-1H49.5z"/>
	<path fill="#FFFFFF" d="M50.9,85.2c2.1,2.1,5.6,2,7.6-0.1c0.2-0.2,0.3-0.4,0.4-0.6h-8.5C50.5,84.8,50.7,85,50.9,85.2z"/>
	<path fill="#FFFFFF" d="M50,83.6h9.3c0.1-0.4,0.2-0.8,0.3-1.3h-10C49.8,82.8,49.9,83.2,50,83.6z"/>
	<path fill="#FFFFFF" d="M66,74.9l-0.2-5.5c0,0-9.9,4.8-22.9,0c0.2,4.5,0.2,5.8,0.2,5.8l6.5,3.6c0,0,0,0.3,0,0.7h10.3
		c0-0.5-0.1-0.8-0.1-0.8L66,74.9z"/>
</g>
</svg>
