<?xml version="1.0" encoding="utf-8"?>
<!-- Generator: Adobe Illustrator 18.1.1, SVG Export Plug-In . SVG Version: 6.00 Build 0)  -->
<svg version="1.1" id="Layer_1" xmlns="http://www.w3.org/2000/svg" xmlns:xlink="http://www.w3.org/1999/xlink" x="0px" y="0px"
	 viewBox="0 0 108 129.6" enable-background="new 0 0 108 129.6" xml:space="preserve">
<g>
	<g>
		<path fill="#4527A0" d="M54.3,1.7c28.4,0,51.3,22.9,51.3,51.2s-38.7,75-51.3,75c-15.6,0-51.3-46.8-51.3-75
			C3.1,24.6,26,1.7,54.3,1.7z"/>
	</g>
</g>
<g>
	<path fill="#2196F3" d="M54.3,10.4c-24.8,0-45,20.2-45,44.9s20.2,44.9,45,44.9s45-20.2,45-44.9S79.2,10.4,54.3,10.4z"/>
	<path fill="#FF9800" d="M54.3,101.3c-25.4,0-46-20.6-46-45.9s20.7-45.9,46-45.9s46,20.6,46,45.9S79.7,101.3,54.3,101.3z M54.3,11.4
		c-24.3,0-44,19.7-44,43.9s19.8,43.9,44,43.9c24.3,0,44-19.7,44-43.9S78.6,11.4,54.3,11.4z"/>
</g>
<g>
	<g>
		<g>
			<path fill="#5E35B1" d="M54.3,14.4c22.6,0,41,18.3,41,40.9S77,96.3,54.3,96.3s-41-18.3-41-40.9S31.7,14.4,54.3,14.4z"/>
		</g>
		<g>
			<path fill="#FFFFFF" d="M54.3,97.5C31,97.5,12,78.6,12,55.3s19-42.2,42.3-42.2s42.3,18.9,42.3,42.2S77.6,97.5,54.3,97.5z
				 M54.3,15.6c-21.9,0-39.8,17.8-39.8,39.7C14.5,77.2,32.4,95,54.3,95s39.8-17.8,39.8-39.7C94.1,33.4,76.3,15.6,54.3,15.6z"/>
		</g>
	</g>
</g>
<g>
	<g>
		<path fill="#FFFFFF" d="M74.6,43c-0.1-11.2-9.3-20.1-20.5-19.9c-5.6,0.1-10.6,2.5-14.3,6.2c-3.6,3.7-5.9,8.9-5.8,14.5
			c0,3.7,1.1,7.2,2.9,10.2c0,0,0,0,0,0c0.3,0.5,5.3,9.5,5.7,10.4c0.2,0.2,0.4,1.3,0.5,2.9v0c0,0,10.9,4.9,23,0l0-1.5h0
			c0.1-0.7,0.2-1.5,0.3-1.9c0.3-1,5.2-10.1,5.5-10.6c0,0,0,0,0,0C73.6,50.2,74.6,46.7,74.6,43z M48.6,66l-4.5-15.9
			c-0.1-0.5,0-0.9,0.3-1.3c0.1-0.1,0.3-0.3,0.5-0.3c0.7-0.2,1.4,0.2,1.6,0.8L51.2,66L48.6,66z M53.1,52.6L46.9,48l1.3-1.7l6.2,4.6
			L53.1,52.6z M54.3,50.9l6.1-4.7l1.3,1.7l-6.1,4.7L54.3,50.9z M64.7,49.8l-4.2,16.1l-2.6,0l4.4-16.8c0.1-0.2,0.2-0.4,0.3-0.6
			c0.3-0.3,0.8-0.5,1.3-0.3C64.5,48.4,64.9,49.1,64.7,49.8z"/>
	</g>
	<g>
		<path fill="#FFFFFF" d="M49.8,80.4c0,0.3,0,0.7,0.1,1h10.2c0-0.6,0-1,0-1H49.8z"/>
	</g>
	<g>
		<path fill="#FFFFFF" d="M51.2,85.2c2.1,2.1,5.6,2,7.6-0.1c0.2-0.2,0.3-0.4,0.4-0.6h-8.5C50.9,84.8,51,85,51.2,85.2z"/>
	</g>
	<g>
		<path fill="#FFFFFF" d="M50.3,83.6h9.3c0.1-0.4,0.2-0.8,0.3-1.3H50C50.1,82.8,50.2,83.2,50.3,83.6z"/>
	</g>
	<g>
		<path fill="#FFFFFF" d="M66.3,74.9l-0.2-5.5c0,0-9.9,4.8-22.9,0c0.2,4.5,0.2,5.8,0.2,5.8l6.5,3.6c0,0,0,0.3,0,0.7h10.3
			c0-0.5-0.1-0.8-0.1-0.8L66.3,74.9z"/>
	</g>
</g>
</svg>
