<?xml version="1.0" encoding="utf-8"?>
<!-- Generator: Adobe Illustrator 18.1.1, SVG Export Plug-In . SVG Version: 6.00 Build 0)  -->
<svg version="1.1" id="Layer_1" xmlns="http://www.w3.org/2000/svg" xmlns:xlink="http://www.w3.org/1999/xlink" x="0px" y="0px"
	 viewBox="0 0 100 100" enable-background="new 0 0 100 100" xml:space="preserve">
<g>
	<g>
		<g>
			<path fill="#00ACC1" d="M50,9.1c22.6,0,41,18.3,41,40.9S72.6,90.9,50,90.9S9,72.6,9,50S27.4,9.1,50,9.1z"/>
			<path fill="#FFFFFF" d="M50,92.2C26.7,92.2,7.7,73.3,7.7,50S26.7,7.8,50,7.8S92.3,26.7,92.3,50S73.3,92.2,50,92.2z M50,10.3
				c-21.9,0-39.8,17.8-39.8,39.7c0,21.9,17.8,39.7,39.8,39.7S89.8,71.9,89.8,50C89.8,28.1,71.9,10.3,50,10.3z"/>
		</g>
	</g>
	<g>
		<path fill="#FFFFFF" d="M23.3,62.4h53.4c0.7,0,1.3-0.6,1.3-1.3V28.3c0-0.7-0.6-1.3-1.3-1.3H23.3c-0.7,0-1.3,0.6-1.3,1.3V61
			C22,61.8,22.6,62.4,23.3,62.4z M24.8,58.9V30.4c0.2-0.2,0.4-0.4,0.6-0.6l49.2,0.1c0.3,0,0.5,0.2,0.5,0.5L75.1,59
			c0,0.3-0.2,0.5-0.5,0.5l-49.2-0.1C25.1,59.5,24.8,59.2,24.8,58.9z"/>
		<path fill="#FFFFFF" d="M79.7,64.2l-60.1,0c-0.3,0-0.5,0.3-0.4,0.6c0.4,1.5,1.9,5.5,5.5,5.5v0c0,0,0,0,0,0h50.5c0,0,0,0,0,0v0
			c3.1,0,4.7-3,5.3-4.8C80.8,64.9,80.4,64.2,79.7,64.2z M55.8,67.2c0,0.5-0.4,0.9-0.9,0.9h-9.7c-0.5,0-0.9-0.4-0.9-0.9l0,0
			c0-0.5,0.4-0.9,0.9-0.9h9.7C55.4,66.3,55.8,66.7,55.8,67.2L55.8,67.2z"/>
	</g>
	<path fill="#FFFFFF" d="M26.4,57.6V31.7c0.2-0.2,0.3-0.3,0.6-0.6l46.2,0.1c0.3,0,0.5,0.2,0.5,0.5l-0.1,26c0,0.3-0.2,0.5-0.5,0.5
		l-46.2-0.1C26.6,58.1,26.4,57.9,26.4,57.6z"/>
</g>
</svg>
