<?xml version="1.0" encoding="utf-8"?>
<!-- Generator: Adobe Illustrator 18.1.1, SVG Export Plug-In . SVG Version: 6.00 Build 0)  -->
<svg version="1.1" id="Layer_1" xmlns="http://www.w3.org/2000/svg" xmlns:xlink="http://www.w3.org/1999/xlink" x="0px" y="0px"
	 viewBox="0 6 62 62" enable-background="new 0 6 62 62" xml:space="preserve">
<g>
	<g>
		<g>
			<path fill="#D81B60" d="M31,11.6C45,11.6,56.5,23,56.5,37S45,62.4,31,62.4S5.5,51,5.5,37S17,11.6,31,11.6z"/>
			<path fill="#FFFFFF" d="M31,63.2C16.5,63.2,4.8,51.4,4.8,37S16.5,10.8,31,10.8S57.2,22.6,57.2,37S45.5,63.2,31,63.2z M31,12.4
				c-13.6,0-24.7,11-24.7,24.6c0,13.6,11.1,24.6,24.7,24.6s24.7-11,24.7-24.6C55.7,23.4,44.6,12.4,31,12.4z"/>
		</g>
	</g>
	<path fill="#FFFFFF" d="M37.8,55.5h-3.2c-1.4,0-2.5-1.1-2.5-2.5v-7.1c0-1.1,0.7-2,1.7-2.3c1.7-0.5,3-1.6,4.4-3.2
		c4.3-4.8,4.6-17.1,0.5-22.3l-0.3-0.4H23.6l-0.3,0.4c-4.1,5.2-3.8,17.5,0.5,22.3c1.4,1.5,2.7,2.6,4.4,3.2c1,0.3,1.7,1.3,1.7,2.3v7.1
		c0,1.4-1.1,2.5-2.5,2.5h-3.2c-0.6,0-1.1,0.6-1.1,1.3c0,0.7,0.5,1.3,1.1,1.3h5.7h2.3h5.7c0.6,0,1.1-0.6,1.1-1.3
		C39,56.1,38.5,55.5,37.8,55.5z M23.9,21.9c0.4-0.9,1.3-1.5,2.3-1.5h9.7c1,0,1.9,0.6,2.3,1.5c0.9,2.2,1.3,5.1,1.2,7.9H22.7
		C22.6,27,23,24.1,23.9,21.9z"/>
</g>
</svg>
