<?xml version="1.0" encoding="utf-8"?>
<!-- Generator: Adobe Illustrator 18.1.1, SVG Export Plug-In . SVG Version: 6.00 Build 0)  -->
<svg version="1.1" id="Layer_1" xmlns="http://www.w3.org/2000/svg" xmlns:xlink="http://www.w3.org/1999/xlink" x="0px" y="0px"
	 viewBox="0 0 100 100" enable-background="new 0 0 100 100" xml:space="preserve">
<g>
	<g>
		<g>
			<path fill="#00897B" d="M50,9.1c22.6,0,41,18.3,41,40.9S72.6,90.9,50,90.9S9,72.6,9,50S27.4,9.1,50,9.1z"/>
			<path fill="#FFFFFF" d="M50,92.2C26.7,92.2,7.7,73.3,7.7,50S26.7,7.8,50,7.8S92.3,26.7,92.3,50S73.3,92.2,50,92.2z M50,10.3
				c-21.9,0-39.8,17.8-39.8,39.7c0,21.9,17.8,39.7,39.8,39.7S89.8,71.9,89.8,50C89.8,28.1,71.9,10.3,50,10.3z"/>
		</g>
	</g>
	<g>
		<rect x="39.4" y="23.8" fill="#FFFFFF" width="21.1" height="53.9"/>
		<path fill="#FFFFFF" d="M69.3,41.1v-1.2h2.1c0.9,0,1.6-0.7,1.6-1.6c0-0.9-0.7-1.6-1.6-1.6h-2.1v-1.6h-3.8v-2.5h3.8v-1.2h2.1
			c0.9,0,1.6-0.7,1.6-1.6c0-0.9-0.7-1.6-1.6-1.6h-2.1v-1.6h-3.8v-2.3c0-2.7-2.2-4.9-4.9-4.9H39.4c-2.7,0-4.9,2.2-4.9,4.9v2.3h-3.8
			v1.2h-2.1c-0.9,0-1.6,0.7-1.6,1.6c0,0.9,0.7,1.6,1.6,1.6h2.1v1.6h3.8v2.5h-3.8v1.2h-2.1c-0.9,0-1.6,0.7-1.6,1.6
			c0,0.9,0.7,1.6,1.6,1.6h2.1v1.6h3.8v2.5h-3.8v1.2h-2.1c-0.9,0-1.6,0.7-1.6,1.6c0,0.9,0.7,1.6,1.6,1.6h2.1v1.6h3.8V52h-3.8v1.2
			h-2.1c-0.9,0-1.6,0.7-1.6,1.6c0,0.9,0.7,1.6,1.6,1.6h2.1V58h3.8v2.5h-3.8v1.2h-2.1c-0.9,0-1.6,0.7-1.6,1.6c0,0.9,0.7,1.6,1.6,1.6
			h2.1v1.6h3.8V69h-3.8v1.2h-2.1c-0.9,0-1.6,0.7-1.6,1.6c0,0.9,0.7,1.6,1.6,1.6h2.1V75h3.8v2.3c0,2.7,2.2,4.9,4.9,4.9h21.1
			c2.7,0,4.9-2.2,4.9-4.9V75h3.8v-1.2h2.1c0.9,0,1.6-0.7,1.6-1.6c0-0.9-0.7-1.6-1.6-1.6h-2.1V69h-3.8v-2.5h3.8v-1.2h2.1
			c0.9,0,1.6-0.7,1.6-1.6c0-0.9-0.7-1.6-1.6-1.6h-2.1v-1.6h-3.8V58h3.8v-1.2h2.1c0.9,0,1.6-0.7,1.6-1.6c0-0.9-0.7-1.6-1.6-1.6h-2.1
			V52h-3.8v-2.5h3.8v-1.2h2.1c0.9,0,1.6-0.7,1.6-1.6c0-0.9-0.7-1.6-1.6-1.6h-2.1v-1.6h-3.8v-2.5H69.3z M63.3,77.3
			c0,1.5-1.2,2.8-2.7,2.8H39.4c-1.5,0-2.7-1.2-2.7-2.8v-53c0-1.5,1.2-2.7,2.7-2.7h21.1c1.5,0,2.7,1.2,2.7,2.7V77.3z"/>
	</g>
</g>
</svg>
