<?xml version="1.0" encoding="utf-8"?>
<!-- Generator: Adobe Illustrator 18.1.1, SVG Export Plug-In . SVG Version: 6.00 Build 0)  -->
<svg version="1.1" id="Layer_1" xmlns="http://www.w3.org/2000/svg" xmlns:xlink="http://www.w3.org/1999/xlink" x="0px" y="0px"
	 viewBox="0 0 100 100" enable-background="new 0 0 100 100" xml:space="preserve">
<g>
	<g>
		<g>
			<path fill="#D81B60" d="M50,9.1c22.6,0,41,18.3,41,40.9S72.6,90.9,50,90.9S9,72.6,9,50S27.4,9.1,50,9.1z"/>
			<path fill="#FFFFFF" d="M50,92.2C26.7,92.2,7.7,73.3,7.7,50S26.7,7.8,50,7.8S92.3,26.7,92.3,50S73.3,92.2,50,92.2z M50,10.3
				c-21.9,0-39.8,17.8-39.8,39.7c0,21.9,17.8,39.7,39.8,39.7S89.8,71.9,89.8,50C89.8,28.1,71.9,10.3,50,10.3z"/>
		</g>
	</g>
	<path fill="#FFFFFF" d="M70.1,41.9h-2.5c-0.5,0-1,0.1-1.5,0.1v-5.6c0-0.3,0-0.6-0.1-0.9c1.6-1.2,2.7-3.1,2.7-5.3
		c0-4-3.7-7.2-7.8-6.4c-1.3-1.4-3.3-2.2-5.3-2.1c-1.3-1.8-3.4-3-5.6-3c-1.8,0-3.5,0.7-4.8,2c-0.3-0.1-0.7-0.2-1-0.3l-0.4-0.1
		c-0.3-0.1-0.7-0.1-1-0.1c-0.5,0-1,0-1.5,0h-0.1v0c-2.9,0.3-5.3,2-6.3,4.4c-2.8,0.5-5,3-5,6c0,2.1,1.1,3.9,2.7,5
		c0,0.2-0.1,0.4-0.1,0.7v37c0,2.4,2,4.4,4.4,4.4h24.9c2.4,0,4.4-2,4.4-4.4V63c0.5,0.1,1,0.1,1.5,0.1h2.5c4.5,0,8.1-3.6,8.1-8.1v-4.9
		C78.2,45.6,74.5,41.9,70.1,41.9z M38.2,73.2C38.2,73.2,38.2,73.2,38.2,73.2c-0.9-0.1-1.5-0.7-1.5-1.5l-0.1-26.5
		c0-0.8,0.7-1.5,1.5-1.5c0.8,0,1.5,0.7,1.5,1.5l0.1,26.5C39.7,72.5,39,73.2,38.2,73.2z M63.2,40.5H35.4v-3.9c0-0.8,0.7-1.5,1.5-1.5
		h24.9c0.8,0,1.5,0.7,1.5,1.5C63.2,36.5,63.2,39.7,63.2,40.5z M64.5,33.1c-0.8-0.6-1.7-1-2.8-1H36.8c-1.1,0-2.1,0.4-2.9,1.1
		c-0.7-0.6-1.1-1.4-1.1-2.4c0-1.8,1.4-3.2,3.2-3.2l1.2,0l0.2-1.2c0.3-1.4,1.7-2.9,3.9-3.1H43c0.7,0,1.3,0.3,1.9,0.6l1.2,0.8l0.8-1.2
		c0.7-1.1,1.9-1.7,3.2-1.7c1.5,0,2.8,0.9,3.5,2.2l0.5,1l1.1-0.2c1.5-0.3,3.1,0.3,4,1.6l0.6,1l1.1-0.4c0.4-0.2,0.8-0.2,1.2-0.2
		c2,0,3.6,1.6,3.6,3.6C65.8,31.5,65.3,32.4,64.5,33.1z M73.8,55c0,2-1.7,3.7-3.7,3.7h-2.5c-0.5,0-1-0.1-1.5-0.3V46.7
		c0.5-0.2,1-0.3,1.5-0.3h2.5c2,0,3.7,1.7,3.7,3.7V55z"/>
</g>
</svg>
