<?xml version="1.0" encoding="utf-8"?>
<!-- Generator: Adobe Illustrator 18.1.1, SVG Export Plug-In . SVG Version: 6.00 Build 0)  -->
<svg version="1.1" id="Layer_1" xmlns="http://www.w3.org/2000/svg" xmlns:xlink="http://www.w3.org/1999/xlink" x="0px" y="0px"
	 viewBox="0 0 100 100" enable-background="new 0 0 100 100" xml:space="preserve">
<g>
	<g>
		<g>
			<path fill="#8BC34A" d="M50,9.1c22.6,0,41,18.3,41,40.9S72.6,90.9,50,90.9S9,72.6,9,50S27.4,9.1,50,9.1z"/>
			<path fill="#FFFFFF" d="M50,92.2C26.7,92.2,7.7,73.3,7.7,50S26.7,7.8,50,7.8S92.3,26.7,92.3,50S73.3,92.2,50,92.2z M50,10.3
				c-21.9,0-39.8,17.8-39.8,39.7c0,21.9,17.8,39.7,39.8,39.7S89.8,71.9,89.8,50C89.8,28.1,71.9,10.3,50,10.3z"/>
		</g>
	</g>
	<g>
		<path fill="#FFFFFF" d="M42.5,33.1c-3.5,0-6.4,2.9-6.4,6.4s2.9,6.4,6.4,6.4s6.4-2.9,6.4-6.4S46,33.1,42.5,33.1z"/>
		<path fill="#FFFFFF" d="M64.3,36l-5.8-1.8l-1-2.5l2.8-5.3c0.2-0.4,0.1-0.9-0.2-1.2l-3.5-3.5c-0.3-0.3-0.8-0.4-1.2-0.2l-5.3,2.8
			l-2.5-1l-1.8-5.8c-0.1-0.4-0.5-0.7-1-0.7h-5c-0.4,0-0.8,0.3-1,0.7l-1.8,5.8l-2.5,1l-5.3-2.8c-0.4-0.2-0.9-0.1-1.2,0.2l-3.5,3.5
			c-0.3,0.3-0.4,0.8-0.2,1.2l2.8,5.3l-1,2.5L20.6,36c-0.4,0.1-0.7,0.5-0.7,1v5c0,0.4,0.3,0.8,0.7,1l5.8,1.8l1,2.5l-2.8,5.3
			c-0.2,0.4-0.1,0.9,0.2,1.2l3.5,3.5c0.3,0.3,0.8,0.4,1.2,0.2l5.3-2.8l2.5,1l1.8,5.8c0.1,0.4,0.5,0.7,1,0.7h5c0.4,0,0.8-0.3,1-0.7
			l1.8-5.8l2.5-1l1.7,0.9c0.4,0.2,0.8,0.1,1.2-0.2c0.3-0.3,0.4-0.7,0.2-1.1l-1.3-2.9l2.4-2.4L57,50c0.1,0.1,0.3,0.1,0.4,0.1
			c0,0,0,0,0,0c0.6,0,1-0.4,1-1c0-0.2-0.1-0.5-0.2-0.6l-0.7-1.3l1-2.5l5.8-1.8c0.4-0.1,0.7-0.5,0.7-1v-5C65,36.6,64.7,36.2,64.3,36z
			 M42.5,47.9c-4.6,0-8.4-3.8-8.4-8.4s3.8-8.4,8.4-8.4s8.4,3.8,8.4,8.4S47.1,47.9,42.5,47.9z"/>
	</g>
	<g>
		<path fill="#FFFFFF" d="M65.2,57.1c-2.8,0-5,2.3-5,5s2.3,5,5,5c2.8,0,5-2.3,5-5S68,57.1,65.2,57.1z"/>
		<path fill="#FFFFFF" d="M80.4,59.9l-3.3-1.1L75.9,56l1.6-3.1c0.2-0.4,0.1-0.9-0.2-1.2L75.6,50c-0.3-0.3-0.8-0.4-1.2-0.2l-3.1,1.6
			l-2.8-1.2l-1.1-3.3c-0.1-0.4-0.5-0.7-1-0.7H64c-0.4,0-0.8,0.3-1,0.7L62,50.3l-2.8,1.2l-3.1-1.6c-0.4-0.2-0.9-0.1-1.2,0.2l-1.8,1.8
			c-0.3,0.3-0.4,0.8-0.2,1.2l1.6,3.1l-1.2,2.8l-3.3,1.1c-0.4,0.1-0.7,0.5-0.7,1v2.5c0,0.4,0.3,0.8,0.7,1l3.3,1.1l1.2,2.8L53,71.3
			c-0.2,0.4-0.1,0.9,0.2,1.2l1.8,1.8c0.3,0.3,0.8,0.4,1.2,0.2l3.1-1.6l2.8,1.2l1.1,3.3c0.1,0.4,0.5,0.7,1,0.7h2.5
			c0.4,0,0.8-0.3,1-0.7l1.1-3.3l2.8-1.2l3.1,1.6c0.4,0.2,0.9,0.1,1.2-0.2l1.8-1.8c0.3-0.3,0.4-0.8,0.2-1.2l-1.6-3.1l1.2-2.8l3.3-1.1
			c0.4-0.1,0.7-0.5,0.7-1v-2.5C81.1,60.4,80.8,60,80.4,59.9z M65.2,69.1c-3.9,0-7-3.2-7-7c0-3.9,3.2-7,7-7c3.9,0,7,3.2,7,7
			C72.3,66,69.1,69.1,65.2,69.1z"/>
	</g>
</g>
</svg>
