<?xml version="1.0" encoding="utf-8"?>
<!-- Generator: Adobe Illustrator 18.1.1, SVG Export Plug-In . SVG Version: 6.00 Build 0)  -->
<svg version="1.1" id="Layer_1" xmlns="http://www.w3.org/2000/svg" xmlns:xlink="http://www.w3.org/1999/xlink" x="0px" y="0px"
	 viewBox="0 0 74 74" enable-background="new 0 0 74 74" xml:space="preserve">
<g>
	<g>
		<g>
			<g>
				<path fill="#2196F3" d="M37,6.7c16.8,0,30.4,13.6,30.4,30.3S53.8,67.3,37,67.3S6.6,53.8,6.6,37S20.2,6.7,37,6.7z"/>
			</g>
			<g>
				<path fill="#FF9800" d="M37,66.4C20.8,66.4,7.5,53.2,7.5,37S20.8,7.6,37,7.6S66.5,20.8,66.5,37S53.2,66.4,37,66.4z M37,9
					C21.6,9,9,21.6,9,37s12.6,28,28,28s28-12.5,28-28S52.4,9,37,9z"/>
			</g>
			<g>
				<path fill="#FFFFFF" d="M37,68.2c-17.3,0-31.3-14-31.3-31.2S19.7,5.8,37,5.8s31.3,14,31.3,31.2S54.3,68.2,37,68.2z M37,7.6
					C20.8,7.6,7.6,20.8,7.6,37c0,16.2,13.2,29.4,29.4,29.4S66.4,53.2,66.4,37C66.4,20.8,53.2,7.6,37,7.6z"/>
			</g>
		</g>
	</g>
	<g id="layer1_2_" transform="translate(-313.03964,-301.79625)">
		<g id="g2554_2_" transform="matrix(2.5585897,0,0,2.5585897,313.03964,301.79625)">
			<g id="g8_2_" transform="translate(-2.73438e-2,-599.527)">
				<path id="path10_2_" fill="#FFFFFF" d="M17.2,618.3v-5.8h1.2v5.8H17.2z"/>
			</g>
			<g id="g12_2_" transform="translate(-2.73438e-2,-599.527)">
				<path id="path14_2_" fill="#FFFFFF" d="M10.6,618.3v-5.8h1.2v5.8H10.6z"/>
			</g>
			<g id="g16_2_" transform="translate(-2.73438e-2,-599.527)">
				<path id="path18_2_" fill="#FFFFFF" d="M12.2,618.3v-5.8h1.3v5.8H12.2z"/>
			</g>
			<g id="g20_2_" transform="translate(-2.73438e-2,-599.527)">
				<path id="path22_2_" fill="#FFFFFF" d="M13.9,618.3v-5.8h1.3v5.8H13.9z"/>
			</g>
			<g id="g24_2_" transform="translate(-2.73438e-2,-599.527)">
				<path id="path26_2_" fill="#FFFFFF" d="M16.8,612.4v5.8h-1.3v-5.8H16.8z"/>
			</g>
			<g id="g28_2_" transform="translate(-2.73438e-2,-599.527)">
				<path id="path30_2_" fill="#FFFFFF" d="M17.9,612h-6.8l3.5-2.2L17.9,612z"/>
			</g>
			<g id="g32_2_" transform="translate(-2.73438e-2,-599.527)">
				<path id="path34_2_" fill="#FFFFFF" d="M10.3,612H7.4v-2.2h6.5L10.3,612z"/>
			</g>
			<g id="g36_2_" transform="translate(-2.73438e-2,-599.527)">
				<path id="path38_2_" fill="#FFFFFF" d="M15.3,609.8h6.3v2.2h-2.9L15.3,609.8z"/>
			</g>
			<g id="g40_2_" transform="translate(-2.73438e-2,-599.527)">
				<path id="path42_2_" fill="#FFFFFF" d="M20.7,609.4H8.3c1.2-2.2,3.5-3.7,6.2-3.7C17.2,605.7,19.5,607.2,20.7,609.4z"/>
			</g>
			<g id="g44_2_" transform="translate(-2.73438e-2,-599.527)">
				<path id="path46_2_" fill="#FFFFFF" d="M9.4,617.9l-0.1,0.2l0.2-0.1l0.2,0.1l-0.1-0.2l0.2-0.1H9.6l-0.1-0.2l-0.1,0.2H9.2
					L9.4,617.9z M8.4,616.6l-0.1,0.2l0.2-0.1l0.2,0.1l-0.1-0.2l0.2-0.1H8.6l-0.1-0.2l-0.1,0.2H8.2L8.4,616.6z M7.7,614.9l-0.1,0.2
					l0.2-0.1l0.2,0.1l-0.1-0.2l0.2-0.1H7.9l-0.1-0.2l-0.1,0.2H7.5L7.7,614.9z M10.2,618.3H7.4V613l0.1,0.1l-0.1,0.2l0.2-0.1l0.2,0.1
					l-0.1-0.2l0.2-0.1H7.7l-0.1-0.2L7.5,613H7.4v-0.6h2.8V618.3z"/>
			</g>
			<g id="g48_2_" transform="translate(-2.73438e-2,-599.527)">
				<path id="path50_2_" fill="#FFFFFF" d="M10.2,618.7v1.5H7.4v-1.5H10.2z"/>
			</g>
			<g id="g52_2_" transform="translate(-2.73438e-2,-599.527)">
				<path id="path54_2_" fill="#FFFFFF" d="M18.8,618.7h2.8v1.5h-2.8V618.7z"/>
			</g>
			<g id="g56_2_" transform="translate(-2.73438e-2,-599.527)">
				<path id="path58_2_" fill="#FFFFFF" d="M16.4,619.8l0.2-0.1h-0.2l-0.1-0.2l-0.1,0.2H16l0.2,0.1l-0.1,0.2l0.2-0.1l0.2,0.1
					L16.4,619.8z M18,619.1l0.2-0.1H18l-0.1-0.2l-0.1,0.2h-0.2l0.2,0.1l-0.1,0.2l0.2-0.1l0.2,0.1L18,619.1z M12.6,619.8l-0.1,0.2
					l0.2-0.1l0.2,0.1l-0.1-0.2l0.2-0.1h-0.2l-0.1-0.2l-0.1,0.2h-0.2L12.6,619.8z M11,619.1l-0.1,0.2l0.2-0.1l0.2,0.1l-0.1-0.2
					l0.2-0.1h-0.2l-0.1-0.2L11,619h-0.2L11,619.1z M18.4,618.7v1.5h-3.8l-0.1-0.2l0.2-0.1h-0.2l-0.1-0.2l-0.1,0.2h-0.2l0.2,0.1
					l-0.1,0.2h-3.7v-1.5H18.4z M14.7,620.2h-0.3l0.2-0.1L14.7,620.2z"/>
			</g>
			<g id="g60_2_" transform="translate(-2.73438e-2,-599.527)">
				<path id="path62_2_" fill="#FFFFFF" d="M19.6,617.9l0.2-0.1h-0.2l-0.1-0.2l-0.1,0.2h-0.2l0.2,0.1l-0.1,0.2l0.2-0.1l0.2,0.1
					L19.6,617.9z M20.6,616.6l0.2-0.1h-0.2l-0.1-0.2l-0.1,0.2h-0.2l0.2,0.1l-0.1,0.2l0.2-0.1l0.2,0.1L20.6,616.6z M21.3,614.9
					l0.2-0.1h-0.2l-0.1-0.2l-0.1,0.2h-0.2l0.2,0.1l-0.1,0.2l0.2-0.1l0.2,0.1L21.3,614.9z M21.6,618.3h-2.8v-5.8h2.8v0.6h-0.1
					l-0.1-0.2l-0.1,0.2h-0.2l0.2,0.1l-0.1,0.2l0.2-0.1l0.2,0.1l-0.1-0.2l0.1-0.1V618.3z"/>
			</g>
		</g>
	</g>
</g>
</svg>
