<?xml version="1.0" encoding="utf-8"?>
<!-- Generator: Adobe Illustrator 18.1.1, SVG Export Plug-In . SVG Version: 6.00 Build 0)  -->
<svg version="1.1" id="Layer_1" xmlns="http://www.w3.org/2000/svg" xmlns:xlink="http://www.w3.org/1999/xlink" x="0px" y="0px"
	 viewBox="0 0 100 100" enable-background="new 0 0 100 100" xml:space="preserve">
<g>
	<g>
		<g>
			<path fill="#5E35B1" d="M50,9.1c22.6,0,41,18.3,41,40.9S72.6,90.9,50,90.9S9,72.6,9,50S27.4,9.1,50,9.1z"/>
			<path fill="#FFFFFF" d="M50,92.2C26.7,92.2,7.7,73.3,7.7,50S26.7,7.8,50,7.8S92.3,26.7,92.3,50S73.3,92.2,50,92.2z M50,10.3
				c-21.9,0-39.8,17.8-39.8,39.7c0,21.9,17.8,39.7,39.8,39.7S89.8,71.9,89.8,50C89.8,28.1,71.9,10.3,50,10.3z"/>
		</g>
	</g>
	<g>
		<path fill="#FFFFFF" d="M70.3,37.7C70.2,26.5,61,17.6,49.8,17.8c-5.6,0.1-10.6,2.5-14.3,6.2c-3.6,3.7-5.9,8.9-5.8,14.5
			c0,3.7,1.1,7.2,2.9,10.2c0,0,0,0,0,0c0.3,0.5,5.3,9.5,5.7,10.4c0.2,0.2,0.4,1.3,0.5,2.9v0c0,0,10.9,4.9,23,0l0-1.5h0
			c0.1-0.7,0.2-1.5,0.3-1.9c0.3-1,5.2-10.1,5.5-10.6c0,0,0,0,0,0C69.3,44.9,70.3,41.4,70.3,37.7z M44.2,60.7l-4.5-15.9
			c-0.1-0.5,0-0.9,0.3-1.3c0.1-0.1,0.3-0.3,0.5-0.3c0.7-0.2,1.4,0.2,1.6,0.8l4.7,16.6L44.2,60.7z M48.8,47.3l-6.2-4.6l1.3-1.7
			l6.2,4.6L48.8,47.3z M50,45.5l6.1-4.7l1.3,1.7l-6.1,4.7L50,45.5z M60.3,44.4l-4.2,16.1l-2.6,0l4.4-16.8c0.1-0.2,0.2-0.4,0.3-0.6
			c0.3-0.3,0.8-0.5,1.3-0.3C60.1,43.1,60.5,43.8,60.3,44.4z"/>
		<path fill="#FFFFFF" d="M45.5,75.1c0,0.3,0,0.7,0.1,1h10.2c0-0.6,0-1,0-1H45.5z"/>
		<path fill="#FFFFFF" d="M46.9,79.9c2.1,2.1,5.6,2,7.6-0.1c0.2-0.2,0.3-0.4,0.4-0.6h-8.5C46.5,79.5,46.7,79.7,46.9,79.9z"/>
		<path fill="#FFFFFF" d="M46,78.3h9.3c0.1-0.4,0.2-0.8,0.3-1.3h-10C45.8,77.5,45.9,77.9,46,78.3z"/>
		<path fill="#FFFFFF" d="M62,69.6l-0.2-5.5c0,0-9.9,4.8-22.9,0c0.2,4.5,0.2,5.8,0.2,5.8l6.5,3.6c0,0,0,0.3,0,0.7h10.3
			c0-0.5-0.1-0.8-0.1-0.8L62,69.6z"/>
	</g>
</g>
</svg>
