<?xml version="1.0" encoding="utf-8"?>
<!-- Generator: Adobe Illustrator 18.1.1, SVG Export Plug-In . SVG Version: 6.00 Build 0)  -->
<svg version="1.1" id="Layer_1" xmlns="http://www.w3.org/2000/svg" xmlns:xlink="http://www.w3.org/1999/xlink" x="0px" y="0px"
	 viewBox="0 6 62 62" enable-background="new 0 6 62 62" xml:space="preserve">
<g>
	<g>
		<g>
			<path fill="#D81B60" d="M31,11.6C45,11.6,56.5,23,56.5,37S45,62.4,31,62.4S5.5,51,5.5,37S17,11.6,31,11.6z"/>
			<path fill="#FFFFFF" d="M31,63.2C16.5,63.2,4.8,51.4,4.8,37S16.5,10.8,31,10.8S57.2,22.6,57.2,37S45.5,63.2,31,63.2z M31,12.4
				c-13.6,0-24.7,11-24.7,24.6S17.4,61.6,31,61.6s24.7-11,24.7-24.6S44.6,12.4,31,12.4z"/>
		</g>
	</g>
	<g>
		<g>
			<path fill="#FFFFFF" d="M45.9,53h-30c-0.3,0-0.6,0.2-0.6,0.5s0.1,0.6,0.4,0.7l8.5,2.5c0.1,0,0.2,0,0.3,0h12.7c0.1,0,0.2,0,0.3,0
				l8.5-2.5c0.3-0.1,0.5-0.4,0.4-0.7C46.5,53.2,46.2,53,45.9,53z"/>
			<path fill="#FFFFFF" d="M43,33.6c-0.3,0-0.5-0.3-0.4-0.5l0.2-2.9c0-0.2,0-0.3-0.2-0.5c-0.1-0.1-0.3-0.2-0.4-0.2H19.7
				c-0.2,0-0.3,0.1-0.4,0.2s-0.2,0.3-0.2,0.5l1.2,21.3c0,0.3,0.3,0.6,0.6,0.6h19.9c0.3,0,0.6-0.2,0.6-0.6l0.2-3.4c0.1,0,0.3,0,0.4,0
				c3.9,0,7.1-3.3,7.1-7.3C49.2,37.1,46.5,34,43,33.6z M23.3,49.9L23.3,49.9c-0.5,0-0.9-0.4-1-0.9l-1-16.4c0-0.5,0.4-0.9,0.9-1
				c0.5,0,0.9,0.3,1,0.9l1,16.4C24.2,49.4,23.8,49.9,23.3,49.9z M42.4,45.6c-0.2-0.2-0.3-0.3-0.6-0.5l0.5-8.6c0-0.3,0.3-0.5,0.6-0.5
				c2.2,0.4,3.8,2.4,3.8,4.8C46.8,43.3,44.8,45.5,42.4,45.6z"/>
			<path fill="#FFFFFF" d="M23.6,24.6c0.3,1.3,1.4,2.2,2.1,2.6c0.3,0.1,0.6,0,0.7-0.2l0.3-0.8c0.1-0.2,0-0.5-0.2-0.6
				c-0.4-0.3-1-0.7-1.2-1.3c-0.1-0.5,0.2-1.2,0.8-1.9c1.1-1.2,1.6-2.4,1.3-3.6c-0.3-1.3-1.4-2.1-2.1-2.5c-0.3-0.1-0.6,0-0.7,0.3
				l-0.3,0.8c-0.1,0.2,0,0.5,0.2,0.6c0.4,0.2,1,0.6,1.1,1.2c0.2,0.7-0.4,1.4-0.8,1.9C23.8,22.2,23.4,23.4,23.6,24.6z"/>
			<path fill="#FFFFFF" d="M28.5,24.6c0.3,1.3,1.4,2.2,2.1,2.6c0.3,0.1,0.6,0,0.7-0.2l0.3-0.8c0.1-0.2,0-0.5-0.2-0.6
				c-0.4-0.3-1-0.7-1.2-1.3c-0.1-0.5,0.2-1.2,0.8-1.9c1.1-1.2,1.6-2.4,1.3-3.6c-0.3-1.3-1.4-2.1-2.1-2.5c-0.3-0.1-0.6,0-0.7,0.3
				l-0.3,0.8c-0.1,0.2,0,0.5,0.2,0.6c0.4,0.2,1,0.6,1.1,1.2c0.2,0.7-0.4,1.4-0.8,1.9C28.7,22.2,28.2,23.4,28.5,24.6z"/>
			<path fill="#FFFFFF" d="M33.3,24.6c0.3,1.3,1.4,2.2,2.1,2.6c0.3,0.1,0.6,0,0.7-0.2l0.3-0.8c0.1-0.2,0-0.5-0.2-0.6
				c-0.4-0.3-1-0.7-1.2-1.3c0-0.6,0.3-1.3,1-2c1.1-1.2,1.6-2.4,1.3-3.6c-0.3-1.3-1.4-2.1-2.1-2.5c-0.3-0.1-0.6,0-0.7,0.3l-0.3,0.8
				c-0.1,0.2,0,0.5,0.2,0.6c0.4,0.2,1,0.6,1.1,1.2c0.2,0.7-0.4,1.4-0.8,1.9C33.5,22.2,33.1,23.4,33.3,24.6z"/>
		</g>
	</g>
</g>
</svg>
