<?xml version="1.0" encoding="utf-8"?>
<!-- Generator: Adobe Illustrator 18.1.1, SVG Export Plug-In . SVG Version: 6.00 Build 0)  -->
<svg version="1.1" id="Layer_1" xmlns="http://www.w3.org/2000/svg" xmlns:xlink="http://www.w3.org/1999/xlink" x="0px" y="0px"
	 viewBox="0 0 74 74" enable-background="new 0 0 74 74" xml:space="preserve">
<g>
	<g>
		<g>
			<g>
				<path fill="#1E88E5" d="M37,6.7c16.8,0,30.4,13.6,30.4,30.3S53.8,67.3,37,67.3S6.6,53.8,6.6,37S20.2,6.7,37,6.7z"/>
			</g>
			<g>
				<path fill="#FFFFFF" d="M37,68.2c-17.3,0-31.3-14-31.3-31.2S19.7,5.8,37,5.8s31.3,14,31.3,31.2S54.3,68.2,37,68.2z M37,7.6
					C20.8,7.6,7.5,20.8,7.5,37c0,16.2,13.2,29.4,29.5,29.4S66.5,53.2,66.5,37C66.5,20.8,53.2,7.6,37,7.6z"/>
			</g>
		</g>
	</g>
	<g id="_x37_39-question_x40_2x.png">
		<g>
			<path fill="#FFFFFF" d="M36.7,51.9c-1.1,0-2,0.4-2.7,1.2c-0.8,0.8-1.1,1.8-1.1,2.9c0,1.1,0.4,2.1,1.1,2.9
				c0.8,0.8,1.7,1.2,2.7,1.2c1.1,0,2-0.4,2.7-1.2c0.8-0.8,1.1-1.8,1.1-2.9c0-1.1-0.4-2.1-1.1-2.9C38.7,52.4,37.8,51.9,36.7,51.9z
				 M48.1,21.2c-0.6-1.4-1.4-2.6-2.5-3.6c-1.1-1-2.3-1.7-3.7-2.2c-1.4-0.5-3-0.8-4.6-0.8c-3.4,0-6.3,1-8.6,3.1
				c-1.8,1.6-3.1,3.7-3.8,6.3c-0.3,1.1,0.5,2.3,1.7,2.4l2.1,0.2c0.9,0.1,1.8-0.5,2-1.4c0.4-1.4,1-2.5,1.9-3.5
				c1.2-1.3,2.7-1.9,4.7-1.9c0.9,0,1.7,0.2,2.4,0.5c0.8,0.3,1.4,0.8,2,1.4c0.5,0.6,1,1.3,1.3,2.1c0.3,0.8,0.5,1.7,0.5,2.7
				c0,1-0.2,1.8-0.5,2.6c-0.3,0.8-0.8,1.5-1.3,2.2c-0.5,0.7-1.1,1.4-1.7,2c-0.6,0.6-1.2,1.3-1.9,1.9c-0.8,0.8-1.4,1.5-2,2
				c-0.5,0.6-0.9,1.1-1.3,1.7c-0.3,0.6-0.5,1.3-0.7,2C34,41.6,34,42.5,34,43.7v1.9c0,1.1,0.9,1.9,1.9,1.9h1.8c1.1,0,1.9-0.9,1.9-1.9
				v-0.8c0-0.9,0-1.6,0.1-2.2c0.1-0.6,0.2-1.1,0.4-1.6c0.2-0.5,0.5-0.9,0.9-1.4c0.4-0.4,0.9-1,1.5-1.6l0.5-0.5c0,0,0.1-0.1,0.1-0.1
				l3.4-3.7c0.1-0.1,0.1-0.1,0.1-0.2c0.7-1,1.3-2.1,1.7-3.2c0.4-1.2,0.6-2.6,0.6-4.1C49,24.2,48.7,22.6,48.1,21.2z"/>
		</g>
	</g>
</g>
</svg>
