<?xml version="1.0" encoding="utf-8"?>
<!-- Generator: Adobe Illustrator 18.1.1, SVG Export Plug-In . SVG Version: 6.00 Build 0)  -->
<svg version="1.1" id="Layer_1" xmlns="http://www.w3.org/2000/svg" xmlns:xlink="http://www.w3.org/1999/xlink" x="0px" y="0px"
	 viewBox="0 0 74 74" enable-background="new 0 0 74 74" xml:space="preserve">
<g>
	<g>
		<g>
			<g>
				<path fill="#03A9F4" d="M37,6.7c16.8,0,30.4,13.6,30.4,30.3S53.8,67.3,37,67.3S6.6,53.8,6.6,37S20.2,6.7,37,6.7z"/>
			</g>
			<g>
				<path fill="#FFFFFF" d="M37,68.2c-17.3,0-31.3-14-31.3-31.2S19.7,5.8,37,5.8s31.3,14,31.3,31.2S54.3,68.2,37,68.2z M37,7.6
					C20.8,7.6,7.5,20.8,7.5,37c0,16.2,13.2,29.4,29.5,29.4S66.5,53.2,66.5,37C66.5,20.8,53.2,7.6,37,7.6z"/>
			</g>
		</g>
	</g>
	<g>
		<g>
			<path fill="#FFFFFF" d="M36.5,19.2c4.9,0,8.7,3.8,8.7,8.7s-3.8,8.7-8.7,8.7s-8.7-3.8-8.7-8.7S31.6,19.2,36.5,19.2z"/>
			<path fill="#FFFFFF" d="M36.5,60.3c-7.2,0-13.6-3.8-17.4-9.3c0-5.8,11.6-9,17.4-9s17.4,3.2,17.4,9C50.2,56.5,43.8,60.3,36.5,60.3
				z"/>
		</g>
		<path fill="#FFFFFF" d="M52.7,43.9L52.7,43.9c-0.9,0-1.6-0.7-1.6-1.6V30.8c0-0.9,0.7-1.6,1.6-1.6h0c0.9,0,1.6,0.7,1.6,1.6v11.4
			C54.2,43.2,53.5,43.9,52.7,43.9z"/>
		<path fill="#FFFFFF" d="M60,36.6L60,36.6c0,0.9-0.7,1.6-1.6,1.6H46.9c-0.9,0-1.6-0.7-1.6-1.6v0c0-0.9,0.7-1.6,1.6-1.6h11.4
			C59.3,35,60,35.7,60,36.6z"/>
	</g>
</g>
</svg>
