<?xml version="1.0" encoding="utf-8"?>
<!-- Generator: Adobe Illustrator 18.1.1, SVG Export Plug-In . SVG Version: 6.00 Build 0)  -->
<svg version="1.1" id="Layer_1" xmlns="http://www.w3.org/2000/svg" xmlns:xlink="http://www.w3.org/1999/xlink" x="0px" y="0px"
	 viewBox="0 0 100 100" enable-background="new 0 0 100 100" xml:space="preserve">
<g>
	<g>
		<g>
			<path fill="#8E24AA" d="M50,9.1c22.6,0,41,18.3,41,40.9S72.6,90.9,50,90.9S9,72.6,9,50S27.4,9.1,50,9.1z"/>
			<path fill="#FFFFFF" d="M50,92.2C26.7,92.2,7.7,73.3,7.7,50S26.7,7.8,50,7.8S92.3,26.7,92.3,50S73.3,92.2,50,92.2z M50,10.3
				c-21.9,0-39.8,17.8-39.8,39.7c0,21.9,17.8,39.7,39.8,39.7S89.8,71.9,89.8,50C89.8,28.1,71.9,10.3,50,10.3z"/>
		</g>
	</g>
	<path fill="#FFFFFF" d="M76.1,22.9c-0.2-0.2-0.5-0.3-0.8-0.3c-0.1,0-0.1,0-0.2,0l-3.4,0.6c-0.2,0-0.4,0.1-0.5,0.3l-20.7,19
		L33.9,26.1l0.9-0.9l11.3,11.3c0.4,0.4,1,0.4,1.4,0c0.2-0.2,0.3-0.4,0.3-0.7s-0.1-0.5-0.3-0.7l-12-12c-0.4-0.4-1-0.4-1.4,0l-2.3,2.3
		L25.2,32c-0.2,0.2-0.3,0.4-0.3,0.7s0.1,0.5,0.3,0.7l12,12v0c0,0,0,0,0,0l5,5l-8.3,10.3c-0.3,0.4-0.3,1.1,0.1,1.5l0.4,0.4
		c-1-0.6-2.1-1-3.2-1c-1.6,0-3.1,0.6-4.3,1.8c-1,1-2.5,7.1-3.3,10.6c-0.1,0.4,0,0.7,0.3,1c0.3,0.3,0.7,0.4,1,0.3l6.8-1.5
		c0.4-0.1,2.7-0.7,3.7-1.8c2-2.1,2.3-5.3,0.8-7.6l0.6,0.6c0.4,0.4,1,0.4,1.5,0.1l10.3-8.3l10,10c0.2,0.2,0.5,0.3,0.7,0.3l3.9-0.1
		l0.2,4.2c0,0.4,0.3,0.8,0.7,0.9l9.9,3.2c0.1,0,0.2,0,0.3,0c0,0,0,0,0.1,0c0.1,0,0.2,0,0.3-0.1c0,0,0.1,0,0.1,0
		c0.1,0,0.2-0.1,0.3-0.2c0.1-0.1,0.2-0.2,0.2-0.3c0-0.1,0.1-0.2,0.1-0.4c0-0.1,0-0.2,0-0.3l-3.2-9.9c-0.1-0.4-0.5-0.7-0.9-0.7
		l-4.2-0.2l0.2-3.7c0,0,0,0,0,0c0-0.3-0.1-0.5-0.3-0.7L56.4,48.5c7.5-8.1,19.1-20.6,19.1-20.6c0.1-0.2,0.2-0.3,0.3-0.5l0.6-3.5
		C76.4,23.6,76.3,23.2,76.1,22.9z M37.7,62.8l-1.4-1.4l7.3-9.1l3.2,3.3L37.7,62.8z M27.3,32.7l5.2-5.2l10.6,10.6l-5.2,5.2L27.3,32.7
		z M70.3,65.5l1.7,5.3l-2-2c0-0.4-0.1-0.8-0.4-1.1c-0.6-0.6-1.5-0.6-2.1,0c-0.6,0.6-0.6,1.5,0,2.1c0.3,0.3,0.7,0.4,1.1,0.4l2,2
		l-5.3-1.7l-0.2-5.2L70.3,65.5z M73.7,26.7L54.9,47L52,44.1l20.4-18.8l1.6-0.3L73.7,26.7z"/>
</g>
</svg>
