<?xml version="1.0" encoding="utf-8"?>
<!-- Generator: Adobe Illustrator 18.1.1, SVG Export Plug-In . SVG Version: 6.00 Build 0)  -->
<svg version="1.1" id="Layer_1" xmlns="http://www.w3.org/2000/svg" xmlns:xlink="http://www.w3.org/1999/xlink" x="0px" y="0px"
	 viewBox="0 0 74 74" enable-background="new 0 0 74 74" xml:space="preserve">
<g>
	<g>
		<g>
			<g>
				<path fill="#03A9F4" d="M37,6.7c16.8,0,30.4,13.6,30.4,30.3S53.8,67.3,37,67.3S6.6,53.8,6.6,37S20.2,6.7,37,6.7z"/>
			</g>
			<g>
				<path fill="#FFFFFF" d="M37,68.2c-17.3,0-31.3-14-31.3-31.2S19.7,5.8,37,5.8s31.3,14,31.3,31.2S54.3,68.2,37,68.2z M37,7.6
					C20.8,7.6,7.5,20.8,7.5,37c0,16.2,13.2,29.4,29.5,29.4S66.5,53.2,66.5,37C66.5,20.8,53.2,7.6,37,7.6z"/>
			</g>
		</g>
	</g>
	<path fill="#FFFFFF" d="M33.1,44.5l2.9,2.9L46.3,37L36,26.6l-2.9,2.9l5.4,5.4H18.3v4.1h20.1L33.1,44.5z M51.5,18.3h-29
		c-2.3,0-4.1,1.9-4.1,4.1v8.3h4.1v-8.3h29v29h-29v-8.3h-4.1v8.3c0,2.3,1.9,4.1,4.1,4.1h29c2.3,0,4.1-1.9,4.1-4.1v-29
		C55.7,20.2,53.8,18.3,51.5,18.3z"/>
</g>
</svg>
