<?xml version="1.0" encoding="utf-8"?>
<!-- Generator: Adobe Illustrator 18.1.1, SVG Export Plug-In . SVG Version: 6.00 Build 0)  -->
<svg version="1.1" id="Layer_1" xmlns="http://www.w3.org/2000/svg" xmlns:xlink="http://www.w3.org/1999/xlink" x="0px" y="0px"
	 viewBox="0 0 108 129.6" enable-background="new 0 0 108 129.6" xml:space="preserve">
<g>
	<g>
		<path fill="#00838F" d="M54.3,1.7c28.4,0,51.3,22.9,51.3,51.2s-38.7,75-51.3,75c-15.6,0-51.3-46.8-51.3-75
			C3.1,24.6,26,1.7,54.3,1.7z"/>
	</g>
</g>
<g>
	<path fill="#2196F3" d="M54.3,10.4c-24.8,0-45,20.2-45,44.9s20.2,44.9,45,44.9s45-20.2,45-44.9S79.2,10.4,54.3,10.4z"/>
	<path fill="#FF9800" d="M54.3,101.3c-25.4,0-46-20.6-46-45.9s20.7-45.9,46-45.9s46,20.6,46,45.9S79.7,101.3,54.3,101.3z M54.3,11.4
		c-24.3,0-44,19.7-44,43.9s19.8,43.9,44,43.9c24.3,0,44-19.7,44-43.9S78.6,11.4,54.3,11.4z"/>
</g>
<g>
	<g>
		<g>
			<path fill="#00ACC1" d="M54.3,14.4c22.6,0,41,18.3,41,40.9S77,96.3,54.3,96.3s-41-18.3-41-40.9S31.7,14.4,54.3,14.4z"/>
		</g>
		<g>
			<path fill="#FFFFFF" d="M54.3,97.5C31,97.5,12,78.6,12,55.3s19-42.2,42.3-42.2s42.3,18.9,42.3,42.2S77.6,97.5,54.3,97.5z
				 M54.3,15.6c-21.9,0-39.8,17.8-39.8,39.7C14.5,77.2,32.4,95,54.3,95s39.8-17.8,39.8-39.7C94.1,33.4,76.3,15.6,54.3,15.6z"/>
		</g>
	</g>
</g>
<g>
	<g>
		<path fill="#FFFFFF" d="M27.6,67.7H81c0.7,0,1.3-0.6,1.3-1.3V33.6c0-0.7-0.6-1.3-1.3-1.3H27.6c-0.7,0-1.3,0.6-1.3,1.3v32.8
			C26.3,67.1,26.9,67.7,27.6,67.7z M29.2,64.2V35.7c0.2-0.2,0.4-0.4,0.6-0.6L79,35.2c0.3,0,0.5,0.2,0.5,0.5l-0.1,28.6
			c0,0.3-0.2,0.5-0.5,0.5l-49.2-0.1C29.4,64.8,29.2,64.5,29.2,64.2z"/>
	</g>
	<g>
		<path fill="#FFFFFF" d="M84,69.5l-60.1,0c-0.3,0-0.5,0.3-0.4,0.6c0.4,1.5,1.9,5.5,5.5,5.5v0c0,0,0,0,0,0h50.5c0,0,0,0,0,0v0
			c3.1,0,4.7-3,5.3-4.8C85.1,70.2,84.7,69.5,84,69.5z M60.1,72.6c0,0.5-0.4,0.9-0.9,0.9h-9.7c-0.5,0-0.9-0.4-0.9-0.9l0,0
			c0-0.5,0.4-0.9,0.9-0.9h9.7C59.7,71.6,60.1,72,60.1,72.6L60.1,72.6z"/>
	</g>
</g>
<g>
	<path fill="#FFFFFF" d="M30.7,62.9V37c0.2-0.2,0.3-0.3,0.6-0.6l46.2,0.1c0.3,0,0.5,0.2,0.5,0.5l-0.1,26c0,0.3-0.2,0.5-0.5,0.5
		l-46.2-0.1C30.9,63.4,30.7,63.2,30.7,62.9z"/>
</g>
</svg>
