<?xml version="1.0" encoding="utf-8"?>
<!-- Generator: Adobe Illustrator 18.1.1, SVG Export Plug-In . SVG Version: 6.00 Build 0)  -->
<svg version="1.1" id="Layer_1" xmlns="http://www.w3.org/2000/svg" xmlns:xlink="http://www.w3.org/1999/xlink" x="0px" y="0px"
	 viewBox="0 0 108 129.6" enable-background="new 0 0 108 129.6" xml:space="preserve">
<g>
	<path fill="#00838F" d="M54,1.7c28.4,0,51.3,22.9,51.3,51.2s-38.7,75-51.3,75c-15.6,0-51.3-46.8-51.3-75C2.7,24.6,25.6,1.7,54,1.7z
		"/>
</g>
<g>
	<g>
		<path fill="#00ACC1" d="M54,14.4c22.6,0,41,18.3,41,40.9S76.6,96.3,54,96.3S13,77.9,13,55.3S31.4,14.4,54,14.4z"/>
		<path fill="#FFFFFF" d="M54,97.5c-23.3,0-42.3-18.9-42.3-42.2s19-42.2,42.3-42.2s42.3,18.9,42.3,42.2S77.3,97.5,54,97.5z M54,15.6
			c-21.9,0-39.8,17.8-39.8,39.7C14.2,77.2,32.1,95,54,95s39.8-17.8,39.8-39.7C93.8,33.4,75.9,15.6,54,15.6z"/>
	</g>
</g>
<g>
	<path fill="#FFFFFF" d="M27.3,67.7h53.4c0.7,0,1.3-0.6,1.3-1.3V33.6c0-0.7-0.6-1.3-1.3-1.3H27.3c-0.7,0-1.3,0.6-1.3,1.3v32.8
		C26,67.1,26.6,67.7,27.3,67.7z M28.8,64.2V35.7c0.2-0.2,0.4-0.4,0.6-0.6l49.2,0.1c0.3,0,0.5,0.2,0.5,0.5l-0.1,28.6
		c0,0.3-0.2,0.5-0.5,0.5l-49.2-0.1C29.1,64.8,28.8,64.5,28.8,64.2z"/>
	<path fill="#FFFFFF" d="M83.7,69.5l-60.1,0c-0.3,0-0.5,0.3-0.4,0.6c0.4,1.5,1.9,5.5,5.5,5.5v0c0,0,0,0,0,0h50.5c0,0,0,0,0,0v0
		c3.1,0,4.7-3,5.3-4.8C84.8,70.2,84.4,69.5,83.7,69.5z M59.8,72.6c0,0.5-0.4,0.9-0.9,0.9h-9.7c-0.5,0-0.9-0.4-0.9-0.9l0,0
		c0-0.5,0.4-0.9,0.9-0.9h9.7C59.4,71.6,59.8,72,59.8,72.6L59.8,72.6z"/>
</g>
<path fill="#FFFFFF" d="M30.4,62.9V37c0.2-0.2,0.3-0.3,0.6-0.6l46.2,0.1c0.3,0,0.5,0.2,0.5,0.5l-0.1,26c0,0.3-0.2,0.5-0.5,0.5
	l-46.2-0.1C30.6,63.4,30.4,63.2,30.4,62.9z"/>
</svg>
