<?xml version="1.0" encoding="utf-8"?>
<!-- Generator: Adobe Illustrator 18.1.1, SVG Export Plug-In . SVG Version: 6.00 Build 0)  -->
<svg version="1.1" id="Layer_1" xmlns="http://www.w3.org/2000/svg" xmlns:xlink="http://www.w3.org/1999/xlink" x="0px" y="0px"
	 viewBox="0 0 108 129.6" enable-background="new 0 0 108 129.6" xml:space="preserve">
<g>
	<g>
		<path fill="#689F38" d="M54.3,1.7c28.4,0,51.3,22.9,51.3,51.2s-38.7,75-51.3,75c-15.6,0-51.3-46.8-51.3-75
			C3.1,24.6,26,1.7,54.3,1.7z"/>
	</g>
</g>
<g>
	<path fill="#2196F3" d="M54.3,10.4c-24.8,0-45,20.2-45,44.9s20.2,44.9,45,44.9s45-20.2,45-44.9S79.2,10.4,54.3,10.4z"/>
	<path fill="#FF9800" d="M54.3,101.3c-25.4,0-46-20.6-46-45.9s20.7-45.9,46-45.9s46,20.6,46,45.9S79.7,101.3,54.3,101.3z M54.3,11.4
		c-24.3,0-44,19.7-44,43.9s19.8,43.9,44,43.9c24.3,0,44-19.7,44-43.9S78.6,11.4,54.3,11.4z"/>
</g>
<g>
	<g>
		<g>
			<path fill="#8BC34A" d="M54.3,14.4c22.6,0,41,18.3,41,40.9S77,96.3,54.3,96.3s-41-18.3-41-40.9S31.7,14.4,54.3,14.4z"/>
		</g>
		<g>
			<path fill="#FFFFFF" d="M54.3,97.5C31,97.5,12,78.6,12,55.3s19-42.2,42.3-42.2s42.3,18.9,42.3,42.2S77.6,97.5,54.3,97.5z
				 M54.3,15.6c-21.9,0-39.8,17.8-39.8,39.7C14.5,77.2,32.4,95,54.3,95s39.8-17.8,39.8-39.7C94.1,33.4,76.3,15.6,54.3,15.6z"/>
		</g>
	</g>
</g>
<g>
	<g>
		<path fill="#FFFFFF" d="M46.8,38.4c-3.5,0-6.4,2.9-6.4,6.4s2.9,6.4,6.4,6.4s6.4-2.9,6.4-6.4S50.3,38.4,46.8,38.4z"/>
	</g>
	<g>
		<path fill="#FFFFFF" d="M68.6,41.4l-5.8-1.8l-1-2.5l2.8-5.3c0.2-0.4,0.1-0.9-0.2-1.2L61,27.1c-0.3-0.3-0.8-0.4-1.2-0.2l-5.3,2.8
			l-2.5-1l-1.8-5.8c-0.1-0.4-0.5-0.7-1-0.7h-5c-0.4,0-0.8,0.3-1,0.7l-1.8,5.8l-2.5,1l-5.3-2.8c-0.4-0.2-0.9-0.1-1.2,0.2l-3.5,3.5
			c-0.3,0.3-0.4,0.8-0.2,1.2l2.8,5.3l-1,2.5l-5.8,1.8c-0.4,0.1-0.7,0.5-0.7,1v5c0,0.4,0.3,0.8,0.7,1l5.8,1.8l1,2.5l-2.8,5.3
			c-0.2,0.4-0.1,0.9,0.2,1.2l3.5,3.5c0.3,0.3,0.8,0.4,1.2,0.2l5.3-2.8l2.5,1l1.8,5.8c0.1,0.4,0.5,0.7,1,0.7h5c0.4,0,0.8-0.3,1-0.7
			l1.8-5.8l2.5-1l1.7,0.9c0.4,0.2,0.8,0.1,1.2-0.2c0.3-0.3,0.4-0.7,0.2-1.1l-1.3-2.9l2.4-2.4l2.7,1.2c0.1,0.1,0.3,0.1,0.4,0.1
			c0,0,0,0,0,0c0.6,0,1-0.4,1-1c0-0.2-0.1-0.5-0.2-0.6l-0.7-1.3l1-2.5l5.8-1.8c0.4-0.1,0.7-0.5,0.7-1v-5
			C69.3,41.9,69.1,41.5,68.6,41.4z M46.8,53.2c-4.6,0-8.4-3.8-8.4-8.4s3.8-8.4,8.4-8.4s8.4,3.8,8.4,8.4S51.4,53.2,46.8,53.2z"/>
	</g>
</g>
<g>
	<g>
		<path fill="#FFFFFF" d="M69.6,62.4c-2.8,0-5,2.3-5,5s2.3,5,5,5c2.8,0,5-2.3,5-5S72.3,62.4,69.6,62.4z"/>
	</g>
	<g>
		<path fill="#FFFFFF" d="M84.7,65.2l-3.3-1.1l-1.2-2.8l1.6-3.1c0.2-0.4,0.1-0.9-0.2-1.2l-1.8-1.8c-0.3-0.3-0.8-0.4-1.2-0.2
			l-3.1,1.6l-2.8-1.2l-1.1-3.3c-0.1-0.4-0.5-0.7-1-0.7h-2.5c-0.4,0-0.8,0.3-1,0.7l-1.1,3.3l-2.8,1.2l-3.1-1.6
			c-0.4-0.2-0.9-0.1-1.2,0.2l-1.8,1.8c-0.3,0.3-0.4,0.8-0.2,1.2l1.6,3.1l-1.2,2.8l-3.3,1.1c-0.4,0.1-0.7,0.5-0.7,1v2.5
			c0,0.4,0.3,0.8,0.7,1l3.3,1.1l1.2,2.8l-1.6,3.1c-0.2,0.4-0.1,0.9,0.2,1.2l1.8,1.8c0.3,0.3,0.8,0.4,1.2,0.2l3.1-1.6l2.8,1.2
			l1.1,3.3c0.1,0.4,0.5,0.7,1,0.7h2.5c0.4,0,0.8-0.3,1-0.7l1.1-3.3l2.8-1.2l3.1,1.6c0.4,0.2,0.9,0.1,1.2-0.2l1.8-1.8
			c0.3-0.3,0.4-0.8,0.2-1.2l-1.6-3.1l1.2-2.8l3.3-1.1c0.4-0.1,0.7-0.5,0.7-1v-2.5C85.4,65.7,85.2,65.3,84.7,65.2z M69.6,74.4
			c-3.9,0-7-3.2-7-7c0-3.9,3.2-7,7-7c3.9,0,7,3.2,7,7C76.6,71.3,73.5,74.4,69.6,74.4z"/>
	</g>
</g>
</svg>
