<?xml version="1.0" encoding="utf-8"?>
<!-- Generator: Adobe Illustrator 18.1.1, SVG Export Plug-In . SVG Version: 6.00 Build 0)  -->
<svg version="1.1" id="Layer_1" xmlns="http://www.w3.org/2000/svg" xmlns:xlink="http://www.w3.org/1999/xlink" x="0px" y="0px"
	 viewBox="0 0 108 129.6" enable-background="new 0 0 108 129.6" xml:space="preserve">
<g>
	<g>
		<path fill="#1565C0" d="M54.3,1.7c28.4,0,51.3,22.9,51.3,51.2s-38.7,75-51.3,75c-15.6,0-51.3-46.8-51.3-75
			C3.1,24.6,26,1.7,54.3,1.7z"/>
	</g>
</g>
<g>
	<g>
		<g>
			<path fill="#1E88E5" d="M54.3,14.4c22.6,0,41,18.3,41,40.9S77,96.3,54.3,96.3s-41-18.3-41-40.9S31.7,14.4,54.3,14.4z"/>
		</g>
		<g>
			<path fill="#FFFFFF" d="M54.3,97.5C31,97.5,12,78.6,12,55.3s19-42.2,42.3-42.2s42.3,18.9,42.3,42.2S77.6,97.5,54.3,97.5z
				 M54.3,15.6c-21.9,0-39.8,17.8-39.8,39.7C14.5,77.2,32.4,95,54.3,95s39.8-17.8,39.8-39.7C94.1,33.4,76.3,15.6,54.3,15.6z"/>
		</g>
	</g>
</g>
<g id="_x37_39-question_x40_2x.png">
	<g>
		<path fill="#FFFFFF" d="M53.9,75.5c-1.4,0-2.6,0.5-3.7,1.6c-1,1.1-1.5,2.4-1.5,3.9c0,1.5,0.5,2.8,1.5,3.9c1,1.1,2.3,1.6,3.7,1.6
			c1.4,0,2.6-0.5,3.7-1.6c1-1.1,1.5-2.4,1.5-3.9c0-1.5-0.5-2.8-1.5-3.9C56.6,76.1,55.3,75.5,53.9,75.5z M69.4,33.9
			C68.6,32,67.4,30.4,66,29c-1.4-1.3-3.1-2.3-5-3c-1.9-0.7-4-1.1-6.2-1.1c-4.6,0-8.5,1.4-11.7,4.2c-2.5,2.2-4.2,5-5.1,8.5
			c-0.4,1.5,0.7,3.1,2.2,3.3l2.8,0.3c1.2,0.1,2.4-0.6,2.8-1.9c0.5-1.9,1.3-3.4,2.5-4.7c1.6-1.7,3.7-2.6,6.3-2.6
			c1.2,0,2.3,0.2,3.3,0.7c1,0.5,1.9,1.1,2.6,1.9c0.7,0.8,1.3,1.7,1.8,2.8c0.4,1.1,0.7,2.3,0.7,3.6c0,1.3-0.2,2.5-0.7,3.5
			c-0.4,1-1,2-1.7,2.9c-0.7,0.9-1.5,1.8-2.3,2.7c-0.8,0.9-1.7,1.7-2.5,2.6c-1.1,1.1-1.9,2-2.6,2.7c-0.7,0.8-1.3,1.5-1.7,2.4
			c-0.4,0.8-0.7,1.7-0.9,2.7c-0.2,1-0.3,2.3-0.3,3.8v2.5c0,1.4,1.2,2.6,2.6,2.6h2.4c1.4,0,2.6-1.2,2.6-2.6v-1.1
			c0-1.2,0.1-2.2,0.2-2.9c0.1-0.8,0.3-1.5,0.6-2.1c0.3-0.6,0.7-1.3,1.2-1.9c0.5-0.6,1.2-1.3,2-2.1l0.7-0.7c0,0,0.1-0.1,0.1-0.1
			l4.6-5c0.1-0.1,0.1-0.2,0.2-0.2c1-1.4,1.8-2.8,2.4-4.4c0.6-1.6,0.9-3.5,0.9-5.6C70.6,38.1,70.2,35.9,69.4,33.9z"/>
	</g>
</g>
</svg>
