<?xml version="1.0" encoding="utf-8"?>
<!-- Generator: Adobe Illustrator 18.1.1, SVG Export Plug-In . SVG Version: 6.00 Build 0)  -->
<svg version="1.1" id="Layer_1" xmlns="http://www.w3.org/2000/svg" xmlns:xlink="http://www.w3.org/1999/xlink" x="0px" y="0px"
	 viewBox="0 0 62 74" enable-background="new 0 0 62 74" xml:space="preserve">
<g>
	<g>
		<g>
			<path fill="#FF9800" d="M31,0.9c16.2,0,29.3,13.1,29.3,29.2s-22.1,43-29.3,43c-8.9,0-29.3-26.7-29.3-42.9S14.8,0.9,31,0.9z"/>
		</g>
	</g>
	<g>
		<g>
			<g>
				<path fill="#2196F3" d="M31,8.2c12.9,0,23.4,10.5,23.4,23.4S43.9,55,31,55S7.6,44.5,7.6,31.6S18.1,8.2,31,8.2z"/>
			</g>
			<g>
				<path fill="#FF9800" d="M31,54.3c-12.5,0-22.7-10.2-22.7-22.7S18.5,8.9,31,8.9s22.7,10.2,22.7,22.7S43.5,54.3,31,54.3z M31,10
					C19.1,10,9.4,19.7,9.4,31.6S19.1,53.2,31,53.2s21.6-9.7,21.6-21.6S42.9,10,31,10z"/>
			</g>
			<g>
				<path fill="#FFFFFF" d="M31,55.7c-13.3,0-24.2-10.8-24.2-24.1S17.7,7.5,31,7.5s24.2,10.8,24.2,24.1S44.3,55.7,31,55.7z M31,8.9
					C18.5,8.9,8.3,19.1,8.3,31.6S18.5,54.3,31,54.3s22.7-10.2,22.7-22.7S43.5,8.9,31,8.9z"/>
			</g>
		</g>
	</g>
	<g id="layer1_3_" transform="translate(-313.03964,-301.79625)">
		<g id="g2554_3_" transform="matrix(2.5585897,0,0,2.5585897,313.03964,301.79625)">
			<g id="g8_3_" transform="translate(-2.73438e-2,-599.527)">
				<path id="path10_3_" fill="#FFFFFF" d="M14.216,615.239v-4.5h0.9v4.5H14.216z"/>
			</g>
			<g id="g12_3_" transform="translate(-2.73438e-2,-599.527)">
				<path id="path14_3_" fill="#FFFFFF" d="M9.116,615.239v-4.5h0.9v4.5H9.116z"/>
			</g>
			<g id="g16_3_" transform="translate(-2.73438e-2,-599.527)">
				<path id="path18_3_" fill="#FFFFFF" d="M10.316,615.239v-4.5h1v4.5H10.316z"/>
			</g>
			<g id="g20_3_" transform="translate(-2.73438e-2,-599.527)">
				<path id="path22_3_" fill="#FFFFFF" d="M11.616,615.239v-4.5h1v4.5H11.616z"/>
			</g>
			<g id="g24_3_" transform="translate(-2.73438e-2,-599.527)">
				<path id="path26_3_" fill="#FFFFFF" d="M13.916,610.739v4.5h-1v-4.5H13.916z"/>
			</g>
			<g id="g28_3_" transform="translate(-2.73438e-2,-599.527)">
				<path id="path30_3_" fill="#FFFFFF" d="M14.716,610.339h-5.3l2.7-1.7L14.716,610.339z"/>
			</g>
			<g id="g32_3_" transform="translate(-2.73438e-2,-599.527)">
				<path id="path34_3_" fill="#FFFFFF" d="M8.916,610.339h-2.3v-1.7h5L8.916,610.339z"/>
			</g>
			<g id="g36_3_" transform="translate(-2.73438e-2,-599.527)">
				<path id="path38_3_" fill="#FFFFFF" d="M12.716,608.739h4.9v1.7h-2.3L12.716,608.739z"/>
			</g>
			<g id="g40_3_" transform="translate(-2.73438e-2,-599.527)">
				<path id="path42_3_" fill="#FFFFFF" d="M16.916,608.339h-9.6c0.9-1.7,2.7-2.8,4.8-2.8
					C14.116,605.539,15.916,606.739,16.916,608.339z"/>
			</g>
			<g id="g44_3_" transform="translate(-2.73438e-2,-599.527)">
				<path id="path46_3_" fill="#FFFFFF" d="M8.216,614.939l-0.1,0.2L8.216,614.939l0.2,0.2L8.216,614.939l0.2-0.1L8.216,614.939
					l-0.1-0.3l-0.1,0.2h-0.2L8.216,614.939z M7.416,613.939l-0.1,0.1L7.416,613.939l0.2,0.1l-0.1-0.2l0.1-0.1h-0.1l-0.1-0.2
					l-0.1,0.2h-0.1L7.416,613.939z M6.816,612.639l-0.1,0.2L6.816,612.639l0.2,0.2L6.816,612.639l0.2-0.1l0,0l-0.1-0.2
					L6.816,612.639L6.816,612.639L6.816,612.639z M8.816,615.239h-2.2v-4l0.1,0.1l-0.1,0.1l0.1-0.1l0.1,0.1l-0.1-0.2l0.1-0.1l0,0
					l-0.1-0.2l-0.1,0.2l0,0v-0.4h2.2V615.239z"/>
			</g>
			<g id="g48_3_" transform="translate(-2.73438e-2,-599.527)">
				<path id="path50_3_" fill="#FFFFFF" d="M8.816,615.539v1.2h-2.2v-1.2H8.816z"/>
			</g>
			<g id="g52_3_" transform="translate(-2.73438e-2,-599.527)">
				<path id="path54_3_" fill="#FFFFFF" d="M15.416,615.539h2.2v1.2h-2.1v-1.2H15.416z"/>
			</g>
			<g id="g56_3_" transform="translate(-2.73438e-2,-599.527)">
				<path id="path58_3_" fill="#FFFFFF" d="M13.616,616.339l0.1-0.1L13.616,616.339l-0.2-0.3l-0.1,0.2h-0.2l0.1,0.1l-0.1,0.2
					L13.616,616.339l0.1,0.2L13.616,616.339z M14.816,615.839l0.1-0.1h-0.2l-0.1-0.2l-0.1,0.2h-0.2l0.1,0.1l0.2,0.2L14.816,615.839
					l0.1,0.2L14.816,615.839z M10.616,616.339l-0.1,0.2L10.616,616.339l0.2,0.2L10.616,616.339l0.2-0.1L10.616,616.339l-0.1-0.3
					l-0.1,0.2h-0.2L10.616,616.339z M9.416,615.839l-0.1,0.2L9.416,615.839l0.2,0.2L9.416,615.839l0.2-0.1L9.416,615.839l-0.1-0.3
					l-0.1,0.2h-0.2L9.416,615.839z M15.116,615.539v1.2h-2.9v-0.2l0.1-0.1h-0.2l-0.1-0.2l-0.1,0.2h-0.2l0.1,0.1l-0.1,0.2h-2.9v-1.2
					H15.116z M12.216,616.739h-0.2H12.216L12.216,616.739z"/>
			</g>
			<g id="g60_3_" transform="translate(-2.73438e-2,-599.527)">
				<path id="path62_3_" fill="#FFFFFF" d="M16.016,614.939l0.1-0.1h-0.2l-0.1-0.2l-0.1,0.2h-0.2l0.1,0.1l-0.1,0.2L16.016,614.939
					l0.1,0.2L16.016,614.939z M16.816,613.939l0.1-0.1h-0.2l-0.1-0.2l-0.1,0.2h-0.2l0.1,0.1l0.2,0.1L16.816,613.939l0.1,0.2
					L16.816,613.939z M17.316,612.639l0.1-0.1h-0.2l-0.1-0.2l-0.1,0.2h-0.2l0.1,0.1l-0.1,0.2L17.316,612.639l0.1,0.2L17.316,612.639
					z M17.616,615.239h-2.1v-4.5h2.1v0.4h-0.1l-0.1-0.2l-0.1,0.2h-0.2l0.1,0.1l-0.1,0.2l0.1-0.1l0.1,0.1l-0.1-0.2l0.1-0.1v4.1
					H17.616z"/>
			</g>
		</g>
	</g>
</g>
</svg>
