<?xml version="1.0" encoding="utf-8"?>
<!-- Generator: Adobe Illustrator 18.1.1, SVG Export Plug-In . SVG Version: 6.00 Build 0)  -->
<svg version="1.1" id="Layer_1" xmlns="http://www.w3.org/2000/svg" xmlns:xlink="http://www.w3.org/1999/xlink" x="0px" y="0px"
	 viewBox="0 0 108 129.6" enable-background="new 0 0 108 129.6" xml:space="preserve">
<g>
	<path fill="#AD1457" d="M54,1.7c28.4,0,51.3,22.9,51.3,51.2s-38.7,75-51.3,75c-15.6,0-51.3-46.8-51.3-75C2.7,24.6,25.6,1.7,54,1.7z
		"/>
</g>
<g>
	<g>
		<path fill="#D81B60" d="M54,14.4c22.6,0,41,18.3,41,40.9S76.6,96.3,54,96.3S13,77.9,13,55.3S31.4,14.4,54,14.4z"/>
		<path fill="#FFFFFF" d="M54,97.5c-23.3,0-42.3-18.9-42.3-42.2s19-42.2,42.3-42.2s42.3,18.9,42.3,42.2S77.3,97.5,54,97.5z M54,15.6
			c-21.9,0-39.8,17.8-39.8,39.7C14.2,77.2,32.1,95,54,95s39.8-17.8,39.8-39.7C93.8,33.4,75.9,15.6,54,15.6z"/>
	</g>
</g>
<path fill="#FFFFFF" d="M65,85.2h-5.2c-2.2,0-4-1.8-4-4V69.7c0-1.7,1.1-3.2,2.7-3.7c2.7-0.9,4.8-2.6,7.1-5.1
	c6.9-7.8,7.4-27.6,0.8-36l-0.5-0.7H42.1l-0.5,0.7c-6.5,8.4-6.1,28.2,0.9,36c2.2,2.5,4.4,4.2,7.1,5.1c1.6,0.5,2.7,2,2.7,3.7v11.5
	c0,2.2-1.8,4-4,4H43c-1,0-1.8,1-1.8,2.1s0.8,2.1,1.8,2.1h9.2h3.7H65c1,0,1.8-1,1.8-2.1S66,85.2,65,85.2z M42.5,30.9
	c0.6-1.5,2.1-2.5,3.7-2.5h15.7c1.6,0,3.1,1,3.7,2.5c1.5,3.5,2.1,8.2,1.9,12.8H40.6C40.4,39.1,41,34.4,42.5,30.9z"/>
</svg>
