<?xml version="1.0" encoding="utf-8"?>
<!-- Generator: Adobe Illustrator 18.1.1, SVG Export Plug-In . SVG Version: 6.00 Build 0)  -->
<svg version="1.1" id="Layer_1" xmlns="http://www.w3.org/2000/svg" xmlns:xlink="http://www.w3.org/1999/xlink" x="0px" y="0px"
	 viewBox="0 0 74 74" enable-background="new 0 0 74 74" xml:space="preserve">
<g>
	<path fill-rule="evenodd" clip-rule="evenodd" fill="#03A9F4" d="M37.127,3.5c15.033,0,27.219,12.159,27.219,27.157
		c0,14.998-20.531,39.843-27.219,39.843c-8.278,0-27.219-24.845-27.219-39.843C9.907,15.659,22.094,3.5,37.127,3.5z"/>
	<path fill-rule="evenodd" clip-rule="evenodd" fill="#0277BD" d="M37.127,10.242c12.026,0,21.776,9.727,21.776,21.725
		c0,11.999-9.749,21.725-21.776,21.725c-12.026,0-21.776-9.727-21.776-21.725C15.351,19.969,25.1,10.242,37.127,10.242z"/>
	<path fill-rule="evenodd" clip-rule="evenodd" fill="#FFFFFF" d="M37.127,13.363c10.299,0,18.647,8.329,18.647,18.604
		c0,10.275-8.349,18.604-18.647,18.604c-10.298,0-18.647-8.329-18.647-18.604C18.48,21.693,26.828,13.363,37.127,13.363z"/>
	<g>
		<path fill="#03A9F4" d="M45.73,55.048l-0.301-0.03l-4.555,0.004l-0.317-0.028l-1.955,0.003c-0.025,0-0.077-0.002-0.103-0.005
			l-0.206-0.026l-0.905,0.005l-0.407-0.027l-0.858,0.002l-0.164-0.019c-0.048,0.012-0.097,0.019-0.146,0.019
			c-0.06,0-0.204-0.009-0.277-0.026h-1.298L33.9,54.89l-0.644,0.003c-0.06,0-0.141-0.009-0.202-0.026H32.74l-0.67-0.026
			l-0.233,0.001l-0.252-0.033l-0.006,0.008l-0.34-0.029l-0.47-0.023c-0.059-0.004-0.117-0.016-0.172-0.036l-0.298-0.017
			l-0.322-0.027l-0.207,0.003l-0.5-0.059l-0.171,0.007c-0.039,0-0.078-0.004-0.117-0.012l-0.071-0.014h-0.2
			c-0.05,0-0.1-0.007-0.149-0.019l-0.034-0.009c-0.028-0.001-0.296-0.028-0.296-0.028l-1.251,0.004l-0.649-0.055l-0.398-0.024
			l-0.296,0.002c-0.029,0-0.109-0.003-0.138-0.007l-0.181-0.026l-0.5-0.05l-0.162,0.005l-0.265-0.031l-0.123,0.006
			c-0.05,0-0.1-0.007-0.149-0.019l-0.03-0.008h-0.053c-0.033,0-0.117-0.003-0.149-0.008l-0.155-0.025l-0.254-0.022l-0.397,0.004
			c-0.059,0-0.117-0.009-0.173-0.025l-0.415-0.027l-0.394,0.002l-0.283-0.031l-0.569-0.021c-0.058-0.002-0.114-0.013-0.168-0.03
			l-0.226-0.026l-0.02,0.006c-0.025,0-0.154-0.002-0.179-0.005l-0.207-0.026l-0.169-0.032l-0.579-0.071l-0.669-0.021
			c-0.213-0.007-0.404-0.126-0.505-0.309H18.38c-0.05,0-0.178-0.007-0.227-0.02l-0.043-0.011l-0.481-0.022l-0.498-0.032
			c-0.113,0.148-0.29,0.239-0.481,0.239c-0.013,0-0.839-0.054-0.839-0.054l-0.297,0.002l-0.338-0.028l-0.359,0.003l-0.268-0.033
			l-0.301,0.007c-0.061,0-0.12-0.009-0.176-0.025h-0.134c-0.059,0-0.227-0.009-0.3-0.025H13.24c-0.029,0-0.083-0.002-0.112-0.007
			l-0.181-0.026l-0.559,0.007c-0.033,0-0.117-0.003-0.149-0.008l-0.155-0.025l-0.445,0.008c-0.05,0-0.126-0.007-0.175-0.019
			L11.432,53.6c-0.049-0.001-0.104-0.002-0.116-0.003l-0.232-0.025l-0.812,0.004l-0.283-0.031l-0.104,0.005H9.625
			c-0.059,0-0.117-0.009-0.173-0.025H9.237l-1.604-0.078L7.21,53.418L6.964,53.42l-0.298-0.029l-0.363-0.024l-1.376-0.051
			l-0.358-0.026l-0.084,0.002l-0.3-0.03l-0.035,0.004c-0.065,0-0.129-0.011-0.191-0.031l-0.067-0.022
			c-0.021-0.001-0.254-0.028-0.254-0.028l-0.314,0.005l-0.317-0.028l-0.111,0.003c-0.271,0-0.509-0.182-0.582-0.443
			c-0.078-0.283-0.155-0.566-0.226-0.852c-0.068-0.273,0.063-0.559,0.315-0.685c0.036-0.019,0.08-0.035,0.125-0.049
			c0.013-0.007,0.044-0.02,0.044-0.02c0.062-0.055,0.132-0.104,0.206-0.138l-0.002-0.005l0.181-0.078
			c0.053-0.022,0.108-0.038,0.166-0.045c0.063-0.029,0.155-0.061,0.234-0.074l0.055-0.013c0.048-0.026,0.101-0.047,0.155-0.059
			c0.065-0.025,0.133-0.04,0.198-0.04h0.055c0.011-0.003,0.124-0.032,0.169-0.041c0.08-0.039,0.168-0.061,0.258-0.062L4.24,50.54
			c0.059-0.02,0.121-0.03,0.184-0.032l0.135-0.054c0.075-0.032,0.155-0.049,0.237-0.049h0.087c0.011-0.049,0.027-0.097,0.047-0.136
			c0.051-0.101,0.135-0.195,0.234-0.265c0.004-0.006,0.008-0.011,0.012-0.016c0.014-0.229,0.153-0.447,0.349-0.552
			c0.024-0.048,0.053-0.091,0.089-0.126c0.113-0.11,0.29-0.198,0.448-0.198c0.04,0,0.082,0.004,0.123,0.012
			c0.009,0,0.046,0,0.056,0.001c0.035-0.008,0.071-0.013,0.105-0.013H6.5c0.044,0,0.087,0.005,0.129,0.015l0.089-0.022
			c0.047-0.012,0.095-0.018,0.144-0.018c0.021,0,0.045,0.002,0.071,0.004c0.053-0.018,0.162-0.045,0.232-0.054l0.092-0.036
			c0.029-0.012,0.059-0.021,0.089-0.028c0.014-0.009,0.027-0.018,0.042-0.025c0.02-0.073,0.051-0.141,0.099-0.193
			c-0.063-0.141-0.082-0.302-0.034-0.443l0.005,0.001c0.016-0.086,0.048-0.168,0.093-0.241c0.078-0.144,0.209-0.257,0.365-0.304
			c0.027-0.05,0.061-0.097,0.1-0.135c0.124-0.121,0.294-0.186,0.461-0.186c0.018,0,0.06,0.001,0.063,0.001
			c0.032-0.01,0.065-0.018,0.099-0.021c0.018-0.017,0.037-0.031,0.057-0.045c0.018-0.012,0.037-0.023,0.058-0.034
			c0.025-0.042,0.056-0.081,0.089-0.116c0.005-0.041,0.013-0.081,0.025-0.119c0,0,0.001-0.082,0.005-0.106
			c-0.019-0.057-0.031-0.111-0.031-0.156c0-0.184,0.082-0.355,0.211-0.473c0.052-0.06,0.111-0.112,0.17-0.142
			c0.002-0.001,0.185-0.088,0.185-0.088c0.056-0.042,0.122-0.082,0.178-0.101c0.034-0.012,0.15-0.042,0.152-0.043
			c0.013-0.007,0.026-0.014,0.041-0.02c0.06-0.051,0.126-0.092,0.196-0.119c0,0,0.044-0.015,0.062-0.019
			c0.044-0.038,0.097-0.075,0.154-0.106c0.032-0.021,0.084-0.055,0.109-0.068c0.048-0.059,0.106-0.107,0.172-0.14
			c0.038-0.019,0.089-0.038,0.142-0.055c0,0,0.114-0.079,0.123-0.085c0.093-0.095,0.208-0.147,0.33-0.16
			c0.043-0.024,0.089-0.043,0.137-0.055c0.009-0.007,0.017-0.013,0.026-0.019c0.059-0.039,0.152-0.086,0.243-0.117
			c0.051-0.029,0.106-0.053,0.162-0.068c0.027-0.01,0.056-0.018,0.084-0.025c0.019-0.009,0.039-0.018,0.059-0.025
			c0.081-0.053,0.174-0.085,0.271-0.095c0,0,0.088-0.021,0.111-0.023l0.034-0.013l0.224-0.056c0.08-0.039,0.166-0.064,0.248-0.066
			c0.019-0.008,0.039-0.016,0.058-0.021c0.031-0.032,0.065-0.06,0.102-0.083c0.03-0.018,0.061-0.034,0.093-0.049
			c0.01-0.013,0.021-0.024,0.032-0.035l0.019,0.014c0.018-0.006,0.061-0.02,0.061-0.02c0.024-0.007,0.049-0.012,0.075-0.016
			l-0.064-0.069c0.049-0.051,0.106-0.093,0.169-0.124l0.42-0.327l0.465-0.394l0.482-0.376c0.028-0.027,0.054-0.055,0.087-0.077
			c0.036-0.036,0.099-0.084,0.153-0.117l0.091-0.092c0.046-0.047,0.101-0.085,0.159-0.114l0.371-0.31l0.141-0.111l0.764-0.638
			c0.11-0.093,0.248-0.141,0.386-0.141c0.087,0,0.174,0.019,0.256,0.058c0.037,0.017,0.071,0.038,0.104,0.062
			c0.103,0.019,0.198,0.062,0.27,0.132c0.039,0.038,0.074,0.082,0.103,0.131c0.011,0.009,0.022,0.019,0.033,0.029
			c0.112,0.113,0.226,0.317,0.226,0.477c0,0.21-0.107,0.406-0.271,0.521c0.083,0.109,0.142,0.252,0.142,0.382
			c0.063,0.096,0.104,0.204,0.104,0.312c0,0.092-0.021,0.184-0.058,0.268c-0.002,0.02-0.006,0.039-0.01,0.059
			c0.005,0.006,0.071,0.06,0.073,0.061c0.132,0.055,0.242,0.15,0.31,0.269c0.066,0.062,0.129,0.14,0.175,0.222
			c0.005,0.007,0.01,0.013,0.015,0.02c0.056,0.004,0.118,0.013,0.165,0.028c0.001,0,0.002,0.001,0.003,0.001
			c0.074,0.01,0.151,0.029,0.212,0.061c0.039,0.02,0.102,0.057,0.15,0.092c0.148,0.046,0.281,0.142,0.366,0.268
			c0.073,0.065,0.131,0.147,0.166,0.24c0.022,0.016,0.043,0.032,0.061,0.05c0.048,0.047,0.113,0.127,0.143,0.187
			c0.004,0.008,0.008,0.017,0.013,0.026c0,0,0.02,0.017,0.024,0.021c0.035,0.019,0.07,0.038,0.101,0.059h0.278l0.229-0.023
			l0.061-0.001c0.072-0.062,0.151-0.113,0.224-0.135c0.028-0.066,0.067-0.127,0.115-0.177c0.097-0.115,0.234-0.203,0.378-0.226
			c0.039-0.006,0.126-0.009,0.13-0.009c0.067-0.048,0.146-0.086,0.225-0.107c0.037-0.015,0.075-0.026,0.112-0.034
			c0.005-0.012,0.011-0.023,0.017-0.035c0.029-0.099,0.079-0.193,0.147-0.263c0.001,0,0.104-0.104,0.105-0.105
			c0.048-0.048,0.104-0.088,0.165-0.116c0.054-0.076,0.123-0.14,0.203-0.179c0.093-0.046,0.2-0.069,0.306-0.069
			c0.191,0,0.382,0.074,0.494,0.223l0.232,0.31c0,0,0.12,0.111,0.125,0.116l0.17,0.17c0.042,0.03,0.093,0.068,0.11,0.085
			l0.154,0.153c0.017,0.01,0.033,0.021,0.049,0.032c0.042-0.032,0.087-0.06,0.136-0.08c0.04-0.027,0.083-0.049,0.129-0.064
			c0.032-0.012,0.142-0.046,0.175-0.052l0.083-0.013l0.113-0.049l0.355-0.104l0.125-0.031l0.31-0.04
			c0.022-0.002,0.097-0.004,0.119-0.004l0.058-0.018l0.239-0.048c0.053-0.026,0.089-0.046,0.147-0.056l0.155-0.025
			c0.033-0.005,0.065-0.008,0.098-0.008c0.085,0,0.17,0.019,0.248,0.054c0.022-0.011,0.041-0.019,0.049-0.021l0.086-0.057
			c-0.115-0.197-0.109-0.444,0.02-0.638l0.086-0.129c0.01-0.077,0.029-0.162,0.057-0.219c0.029-0.058,0.092-0.161,0.137-0.207
			c0.123-0.123,0.302-0.198,0.477-0.198c0.001,0,0.003-0.006,0.003-0.006c0.061,0,0.128,0.01,0.194,0.027
			c0.154,0.009,0.337,0.071,0.442,0.177l0.116,0.116c0.042,0.03,0.093,0.068,0.11,0.085c0.011,0.011,0.022,0.022,0.033,0.035
			c0.056,0.021,0.109,0.049,0.154,0.081c0.024-0.014,0.489-0.251,0.489-0.251c0.048-0.047,0.076-0.068,0.123-0.088
			c0.053-0.049,0.119-0.092,0.189-0.124c0.022-0.017,0.047-0.031,0.072-0.044l0.163-0.082l0.06-0.044
			c0.038-0.038,0.067-0.066,0.113-0.093l0.132-0.075c0.067-0.055,0.15-0.109,0.213-0.13l0.033,0.068
			c0.036-0.036,0.076-0.067,0.119-0.093l-0.005-0.024c0.038-0.014,0.076-0.022,0.116-0.027c0.058-0.021,0.119-0.031,0.183-0.031
			l0.002,0.009c0.063-0.021,0.13-0.033,0.194-0.033c0.022,0,0.045,0.002,0.067,0.005c0.189,0.026,0.381,0.115,0.472,0.283
			l0.055,0.101l0.095-0.043c0.008-0.005,0.198-0.131,0.209-0.138c0.056-0.079,0.128-0.146,0.215-0.185
			c-0.006-0.077,0.004-0.156,0.029-0.232c0-0.001,0-0.003-0.001-0.005c-0.065-0.272,0.053-0.553,0.303-0.679l0.155-0.078l0.14-0.061
			c-0.049-0.06-0.086-0.13-0.11-0.204l-0.092-0.298c-0.097-0.234-0.086-0.543,0.083-0.716c0.039-0.04,0.093-0.083,0.149-0.118
			c0.005-0.009,0.011-0.018,0.016-0.026c0.003-0.045,0.008-0.094,0.016-0.122l0.052-0.206c0.025-0.099,0.073-0.187,0.138-0.258
			c0.022-0.04,0.048-0.076,0.077-0.104c0.01-0.01,0.023-0.021,0.038-0.035c0.011-0.059,0.028-0.118,0.052-0.165
			c0.007-0.015,0.041-0.08,0.049-0.094l0.078-0.129c0.04-0.066,0.091-0.123,0.151-0.168c0.025-0.046,0.055-0.088,0.09-0.124
			l0.04-0.039c0.028-0.091,0.075-0.177,0.138-0.242c0.035-0.077,0.086-0.164,0.136-0.214l0.156-0.155
			c0.063-0.062,0.141-0.112,0.225-0.147c0.011-0.01,0.024-0.021,0.037-0.032c0.021-0.04,0.045-0.075,0.072-0.102l0.103-0.104
			c0.04-0.04,0.086-0.076,0.138-0.106c0.014-0.018,0.098-0.104,0.098-0.104c0.043-0.07,0.1-0.132,0.167-0.177
			c0.032-0.032,0.073-0.062,0.115-0.086c0.028-0.027,0.206-0.167,0.206-0.167l0.073-0.079c0.023-0.04,0.051-0.077,0.083-0.108
			c0.015-0.016,0.038-0.036,0.062-0.058c0.012-0.032,0.027-0.061,0.043-0.085c0.009-0.013,0.018-0.025,0.028-0.038
			c0.003-0.008,0.062-0.126,0.062-0.126c0.013-0.026,0.028-0.052,0.045-0.076c0.009-0.027,0.02-0.054,0.033-0.08
			c0.015-0.03,0.076-0.137,0.076-0.137c0.007-0.058,0.018-0.116,0.032-0.153l0.051-0.129c0.02-0.049,0.045-0.095,0.077-0.137
			c-0.01-0.042-0.016-0.086-0.016-0.131v-0.104c0-0.188,0.086-0.371,0.226-0.49c-0.022-0.169,0.022-0.337,0.124-0.464
			c0.024-0.045,0.053-0.085,0.085-0.118c0.051-0.051,0.112-0.094,0.179-0.126c0.055-0.083,0.126-0.152,0.21-0.194
			c0.005-0.002,0.01-0.005,0.015-0.007l0.086-0.086l0.021-0.039c0.047-0.062,0.105-0.115,0.172-0.155
			c0.016-0.014,0.032-0.027,0.049-0.04c0.013-0.019,0.027-0.035,0.042-0.05c0.026-0.026,0.055-0.051,0.087-0.073
			c-0.019-0.061-0.031-0.123-0.031-0.172c0-0.15,0.056-0.318,0.157-0.431c0.014-0.02,0.03-0.04,0.046-0.059
			c0.031-0.053,0.071-0.112,0.103-0.143l0.078-0.078c0.024-0.024,0.05-0.046,0.078-0.066c0.005-0.012,0.01-0.024,0.016-0.036
			c0.066-0.133,0.189-0.257,0.331-0.326c0.025-0.056,0.059-0.115,0.099-0.169c0.003-0.007,0.038-0.074,0.057-0.104
			c0.021-0.049,0.048-0.095,0.08-0.135c0.021-0.039,0.046-0.074,0.075-0.105c-0.058-0.121-0.078-0.265-0.056-0.399
			c-0.001-0.015-0.002-0.028-0.002-0.041c0-0.063,0.01-0.153,0.03-0.213c0.03-0.092,0.107-0.253,0.176-0.321
			c0.011-0.011,0.023-0.022,0.036-0.033c0.004-0.04,0.012-0.079,0.023-0.117c-0.001-0.065,0.005-0.128,0.024-0.182l0.031-0.129
			c0.008-0.043,0.021-0.084,0.038-0.123c0.01-0.039,0.023-0.076,0.042-0.112c0.009-0.017,0.033-0.062,0.036-0.068l0.078-0.181
			c0.065-0.151,0.188-0.269,0.343-0.326c0.068-0.025,0.14-0.038,0.211-0.038c0.09,0,0.18,0.02,0.262,0.06l0.697,0.336l0.04,0.01
			c0.057,0.015,0.111,0.037,0.162,0.067c0,0,0.159,0.096,0.173,0.106c0.103,0.059,0.189,0.144,0.241,0.249
			c0.008,0.017,0.017,0.037,0.025,0.058c0.04,0.042,0.074,0.091,0.101,0.144l0.207,0.416c0.023,0.046,0.04,0.096,0.051,0.147
			l0.053,0.132l0.733,0.277l0.208,0.069c0.018-0.018,0.098-0.093,0.102-0.098l0.077-0.104c0.029-0.04,0.063-0.075,0.101-0.105
			c0.027-0.045,0.059-0.089,0.085-0.115c0.025-0.025,0.056-0.051,0.088-0.075c0.002-0.029,0.006-0.057,0.013-0.084l0.052-0.207
			c0.021-0.083,0.059-0.16,0.11-0.225c0.014-0.032,0.03-0.063,0.05-0.092c0.017-0.032,0.049-0.084,0.082-0.132
			c0.026-0.084,0.071-0.162,0.132-0.227c0.002-0.005,0.038-0.074,0.06-0.108c0.007-0.048,0.017-0.097,0.03-0.144
			c0.008-0.063,0.024-0.125,0.052-0.183l0.001-0.004c0.019-0.07,0.049-0.136,0.089-0.195c0.009-0.026,0.02-0.052,0.031-0.077
			c0.015-0.029,0.031-0.057,0.05-0.084c0.008-0.024,0.018-0.048,0.027-0.07c0.029-0.089,0.076-0.172,0.138-0.235
			c0.047-0.048,0.115-0.101,0.189-0.146c0.002-0.062,0.013-0.137,0.03-0.191l0.031-0.092c0.01-0.069,0.027-0.14,0.052-0.189
			c0.001-0.003,0.054-0.109,0.056-0.112c0.009-0.029,0.037-0.101,0.052-0.128c0.02-0.063,0.047-0.123,0.081-0.167l0.041-0.054
			c-0.003-0.09,0.015-0.18,0.055-0.261c0.028-0.06,0.093-0.166,0.14-0.212c0.002-0.001,0.081-0.081,0.082-0.082
			c0.029-0.028,0.061-0.054,0.095-0.075c0.029-0.075,0.073-0.143,0.13-0.201c0.011-0.011,0.021-0.021,0.033-0.032
			c0.006-0.01,0.011-0.021,0.017-0.031c0.015-0.051,0.035-0.1,0.062-0.144c0.012-0.02,0.024-0.038,0.038-0.056
			c0.065-0.109,0.164-0.198,0.284-0.248c0.079-0.032,0.162-0.048,0.243-0.048c0.154,0,0.304,0.057,0.416,0.171l0.553,0.489
			c0.017-0.032,0.035-0.063,0.058-0.092l0.029-0.04c0,0,0.057-0.148,0.083-0.206c0.01-0.037,0.022-0.071,0.037-0.102l0.077-0.155
			c0.022-0.045,0.052-0.088,0.085-0.126c0.028-0.063,0.065-0.121,0.109-0.165c0.027-0.026,0.082-0.075,0.113-0.096
			c0.017-0.011,0.078-0.051,0.117-0.075l0.016-0.029c0.019-0.038,0.041-0.073,0.067-0.106l0.103-0.129
			c0.055-0.069,0.123-0.125,0.202-0.164l0.104-0.052c0.063-0.032,0.132-0.052,0.202-0.06c0.054-0.014,0.11-0.021,0.166-0.021
			c0.014,0,0.027,0,0.041,0.001l0.045-0.091c0.054-0.105,0.134-0.189,0.229-0.247c0.003-0.003,0.005-0.006,0.008-0.008
			c0.027-0.027,0.058-0.053,0.091-0.077c0.092-0.083,0.207-0.139,0.334-0.152c-0.003-0.159,0.043-0.315,0.147-0.42l0.064-0.064
			c0.006-0.011,0.012-0.021,0.016-0.026c0.035-0.052,0.082-0.104,0.136-0.153c0.048-0.066,0.105-0.131,0.159-0.167
			c0.003-0.002,0.007-0.005,0.013-0.008c0.025-0.056,0.06-0.106,0.103-0.149c0.002-0.001,0.109-0.107,0.123-0.119
			c0.039-0.066,0.089-0.125,0.148-0.17l0.104-0.078c0.029-0.022,0.061-0.041,0.093-0.057c0.045-0.022,0.093-0.04,0.144-0.052
			c0.017-0.043,0.054-0.118,0.054-0.118c-0.069-0.104-0.118-0.232-0.118-0.35c0-0.16,0.063-0.339,0.177-0.452
			c0.012-0.011,0.023-0.022,0.036-0.033c-0.021-0.059-0.032-0.121-0.032-0.186c0-0.09,0.021-0.203,0.06-0.286
			c0.029-0.093,0.078-0.18,0.144-0.245l0.047-0.046c0.022-0.038,0.049-0.073,0.078-0.104c0.003-0.003,0.007-0.006,0.01-0.01
			c0.03-0.078,0.071-0.15,0.124-0.203l0.08-0.079c-0.032-0.073-0.051-0.15-0.051-0.229c0-0.119,0.027-0.236,0.083-0.335
			c-0.058-0.161-0.066-0.367,0.004-0.512c0.012-0.022,0.027-0.051,0.045-0.08c-0.001-0.062,0.006-0.123,0.021-0.181
			c-0.026-0.12-0.017-0.246,0.038-0.359c0.081-0.164,0.243-0.308,0.421-0.348c0.057-0.013,0.116-0.021,0.175-0.021
			c0.125,0,0.247,0.032,0.345,0.108l0.361,0.284l0.2,0.17l0.049,0.02l0.154,0.112l0.354,0.321l0.495,0.421l0.144,0.139l0.041,0.024
			c0.023,0.018,0.124,0.089,0.145,0.11l0.488,0.391l0.446,0.367l0.219,0.17l0.187,0.18l0.466,0.368l0.317,0.261
			c0.009-0.023,0.018-0.045,0.029-0.067c0.022-0.074,0.056-0.146,0.099-0.204c0.019-0.057,0.044-0.112,0.077-0.163
			c0.008-0.063,0.024-0.127,0.049-0.187c0.018-0.058,0.044-0.113,0.076-0.163c0.005-0.011,0.009-0.021,0.014-0.03l0.006,0.002
			c0.001-0.001,0.031-0.111,0.037-0.129l0.011,0.002c0.022-0.047,0.051-0.091,0.083-0.129l-0.044-0.021l0.138-0.289
			c0.059-0.117,0.152-0.211,0.27-0.27c0.012-0.006,0.034-0.017,0.058-0.027c0.042-0.033,0.089-0.061,0.139-0.082
			c0.079-0.032,0.162-0.048,0.243-0.048c0.016,0,0.145-0.002,0.152-0.002c0.059-0.021,0.116-0.033,0.169-0.033
			c0.094,0,0.237,0.021,0.321,0.063c0.059,0.029,0.123,0.073,0.182,0.125c0.01,0.003,0.021,0.007,0.031,0.01
			c0.044,0.008,0.086,0.02,0.122,0.034c0,0,0.084,0.001,0.104,0.003c0.057-0.019,0.114-0.029,0.169-0.029h0.103
			c0.162,0,0.344,0.065,0.457,0.181c0.1,0.102,0.181,0.256,0.195,0.402c0.025,0.013,0.051,0.027,0.074,0.042
			c0.111,0.015,0.216,0.059,0.303,0.125c0.061,0.032,0.117,0.068,0.151,0.103c0.023,0.024,0.048,0.052,0.07,0.083
			c0,0,0.131,0.094,0.148,0.111c0.118,0.114,0.212,0.296,0.212,0.46c0,0.157-0.061,0.324-0.159,0.456
			c-0.021,0.184-0.119,0.357-0.262,0.467c-0.004,0.003-0.008,0.006-0.012,0.009c0.01,0.009,0.02,0.019,0.029,0.028
			c0.067,0.053,0.123,0.119,0.161,0.195c0.013,0.026,0.043,0.102,0.044,0.104c0.012,0.003,0.111,0.024,0.111,0.024
			c0.04,0,0.132,0.004,0.171,0.012c0,0,0.129,0.024,0.143,0.027c0.039-0.007,0.075-0.013,0.1-0.013h0.155
			c0.125,0,0.276,0.039,0.391,0.109c0.027,0.012,0.054,0.026,0.079,0.042c0.054,0.011,0.104,0.025,0.14,0.043l-0.021,0.054
			c0.024,0.025,0.046,0.052,0.066,0.081l0.053-0.085c0.032,0.016,0.062,0.035,0.091,0.056l0.091,0.067
			c0.129,0.02,0.249,0.08,0.342,0.174c0.045,0.045,0.159,0.175,0.187,0.232c0.047,0.093,0.07,0.201,0.071,0.31h0.086
			c0.04,0,0.132,0.004,0.171,0.012l0.106,0.021c0.134,0.02,0.269,0.08,0.36,0.173c0.019,0.02,0.062,0.066,0.078,0.088
			c0,0,0.206,0.295,0.235,0.338c0.023,0.031,0.046,0.065,0.064,0.1c0.007,0.009,0.033,0.042,0.04,0.05
			c0.22,0.037,0.4,0.193,0.472,0.4c0.02,0.015,0.039,0.031,0.058,0.049c0.087,0.085,0.175,0.225,0.213,0.358
			C62.948,26.966,63,27.097,63,27.097c0.029,0.071,0.044,0.147,0.044,0.224v0.104c0,0.081-0.017,0.159-0.046,0.23
			c0.019,0.092,0.018,0.187-0.006,0.276v0.088c0,0.059-0.009,0.121-0.025,0.181v0.282c0.016,0.053,0.025,0.106,0.025,0.157v0.104
			c0,0.077-0.015,0.17-0.043,0.259c-0.01,0.048-0.025,0.096-0.044,0.135c-0.048,0.096-0.145,0.23-0.234,0.289
			c-0.099,0.065-0.293,0.152-0.411,0.152c0,0-0.031,0.001-0.032,0.002c-0.025,0.018-0.079,0.05-0.079,0.05
			c0.011,0.043,0.018,0.085,0.018,0.12h-0.001c0.018,0.164-0.019,0.342-0.117,0.465c-0.118,0.149-0.288,0.266-0.475,0.266
			c-0.008,0-0.016,0-0.023-0.001c-0.066,0.053-0.145,0.092-0.228,0.113c0,0-0.212,0.059-0.28,0.075
			c-0.015,0.028-0.031,0.055-0.049,0.081c-0.005,0.114-0.041,0.226-0.11,0.319l-0.052,0.069l-0.02,0.099
			c-0.011,0.056-0.029,0.109-0.056,0.16c-0.011,0.021-0.025,0.048-0.043,0.076c-0.025,0.058-0.06,0.112-0.1,0.158
			c-0.007,0.013-0.011,0.021-0.012,0.022c-0.025,0.05-0.057,0.095-0.094,0.135c-0.006,0.013-0.013,0.026-0.02,0.039
			c-0.011,0.041-0.024,0.079-0.042,0.112l-0.024,0.058l-0.001,0.013l0.01,0.029l0.049,0.25c0.002,0.012,0.003,0.032,0.005,0.054
			l0.024,0.085c0.018,0.052,0.031,0.108,0.04,0.165c0.025,0.03,0.048,0.059,0.06,0.078l0.069,0.115l0.125-0.042
			c0.034-0.011,0.07-0.02,0.105-0.025l0.103-0.015l0.081-0.101c0.115-0.143,0.288-0.226,0.471-0.226h0.202
			c0.029-0.042,0.097-0.137,0.124-0.163c0.065-0.064,0.171-0.139,0.258-0.167c0.072-0.024,0.157-0.038,0.243-0.038
			c0.169,0,0.344,0.049,0.451,0.156l0.085,0.084c0.076,0.049,0.141,0.113,0.188,0.188l0.038,0.038
			c0.142,0.142,0.204,0.346,0.165,0.543l-0.015,0.077c-0.001,0.039-0.003,0.083-0.006,0.1l-0.026,0.181l-0.027,0.145
			c0.074,0.028,0.142,0.066,0.189,0.112c0.002,0.003,0.146,0.149,0.164,0.174l0.077,0.104c0.054,0.071,0.09,0.153,0.107,0.239
			l0.021,0.052c0.02,0.048,0.032,0.099,0.039,0.15c0.02,0.007,0.04,0.016,0.059,0.025c0.059,0.029,0.164,0.094,0.21,0.14
			l0.094,0.095c0.024,0.015,0.047,0.029,0.061,0.04l0.086,0.069l0.029,0.007h0.029l0.237-0.06c0.048-0.012,0.097-0.018,0.146-0.018
			c0.06,0,0.129,0.009,0.192,0.026h0.04c0.094,0,0.237,0.021,0.321,0.063c0,0,0.136,0.068,0.15,0.078
			c0.008-0.002,0.178-0.03,0.178-0.03c0.033-0.006,0.066-0.008,0.1-0.008c0.099,0,0.195,0.024,0.282,0.07
			c0.044-0.012,0.087-0.019,0.131-0.019h0.104c0.091,0,0.204,0.021,0.287,0.06c0.169,0.054,0.324,0.169,0.393,0.324l0.104,0.232
			c0.021,0.045,0.035,0.093,0.043,0.142c0.013,0.013,0.027,0.026,0.039,0.039l0.193,0.116c0.067,0.041,0.179,0.12,0.226,0.183
			l0.077,0.104c0.021,0.029,0.04,0.059,0.057,0.091l0.077,0.155l0.048,0.132c0.144,0.011,0.279,0.072,0.382,0.175
			c0.062,0.062,0.137,0.163,0.182,0.259c0,0,0.215,0.164,0.23,0.179l0.024,0.025l0.085,0.038c0.027,0.003,0.133,0.027,0.133,0.027
			c0.079,0.009,0.164,0.028,0.222,0.057v0.003c0.098,0.021,0.193,0.063,0.27,0.124l0.086,0.05c0.021,0.009,0.041,0.018,0.062,0.028
			c0.043,0.014,0.084,0.032,0.119,0.054l0.295,0.181c0.087,0.03,0.168,0.077,0.229,0.139l0.174,0.173
			c0.155,0.11,0.262,0.286,0.262,0.485c0,0.05-0.007,0.126-0.019,0.174l-0.061,0.24c-0.001,0.026-0.001,0.051-0.002,0.06
			l-0.025,0.258c-0.011,0.109-0.052,0.214-0.118,0.303l-0.155,0.207c-0.041,0.054-0.09,0.101-0.146,0.139
			c-0.029,0.02-0.066,0.041-0.107,0.062l-0.009,0.161l0.034,0.152c0.017,0.076,0.019,0.155,0.006,0.232l0.021,0.043
			c0.072,0.145,0.084,0.312,0.031,0.465c-0.011,0.031-0.025,0.065-0.043,0.101c0.049,0.052,0.116,0.135,0.141,0.184l0.077,0.154
			c0.042,0.084,0.064,0.176,0.064,0.27c0,0.176-0.076,0.363-0.208,0.48c0.044,0.117,0.056,0.247,0.03,0.367
			c0.009,0.011,0.095,0.139,0.104,0.155l0.155,0.284c0.022,0.041,0.04,0.084,0.052,0.129l0.01,0.02
			c0.022,0.044,0.064,0.143,0.075,0.19l0.074,0.318c0.012,0.048,0.019,0.099,0.019,0.148v0.039c0.009,0.027,0.015,0.054,0.019,0.08
			l0.054,0.4c0.008,0.063,0.006,0.128-0.007,0.189l-0.021,0.109c-0.019,0.128-0.074,0.259-0.161,0.35l0.004,0.002
			c-0.014,0.027-0.028,0.053-0.046,0.077l-0.004,0.024c0.011,0.071,0.01,0.144-0.004,0.214l-0.025,0.129
			c-0.043,0.219-0.203,0.396-0.416,0.461C69.92,45.791,69.86,45.8,69.802,45.8c-0.045,0-0.09-0.005-0.133-0.016
			c-0.002,0.005-0.003,0.01-0.005,0.015c-0.05,0.152-0.146,0.305-0.29,0.376l-0.038,0.02c0.005,0.029,0.007,0.06,0.006,0.09
			c0.109,0.038,0.206,0.106,0.278,0.193c0.051,0.05,0.093,0.108,0.123,0.174c0.039,0.016,0.076,0.035,0.11,0.059
			c0.036,0.024,0.146,0.104,0.176,0.135l-0.001,0.001c0.124,0.082,0.22,0.204,0.256,0.351l0.012,0.048l0.15,0.321
			c0.082,0.168,0.082,0.363,0,0.531l-0.079,0.204l-0.053,0.175c-0.008,0.045-0.02,0.092-0.036,0.136l-0.02,0.121
			c0.013,0.007,0.266,0.174,0.266,0.174c0.024,0.009,0.114,0.051,0.137,0.062l-0.033,0.62l0.188-0.573
			c0.321,0.066,0.626,0.402,0.567,0.725c-0.281,1.537-0.666,3.061-1.145,4.529c-0.08,0.248-0.312,0.417-0.573,0.417l-0.587,0.025
			l-0.854,0.001l-0.198,0.022l-0.86,0.003l-0.513,0.025l-0.938,0.001l-0.033,0.008c-0.047,0.012-0.095,0.018-0.144,0.018h-1.278
			c-0.088,0.064-0.189,0.104-0.297,0.104h-1.373L62.559,54.9c-0.047,0.012-0.095,0.018-0.144,0.018h-0.672
			c-0.039,0-0.078-0.004-0.116-0.012l-0.071-0.014h-0.174l-0.058,0.018l-0.278,0.008h-0.258l-0.375,0.024l-1.924,0.002l-0.956,0.025
			h-1.575c0,0-1.104,0.026-1.11,0.026h-1.473c0,0-0.714,0.025-0.723,0.025h-0.774L51.564,55c-0.049,0.014-0.099,0.021-0.151,0.021
			h-1.928l-0.069,0.014c-0.04,0.008-0.08,0.013-0.121,0.013H45.73z"/>
		<path fill="#FFFFFF" d="M50.405,20.244l0.362,0.284l0.181,0.155l0.129,0.077l0.103,0.078l0.31,0.284l0.207,0.181l0.155,0.129
			l0.155,0.129l0.103,0.103l0.103,0.078l0.077,0.052l0.026,0.026l0.258,0.207l0.258,0.207l0.439,0.362l0.232,0.181l0.129,0.129
			l0.517,0.413l0.155,0.129l0.542,0.439l0.284,0.233l0.052-0.078v-0.052v-0.026v-0.026l0.026-0.052l0.026-0.026l0.026-0.129
			l0.026-0.026h0.026l0.026-0.052v-0.026v-0.052l0.078-0.155v-0.026l-0.026-0.052l0.026-0.026l0.026-0.052v-0.052l0.052-0.052
			l0.052-0.129v-0.026l0.052-0.026l0.052-0.077l0.026-0.155h-0.026v-0.077h0.026v-0.026h0.052V22.62v-0.026v-0.026l0.026-0.052
			l0.026-0.052v-0.026l0.026-0.026v-0.026v-0.026l0.026-0.078l0.026-0.077L55.958,22l0.052-0.026l0.078-0.026l0.026-0.026v-0.026
			l0.026,0.026l0.077-0.026l0.103,0.026h0.026h0.052l0.052-0.052h0.026h0.026l0.052,0.026l0.026,0.052h0.026l0.026,0.026L56.681,22
			l0.052,0.026h0.026h0.026l0.026,0.026h0.026h0.026l0.052,0.026l0.129,0.026h0.103h0.026h0.026v0.026h0.052h0.052l0.052-0.026
			l0.026-0.026h0.077h0.026h0.026l0.026,0.026v0.026v0.077l0.026,0.103l0.026,0.026l0.026,0.052l0.026,0.026l0.052,0.052
			l0.026,0.026v0.026l0.026,0.026l0.052,0.026l0.077,0.026l0.026,0.026h0.026v0.026l0.103,0.052h0.103h0.026v0.026l0.078,0.026
			l0.026,0.026l0.026,0.026v0.026l0.103,0.077l0.077,0.052l0.026,0.026v0.026v0.026v0.026v0.026h-0.026l-0.077,0.078l-0.026,0.052
			l-0.026,0.052v0.103v0.052h-0.026l-0.052,0.052l-0.181,0.052l-0.052,0.026l-0.052,0.103l-0.026,0.103h-0.026l-0.026,0.155
			l-0.026,0.026v0.026v0.077l0.026,0.052v0.052l0.052,0.078v0.026h0.026h0.026l0.103,0.052h0.026l0.052,0.026h0.026l0.052,0.026
			l0.026,0.052h0.026l0.026,0.052v0.026l0.026,0.026v0.026l0.026,0.026l0.026,0.077l0.052,0.077v0.026l0.026,0.026h0.026v0.026
			h0.052h0.078l0.052,0.026h0.026l0.052,0.026h0.052h0.026l0.052,0.026h0.103h0.052l0.129,0.026h0.026h0.026l0.026,0.026h0.078
			l0.077-0.026h0.078h0.077H59.6h0.026l0.026,0.026l0.052,0.026h0.026v0.026h0.026l0.078,0.052h0.026h0.052l0.052,0.026l0.052,0.026
			l0.103,0.077l0.077,0.077l0.078,0.026h0.052h0.026h0.026l0.052,0.052l0.026,0.026l0.026,0.052l-0.026,0.026v0.026L60.4,25.487
			l-0.026,0.103l0.026,0.077l0.026,0.026h0.026l-0.026,0.077l0.129,0.129l0.026-0.052h0.026l0.026,0.026l0.026,0.052l0.026,0.026
			h0.077l0.026,0.026v-0.026l0.052,0.026h0.026l0.052,0.026l0.077-0.026h0.052h0.026h0.077h0.026h0.026l0.129,0.026h0.026
			l0.026,0.026l0.078,0.103l0.052,0.078l0.052,0.077l0.052,0.077l0.026,0.026v0.026l0.052,0.052l0.052,0.052v0.026l0.026,0.026
			v0.052h0.026l0.077,0.078h0.026l0.077,0.026l0.026,0.026h0.026h0.052h0.026v0.026l0.026,0.078l0.026,0.026l0.026,0.103h0.052
			v0.026l0.026,0.026v0.026l0.026,0.026h0.026v-0.026v-0.026l0.026,0.026l0.026,0.026v0.052v0.026l0.026,0.026l0.052,0.129v0.103
			l-0.077,0.026h-0.026l-0.026,0.026v0.052h0.026h0.026l0.026,0.026v0.026v0.103v0.026v0.026l0.026,0.026l-0.026,0.052v0.052v0.026
			v0.026v0.052v0.052v0.026l-0.026,0.026v0.052v0.103v0.052v0.026v0.103v0.077v0.052v0.026v0.026v0.026l0.026,0.026v0.103v0.026
			v0.052l-0.026,0.026v0.026l-0.026,0.052l-0.077,0.052h-0.077h-0.026h-0.052h-0.026L62.027,29l-0.052,0.026l-0.026,0.026h-0.026
			l-0.026,0.026l-0.052,0.052h-0.026h-0.026l-0.052,0.052l-0.052,0.052l-0.052,0.026l-0.077,0.155l-0.026,0.284l0.026,0.052v0.052
			l0.026,0.077l-0.258-0.026l-0.155,0.155l-0.103,0.026l-0.077,0.026l-0.077,0.026h-0.026v-0.078l-0.052-0.103l-0.052-0.052h-0.052
			h-0.052l-0.129-0.026l-0.052,0.052v0.077l0.026,0.103v0.103v0.026v0.103l-0.026,0.103l-0.129,0.078l-0.026,0.026v0.026
			l0.026,0.155l0.026,0.026l-0.155,0.207v0.078l-0.026,0.129l-0.026,0.052l-0.026,0.026v0.026l-0.052,0.052l-0.026,0.052
			l-0.026,0.052h-0.026l-0.026,0.026l-0.052,0.129l-0.026,0.026l-0.026,0.077v0.026l-0.026,0.052l-0.052,0.129l-0.026,0.232
			l0.052,0.155l0.026,0.155v0.052l0.052,0.181l0.026,0.052l-0.026,0.077v0.026l-0.026,0.052l0.103,0.103h0.026l0.052,0.052
			l0.078,0.129v0.103l0.026,0.052l0.052,0.077l0.129,0.052l0.026,0.026h0.129h0.103h0.026h0.026l0.31-0.103l0.181-0.026l0.155-0.026
			l0.077-0.077l0.052-0.078l0.103-0.129h0.258h0.052h0.078h0.077h0.026v-0.026l0.103-0.052l0.026-0.026l0.052-0.103l0.026-0.052
			l0.052-0.078l0.026-0.026l0.078-0.026l0.155,0.155h0.026l0.026,0.052l0.103,0.103l-0.026,0.129v0.078l-0.026,0.181l-0.026,0.129
			l-0.052,0.103l-0.052,0.103l0.052,0.077v0.026l0.207,0.233l0.052,0.052l0.077,0.052h0.077l0.026,0.026l0.026,0.026l0.026,0.026
			v0.026h0.026l0.078,0.103v0.026l0.052,0.129v0.077L63.19,34.58h-0.026v0.026l0.026,0.155l0.077,0.026l0.181,0.103h0.026
			l0.052,0.026h0.103l0.052,0.026l0.077,0.078l0.078,0.078l0.052,0.026l0.129,0.103v0.026l0.181,0.052l0.129,0.026h0.026h0.026
			h0.077h0.026l0.207-0.052l0.103-0.026h0.026l0.052,0.026h0.155h0.052l0.103,0.052l0.052,0.077l0.026,0.026l0.026,0.077
			l0.077,0.052l0.078,0.052l0.155-0.129l0.026-0.078l0.155-0.026l0.181,0.103h0.103h0.103l0.026-0.052h0.103h0.026l0.052,0.026
			h0.052l0.103,0.233l0.026,0.232l0.052,0.026l0.052,0.026l0.052,0.052l0.052,0.052l0.026,0.026l0.258,0.155l0.052,0.026
			l0.077,0.103l0.078,0.155l0.052,0.155l0.026,0.078l0.026,0.103l0.207,0.078l0.026,0.026h0.077l0.026,0.026h0.103l0.052,0.052
			l0.026,0.129l0.258,0.207l0.077,0.052l0.103,0.103l0.232,0.103l0.103,0.026h0.026l0.103,0.026h0.052l0.052,0.026l0.077,0.026
			h0.026l0.026,0.026l0.181,0.103l0.077,0.026l0.026,0.026h0.026l0.336,0.207l0.052,0.026h0.026l0.103,0.103l0.129,0.129h0.026
			v0.026l-0.078,0.31v0.077l-0.026,0.258l-0.155,0.207l-0.077,0.052h-0.052v-0.026v-0.052h-0.026v-0.052h-0.078l-0.052,0.052
			l-0.077,0.077l-0.026,0.207l0.026,0.052v0.026l-0.026,0.439l0.052,0.232l-0.052,0.129l0.078,0.181l0.052,0.103l-0.026,0.078
			l-0.103,0.052h-0.026l-0.026,0.052h-0.026l-0.026,0.052l-0.078,0.129l-0.052,0.103l0.052,0.129l0.233,0.026h0.026v0.026
			l0.129,0.052l0.052,0.052l0.077,0.155v0.052l-0.258-0.077l-0.026-0.026l-0.103,0.052l-0.129,0.026l-0.181,0.052h-0.026
			l-0.052,0.026l-0.052-0.052l-0.129-0.129l-0.078-0.052l-0.077,0.026l-0.413-0.258h-0.026l-0.258-0.155h-0.052h-0.103l-0.026,0.026
			l-0.052,0.207l-0.026,0.026l-0.103,0.026l-0.232-0.258l-0.026-0.052l0.026-0.207l-0.026-0.155l-0.026-0.052l-0.181-0.284
			l-0.155-0.336l-0.077-0.129H66.78l-0.078-0.052l-0.026,0.026l-0.052-0.026l-0.129-0.077l-0.232-0.129l-0.103-0.052l-0.052-0.129
			l-0.207-0.207l-0.129,0.026l-0.078,0.026l-0.067-0.067l-0.369,0.085l0.023,0.034l0.103,0.233l0.103,0.103l0.077,0.026h0.258
			l0.052,0.052v0.052v0.026v0.052v0.052l0.026,0.078l0.026,0.052l0.129,0.026l0.233,0.026l0.181,0.052l0.026,0.026l-0.026,0.052
			v0.077l0.129,0.078l0.077,0.103l0.026,0.026l-0.026,0.052v0.077l0.181,0.362v0.052l-0.026,0.052l0.052,0.103l0.026,0.078h0.026
			l0.052,0.077l0.207,0.258l0.026,0.026l0.077,0.026l0.078,0.026h0.181h0.026l0.181-0.026h0.232h0.233l0.129,0.129v0.026
			l0.052,0.077l0.052,0.103l0.026,0.026l0.181,0.052l0.052,0.026h0.232h0.129l0.103,0.026h0.026l0.284,0.103l0.026,0.026
			l-0.052,0.077l-0.052,0.052l-0.026,0.026l-0.155,0.103h-0.026l-0.077-0.026l-0.078,0.026l-0.052,0.129l-0.052,0.078v0.077
			l0.077,0.103l0.207,0.103l0.129-0.026h0.077l0.078-0.129l0.026-0.052h-0.026v-0.052h0.052l0.052,0.026l0.052,0.077l0.155,0.284
			v0.026l0.052,0.103l0.026,0.052l0.052,0.232l0.026,0.103v0.026v0.155l0.026,0.026l0.026,0.181l0.026,0.207l-0.026,0.129v0.026
			l-0.052,0.052l-0.026,0.052l-0.026,0.052h-0.026l-0.026,0.052l-0.052,0.207l-0.026,0.052l0.026,0.155l-0.026,0.129l-0.052-0.052
			l-0.026-0.052l-0.077-0.052l-0.129-0.052h-0.052l-0.026-0.103l-0.077-0.103l-0.026-0.026l-0.129-0.181l-0.077-0.026l-0.078-0.026
			l-0.129-0.052l-0.207-0.129v-0.026l-0.026-0.026l-0.026-0.077v-0.026h-0.026l-0.077-0.026h-0.103l-0.026,0.052v0.129l-0.026,0.052
			l-0.155,0.026L68.2,44.551v0.026l0.103,0.129l0.258,0.258l0.103,0.155l0.078,0.129l0.026,0.155l0.052,0.103l0.103,0.078h0.155
			l0.026,0.052l-0.103,0.052l-0.129,0.026H68.82l-0.103,0.052h-0.232l-0.052,0.103l-0.052,0.026l-0.155,0.026l-0.284,0.026
			l-0.052-0.052h-0.026l-0.103,0.052l-0.026,0.103l-0.052,0.103l0.077,0.078l0.103,0.052l0.129,0.052l0.723-0.103l0.026,0.026
			l-0.026,0.103v0.026l-0.026,0.077v0.052l0.078,0.077l-0.026,0.155l-0.026,0.103l-0.026,0.077l-0.026,0.052l0.052,0.026h0.026
			l0.103,0.026l0.026-0.026l0.026-0.026l0.077-0.052l0.077-0.052l0.078-0.026h0.026v0.026l0.026,0.026h0.026l-0.026,0.026v0.052
			l0.052,0.078l0.052,0.103l0.052,0.026l0.052-0.026v0.026h0.026l0.103,0.026l0.077,0.052l0.026,0.026l0.052,0.052h0.026
			l0.026,0.103l0.129,0.284l0.052,0.103l-0.026,0.052l-0.078,0.207l-0.077,0.258v0.052l-0.026,0.026l-0.052,0.31l-0.026,0.078
			l-0.077,0.026l-0.026-0.026v-0.078l-0.026-0.052h-0.026H69.44l-0.077-0.026h-0.103l-0.052,0.103l-0.077,0.052l-0.155,0.052h-0.026
			l-0.026,0.026l-0.052,0.026l-0.052,0.052l-0.077,0.103l-0.078,0.103L68.639,49.2v0.026l-0.026,0.077l-0.077-0.026L68.458,49.2
			l-0.052-0.052l-0.052-0.052l-0.129-0.207v-0.077h0.026v-0.026v-0.026l-0.077-0.129l-0.077-0.077l-0.129-0.103l-0.103-0.052
			l-0.078-0.077l-0.129-0.078l-0.077-0.026l-0.078-0.077v-0.052v-0.026V47.96h-0.026l-0.052-0.052H67.4l-0.052,0.026l-0.103,0.052
			h-0.103l-0.026-0.026l-0.103-0.207l-0.387-0.258l-0.052-0.078l0.026-0.181l0.052-0.026l0.103-0.181l-0.026-0.077h-0.026
			l-0.052-0.103v-0.052l-0.052-0.155l-0.026-0.077l-0.078-0.077l-0.103-0.103l-0.077-0.052l-0.361-0.026l-0.052,0.026l-0.052,0.026
			l-0.284,0.052L65.54,46.54l-0.052,0.103l-0.026,0.026l-0.077,0.026h-0.077l-0.155-0.181l-0.052-0.026l-0.103,0.026h-0.103v0.052
			v0.052l0.026,0.078l0.026,0.026l0.103,0.078l0.284,0.232l0.077,0.129l0.103,0.052h0.052h0.026l0.129-0.026l0.181-0.31l0.026-0.129
			v-0.129l0.052-0.026l0.155,0.181l0.052,0.103v0.026l-0.026,0.052l-0.026,0.103v0.181v0.026l0.052,0.026l0.026,0.103l0.078,0.233
			l-0.026,0.103v0.052v0.026l-0.077,0.207l-0.026,0.155l0.026,0.103l0.052,0.103l0.026,0.026l0.052,0.052l0.077,0.026h0.31
			l0.258,0.078l0.077,0.077l0.129,0.181l0.026,0.026l0.103,0.052l0.258,0.181v0.026v0.026L67.58,49.2l0.077,0.052l0.129,0.026
			l0.103,0.155l0.052,0.258l0.026,0.155v0.181v0.052l0.026,0.052l0.103,0.103h0.129l0.026-0.052l-0.026-0.052l0.077-0.129
			l0.052-0.052l0.077,0.026l0.232,0.078l0.181-0.026l0.026-0.284h0.284l0.078-0.026l0.026,0.078h0.103h0.052l-0.026-0.233
			l0.026-0.258h0.026l0.078,0.052l0.155-0.129V49.2h0.129l0.078,0.026l0.077,0.026l0.078,0.052l0.155,0.103l0.077,0.052l0.077,0.026
			l0.052,0.026l0.078,0.026l0.077,0.026l0.078,0.026l0.077,0.026l0.085,0.017c-0.279,1.521-0.654,3.007-1.124,4.452h-0.019
			l-0.594,0.026h-0.103h-0.723l-0.258,0.026h-0.465h-0.336l-0.542,0.026h-0.336H65.85h-0.207l-0.103,0.026h-0.052H65.23h-0.232
			h-0.852h-0.181v0.026v0.052v0.026h-0.052h-0.852h-0.542l-0.103,0.026h-0.129h-0.052h-0.026h-0.207h-0.258l-0.129-0.026h-0.052
			h-0.181l-0.155,0.026h-0.181h-0.258l-0.413,0.026h-0.181h-0.542h-0.387h-0.568h-0.207h-0.026l-0.723,0.026h-0.077h-0.026h-0.103
			h-0.439h-0.258h-0.646h-0.103h-0.129h-0.026l-0.956,0.026h-0.052h-0.077h-0.052h-0.103h-1.317h-0.077l-0.568,0.026h-0.077h-0.129
			h-0.052h-0.594l-0.362-0.026h-0.103v0.026h-0.181h-0.439h-0.103h-0.568h-0.491h-0.052h-0.155l-0.129,0.026h-0.052h-0.052h-0.258
			h-0.207h-0.026h-0.052h-0.542h-0.077h-0.155h-0.052H47.59h-0.026h-0.077h-0.077h-0.594h-0.233h-0.077h-0.077h-0.103h-0.103h-0.491
			l-0.232-0.026h-0.284h-0.103h-0.026h-0.026h-0.207h-0.207H44.62h-0.052h-0.077h-0.723h-0.646h-0.129h-0.465h-0.181h-0.026h-0.026
			h-0.052h-0.31h-0.129h-0.749h-0.181l-0.258-0.026h-0.103h-0.362H40.1H39.92h-0.026h-0.026H39.61h-0.129h-0.078h-0.026h-0.775
			h-0.026l-0.207-0.026h-0.362h-0.465h-0.155h-0.026l-0.336-0.026h-0.052h-0.052h-0.258h-0.181h-0.103h-0.026h-0.232l-0.207-0.026
			l-0.103,0.026h-0.052H35.71l-0.078-0.026h-0.465h-0.181h-0.052h-0.336h-0.232h-0.129l-0.284-0.026h-0.052h-0.181h-0.465H33.23
			l-0.077-0.026h-0.026H33.05h-0.31h-0.026l-0.62-0.026h-0.026h-0.232l-0.155-0.026h-0.103l-0.284-0.026h-0.052l-0.439-0.026
			l-0.026-0.026h-0.052l-0.387-0.026l-0.31-0.026H29.77l-0.181-0.026h-0.052l-0.181-0.026h-0.258l-0.129-0.026h-0.078h-0.181
			l-0.103-0.026H28.53l-0.232-0.026h-0.026H28.22h-0.232h-0.155h-0.258h-0.181h-0.026h-0.052H27.29h-0.026H27.11H26.98h-0.026
			l-0.568-0.052h-0.026l-0.387-0.026h-0.026h-0.31h-0.052l-0.181-0.026h-0.077l-0.439-0.052h-0.026h-0.077h-0.129l-0.181-0.026
			h-0.078h-0.129l-0.103-0.026h-0.026h-0.052h-0.052H24.01h-0.026l-0.155-0.026h-0.052l-0.232-0.026H23.52H23.39h-0.026H23.08
			l-0.077-0.026h-0.026h-0.103l-0.336-0.026h-0.155h-0.284l-0.207-0.026l-0.62-0.026h-0.026v-0.026h-0.129l-0.181-0.026h-0.103
			h-0.077H20.73l-0.207-0.026l-0.129-0.026l-0.62-0.078l-0.723-0.026l0.31-0.284l-0.852-0.026H18.38h-0.052h-0.026l-0.103-0.026
			l-0.542-0.026l-0.387-0.026l-0.491-0.026h-0.026L16.65,53.23l-0.801-0.052h-0.336l-0.284-0.026h-0.103h-0.077h-0.232l-0.181-0.026
			h-0.026h-0.077h-0.026h-0.052h-0.077h-0.026h-0.026h-0.077h-0.026v-0.026h-0.077h-0.078h-0.026h-0.103h-0.026h-0.026h-0.077
			l-0.077-0.026H13.55h-0.103H13.24h-0.026l-0.181-0.026h-0.646h-0.052l-0.155-0.026h-0.078h-0.465h-0.026l-0.103-0.026h-0.052
			h-0.026h-0.052l-0.232-0.026H10.89h-0.052h-0.052h-0.052h-0.103h-0.155h-0.052H10.27l-0.207-0.026H9.883H9.857H9.625L9.547,52.92
			H9.47H9.418H9.237l-0.568-0.026l-0.465-0.026l-0.542-0.026l-0.413-0.026H6.964l-0.232-0.026l-0.387-0.026H6.319l-0.672-0.026
			L4.95,52.713l-0.336-0.026H4.485l-0.232-0.026H4.149L3.994,52.61H3.917L3.71,52.584H3.323l-0.258-0.026h-0.17
			c-0.077-0.278-0.152-0.556-0.222-0.837l0.031-0.016h0.026l0.052-0.026l0.129-0.052h0.026v-0.026l0.052-0.078h0.026l0.181-0.077
			h0.052h0.026h0.026l0.026-0.026h0.026l0.026-0.026l0.052-0.026h0.026l0.232-0.052v-0.026H3.71h0.026l0.026-0.026h0.026h0.026
			h0.103l0.052-0.026h0.026l0.077-0.026h0.026h0.026h0.026l0.052-0.026l0.052-0.026h0.026l0.077-0.026l0.077-0.026h0.026h0.052
			h0.026l0.077-0.026l0.181-0.077h0.026h0.026h0.052h0.129h0.078h0.052l0.052-0.026h0.103h0.078h0.026v-0.052l0.052-0.026h0.026
			v-0.078v-0.026v-0.026h0.026L5.467,50.75l-0.026-0.026h0.026v-0.026l0.026-0.026v-0.077l-0.026-0.026v-0.026l0.026-0.052h0.052
			l0.052-0.052l0.052-0.077l0.026-0.026l0.026-0.026l0.052-0.052l0.052-0.078v-0.026v-0.077v-0.026l-0.026-0.026v-0.026v-0.026
			h0.026l0.077-0.026v-0.026h0.026l0.026-0.026l0.052-0.026h0.052l0.026-0.052l-0.026-0.078l0.026-0.026h0.026l0.026,0.026h0.026
			l0.052-0.026l0.052,0.026h0.052h0.026l0.026-0.026H6.5l0.026,0.052l0.026,0.026l0.077,0.026h0.026H6.68l0.026-0.052l0.052-0.052
			l0.103-0.026h0.077H6.99l0.026,0.026l0.052-0.026h0.026l0.026-0.026l0.077-0.026h0.026l0.129-0.026l0.129-0.052h0.103H7.61h0.026
			v-0.026V49.51v-0.026h0.077l0.026-0.026h0.052l0.026-0.052h0.026h0.052v-0.026l0.026-0.026v-0.026v-0.026h0.052l0.026-0.052
			l-0.026-0.026L7.92,49.174l0.026-0.026l0.026-0.026l0.052-0.052l0.026-0.052h0.026v-0.026h0.026l0.026-0.052V48.89l-0.026-0.052
			v-0.026v-0.052v-0.026l0.026-0.026l0.026-0.052H8.127l-0.026-0.026v-0.026H8.075l-0.026-0.078l-0.026-0.026l0.026-0.077v-0.026
			v-0.026h0.026v-0.026h0.026l0.026,0.026h0.026v-0.026l0.026-0.026l0.026-0.026H8.23h0.052l0.026-0.026h0.026l0.026-0.026
			l0.026-0.026l0.026-0.026l0.026-0.052l-0.026-0.026l0.026-0.026v-0.026l0.026-0.026l0.026,0.026h0.026H8.54l0.026-0.026
			l0.026,0.026l0.103-0.026l0.026-0.026l0.026,0.026v0.026h0.026h0.026l0.026-0.026H8.85h0.026l0.026-0.052l0.026-0.026h0.026h0.026
			l0.052-0.052v-0.026l0.077-0.052l0.052,0.026l0.026,0.026l0.026-0.026l0.026-0.052l0.026-0.129V47.65h0.078h0.026l0.052,0.026
			h0.026V47.65v-0.026v-0.078l0.026-0.052l-0.026-0.052v-0.052l-0.026-0.077l0.026-0.026H9.47h0.052v-0.026v-0.026l-0.026-0.026
			L9.47,47.185v-0.103l0.026-0.026v-0.078v-0.052L9.444,46.85v-0.026H9.47l0.026-0.052l0.052-0.026l0.052-0.026h0.026l0.129-0.077
			l0.026-0.026l0.078-0.026h0.052l0.026,0.026l0.026-0.026l0.026-0.026l0.026-0.026l0.052-0.026h0.052l0.026-0.078h0.026
			l0.077-0.026h0.103v-0.026l0.077-0.078l0.052-0.052h0.026l0.077-0.052l0.052-0.026l0.052-0.026h0.026l0.026-0.026v-0.026v-0.026
			l0.052-0.026h0.026l0.052-0.026h0.026l0.103-0.078l0.078-0.052l0.052-0.026l0.026-0.026l0.052,0.026l0.026-0.026h0.052
			l0.026-0.026h0.026V45.79v-0.026h0.026l0.052-0.026l0.026,0.026l0.077-0.052h0.026l0.026-0.026v-0.026l0.077-0.052h0.026v0.026
			h0.026h0.026l0.026-0.026v-0.026l0.026-0.026h0.026l0.052-0.026h0.052l0.077-0.026V45.48l0.052,0.026l0.052-0.052l0.026-0.026
			h0.026l0.103-0.026h0.052l0.129-0.052l0.232-0.052l0.026-0.026h0.052h0.026h0.026h0.026l0.103-0.052h0.103l0.026-0.026
			l0.103-0.077v-0.077l0.052,0.026l0.052-0.026l0.052-0.026l0.052-0.052l0.026-0.026v-0.026l0.026-0.026l0.052-0.052l0.026-0.026
			l0.052-0.026l0.103-0.077l0.052-0.052l0.31-0.233l0.336-0.284l0.155-0.129l0.465-0.362l0.052-0.052l0.077-0.052l0.052-0.052
			l0.052-0.026l0.052-0.052l0.103-0.103h0.026l0.31-0.258l0.155-0.129l0.129-0.103l0.775-0.646v0.052h0.077h0.026v0.052v0.026h0.026
			l0.078-0.052l0.026,0.026l-0.026,0.026v0.026v0.026l0.026,0.026v0.026l-0.026,0.026v0.026l0.026,0.026h0.052v-0.026l0.052-0.052
			l0.052,0.052v0.026h-0.026h-0.026l-0.077,0.026l-0.026,0.026l-0.026,0.026l0.026,0.026l-0.026,0.026h-0.026h-0.026h-0.026v0.026
			v0.026v0.026v0.026H16.83l-0.078-0.026l-0.052,0.052l-0.078,0.052h-0.026h-0.052H16.52h-0.026v0.026l-0.052,0.052v0.103
			l0.026,0.103l0.052,0.052v0.026h0.026l0.026-0.026h0.026h0.026l0.078,0.052l-0.026,0.026l0.052,0.026h0.052h0.026l0.026,0.026
			h0.052l0.026,0.077h0.026h0.026l0.026,0.026v0.026v0.026l-0.052,0.052l0.052,0.103l0.026,0.052l0.026,0.026l0.052,0.026v0.052
			h-0.026l-0.026,0.026v0.026v0.052v0.026v0.026l-0.052,0.052l-0.026,0.103v0.026h0.026v0.052l0.026,0.078l0.026,0.026v0.052v0.026
			h0.026l0.026,0.026l0.026,0.026l0.026,0.052h0.026h0.026v0.026l0.026,0.052h0.026l0.026,0.026h0.026v0.026l0.026,0.052v0.026
			v0.026h0.026h0.052h0.026h0.026l0.026-0.026v0.026v0.026l0.052,0.052v0.026l0.026,0.026h0.026l0.077,0.052v0.026l-0.052,0.026
			v0.026l0.026,0.052h0.026l0.026-0.026h0.026v0.077h-0.026l0.026,0.078l-0.026,0.026l0.026,0.052l0.026,0.026h0.026h0.026h0.026
			h0.026h0.026l0.026,0.026h-0.026v0.026l0.103,0.026h0.026h0.026h0.026l0.026-0.026h0.026h0.026l0.026-0.052h0.026l0.077,0.026
			v0.026l0.026-0.026h0.026l0.052,0.026l0.026,0.026V45.3h0.026l0.026,0.026h0.052h0.026h0.026h0.026h0.026v0.026v0.026l0.026,0.026
			l0.026,0.026l0.026,0.026h0.026v0.026v0.052l0.026,0.026l0.026,0.026l-0.026,0.052v0.026l-0.026,0.026v0.026l0.052,0.026v0.026
			h0.052l0.052-0.026h0.026h0.026l0.026,0.026l0.026,0.052v0.052l0.155,0.129l0.052,0.052l0.078,0.026l0.026,0.026v0.052v0.026
			l0.026,0.026h0.026h0.155h0.232h0.181l0.284-0.026h0.207h0.026h0.026h0.026h0.026l0.026-0.077l0.052-0.078l0.103-0.026
			l0.052-0.026h0.078l0.103-0.078h0.026v-0.078v-0.052l0.026-0.052v-0.026l0.026-0.026l0.026-0.052l0.026,0.026v0.026l0.052,0.026
			h0.077h0.026l0.026-0.052l0.078-0.026h0.026h0.026l0.026-0.026v-0.026v-0.026l0.026-0.026h0.052l0.026-0.026h0.026l0.129-0.026
			l0.052,0.026l0.103-0.026l0.052-0.077l0.026-0.052V45.3l0.052-0.129v-0.026l0.026-0.026h0.026l0.026-0.026v-0.026l-0.026-0.026
			v-0.026l0.052-0.052l0.052-0.052h0.026v0.026h0.026h0.026h0.026h0.026l0.026-0.026v-0.052l0.052-0.026v-0.026l-0.026-0.026h0.026
			v-0.026v-0.026l0.052-0.026l0.232,0.31l0.155,0.155v0.026h0.026l0.207,0.207l0.077,0.052l0.026,0.026l0.077,0.078l0.077,0.077
			l0.052,0.052h0.026l0.103,0.103l0.026,0.026l0.077,0.078l0.077,0.052l0.052-0.026l0.129-0.052h0.026l0.155-0.103l0.026-0.026
			l0.052-0.026v-0.026h0.026l0.078-0.026v-0.026l0.077-0.026l0.155-0.026l0.181-0.078l0.103-0.026l0.181-0.052l0.103-0.026
			l0.232-0.026h0.052l0.155-0.026l0.129-0.026l0.129-0.026l0.077-0.026l0.052-0.026l0.155-0.026v0.026L25.844,45.3v0.026v0.026
			h0.052h0.026h0.052l0.181-0.026l0.103-0.052l0.052-0.026l0.052-0.026l0.077-0.026l0.155-0.103l0.207-0.155l0.103-0.103
			l0.026-0.026l0.155-0.077l-0.052-0.077l-0.103-0.129v-0.026l-0.026-0.026l-0.052-0.077l-0.077-0.103l0.207-0.31v-0.026
			l-0.026-0.026v-0.052l0.026-0.052l0.052-0.052v0.026h0.052l0.026,0.026l0.026,0.026h0.026l0.026-0.026h0.026h0.026l0.052,0.052
			l0.103,0.103l0.078,0.052l0.026,0.026v0.026v0.026v0.026v0.026h0.052v0.026h0.026h0.052h0.026h0.052l0.026,0.026v0.026v0.026
			l0.052,0.052l0.052,0.155l0.103-0.026l0.103-0.078h0.026l0.077-0.026l0.052-0.026l0.078-0.026h0.026l0.026-0.026h0.026h0.026
			v-0.026h0.026l0.052-0.026l0.026-0.026l0.103-0.052l0.052-0.026l0.207-0.103l0.078-0.052l0.026-0.026l0.078-0.026l0.077-0.052
			v-0.026l0.026-0.026h0.026l0.052-0.026h0.026V43.75l0.052-0.026l0.155-0.077l0.103-0.078l0.052-0.052l0.181-0.103l0.052-0.052
			l0.077-0.026l0.077-0.026h0.026h0.077v-0.026h0.052h0.026h0.077l0.026-0.026l0.026-0.026l0.155,0.284l-0.026,0.129l-0.026,0.026
			l0.026,0.129l0.181,0.129l0.103-0.026l0.077-0.077l0.052-0.026l0.078-0.026l0.155-0.155l0.232-0.103l0.026-0.026l0.155-0.103
			h0.052l0.052-0.026l0.026-0.026l0.052-0.052l-0.026-0.052l0.207-0.078l0.129-0.026l0.026-0.026l0.078-0.026l0.052-0.026
			l0.052-0.026l0.078-0.052l0.181-0.284l-0.103-0.052l-0.155,0.103l-0.181-0.103l0.026-0.052h0.026h0.026l0.052-0.026l0.026-0.026
			l-0.129-0.233h-0.026l0.155-0.077l0.181-0.077l0.103-0.078l0.052-0.026l0.026-0.026h0.052l0.026-0.026h0.026l0.052-0.026
			l0.077-0.078l0.103-0.052l0.129-0.155l0.026-0.052l0.026-0.052h-0.026l-0.155-0.103l-0.129-0.077l-0.078-0.026h-0.026h-0.026
			l-0.026-0.052l-0.077-0.078l-0.103-0.336l-0.052-0.077l0.026-0.026l0.077-0.026l0.103-0.129l0.026-0.052l0.077-0.078l0.052-0.026
			l0.052-0.052v-0.026v-0.026l-0.077-0.052v-0.052l0.052-0.207h0.026h0.026V40.03v-0.026l0.052-0.052l0.052-0.026l0.078-0.078
			l0.026-0.026h0.026h0.052l0.026,0.026h0.026v-0.052l-0.026-0.026H33.05l-0.026-0.052l-0.026-0.052h-0.026v-0.026l0.026-0.052
			l0.077-0.129h0.026l0.052-0.026l0.052-0.052v-0.026l0.026-0.052v-0.026l0.026-0.026l0.026-0.026l0.026-0.026l0.026-0.026
			l0.052-0.026l0.052-0.026l-0.026-0.103v-0.026l0.026-0.026l0.052-0.026v-0.026l0.026-0.052l0.026-0.078l0.078-0.078l0.078-0.077
			l0.026-0.026l0.026-0.026l0.026,0.026h0.026l0.103-0.077v-0.026l0.026-0.026l0.052-0.026h0.026h0.026v-0.026v-0.026v-0.026v-0.026
			l0.103-0.103l0.052-0.052l0.052,0.026l0.077-0.129l0.077-0.077l0.052-0.052v-0.026l0.077-0.052l0.026-0.026l0.052-0.026
			l0.026-0.026l0.026-0.052h0.026l0.129-0.103l0.103-0.103l0.103-0.103v-0.026l0.026-0.026l0.026-0.026l0.052-0.026l0.026-0.026
			l0.026-0.052l0.026-0.026v-0.026v-0.026l0.052-0.077h0.026l0.026-0.026l-0.026-0.026l0.052-0.103l0.026-0.026h0.026l0.026-0.026
			v-0.052v-0.026v-0.026l0.026-0.052l0.026-0.026l0.077-0.181v-0.077l0.052-0.129l0.052-0.052l0.052-0.077l0.052-0.026l0.026-0.026
			V36.13l0.026-0.026l0.052-0.052v-0.026l-0.026-0.026h-0.052l-0.026-0.026l-0.026-0.129h-0.026v-0.052v-0.052v-0.026l0.103-0.026
			l0.026-0.052l0.026-0.052l0.026-0.052l0.026-0.026l0.026-0.026l0.052-0.155l-0.026-0.026h-0.026v-0.026l0.026-0.052V35.2
			l-0.023-0.023l-0.028-0.003l0.052-0.026v-0.026v-0.026l0.026-0.026l0.026,0.026l0.052-0.026l0.077-0.052l0.052-0.078v-0.026V34.89
			l0.052-0.026h0.026l0.052-0.052l0.129-0.129l0.078-0.103l0.052-0.026l0.052-0.077h0.026h0.052h0.026v-0.026v-0.026v-0.026
			l0.026-0.026h0.052l0.052,0.026l0.026-0.026l0.026-0.026v-0.026V34.27l0.026-0.026l0.052,0.026l0.052-0.026l0.026-0.052
			l0.078-0.026l0.026-0.052l-0.026-0.103l-0.052-0.103l-0.026-0.026h-0.026h-0.026v-0.052v-0.026l-0.026-0.026l-0.026-0.052v-0.026
			l0.026-0.026l0.026-0.052l0.052-0.026v-0.026l0.026-0.052l0.077-0.078h0.026l0.052-0.026l0.052-0.026l0.052-0.078l0.026-0.103
			v-0.026l0.026-0.052h0.052h0.026l0.103,0.026h0.026l0.052-0.026l0.026-0.026l0.026-0.026h0.026v-0.026V33.03v-0.052v-0.026h-0.026
			h-0.026v-0.026l0.026-0.026v-0.026v-0.026l0.026-0.078l0.052-0.026l0.026-0.052v-0.026l0.026-0.052l0.026-0.026v-0.026
			l0.052-0.052v-0.026l0.026-0.026l0.155-0.181v-0.026l-0.026-0.026v-0.026v-0.026l0.026-0.026L38.06,32.1l0.026-0.052v-0.078
			v-0.026l-0.026-0.052v-0.026l-0.026-0.026l-0.026-0.026l-0.026-0.052h0.026l0.026-0.026v-0.026l0.026-0.026h-0.026l-0.026-0.052
			v-0.026l0.026-0.077l0.026-0.026h0.052l0.026-0.052l0.026-0.026v-0.052v-0.026h0.078l0.026,0.026v-0.026l0.026-0.026l0.026-0.026
			h0.026v-0.052l-0.052-0.052l-0.026-0.052h-0.026l0.052-0.078v-0.052l-0.026-0.052l0.026-0.078l0.026-0.129h0.026l0.026-0.026
			v-0.026l-0.026-0.026l0.026-0.052h0.026v-0.052l0.077-0.181l0.697,0.336l0.052,0.026l0.103,0.026l0.129,0.078l0.026,0.026h0.026
			l0.026,0.052v0.026v0.026l0.103,0.103l0.052,0.103l0.052,0.103l0.103,0.207v0.026l0.103,0.258l0.103,0.207l0.956,0.362
			l0.542,0.181l0.103-0.026l0.026-0.026l0.026-0.026l0.026-0.026h0.026h0.026l0.026,0.026l0.026-0.026l0.026-0.052h-0.026v-0.026
			v-0.026v-0.026l0.077-0.052v-0.026h0.052l0.026-0.026l0.026-0.026v-0.026v-0.026l0.078-0.103l0.052,0.026h0.052v-0.026v-0.103
			l0.026-0.052l0.052-0.052h0.026l0.052-0.026l0.026-0.026l0.026-0.026v-0.026v-0.026v-0.026l0.052-0.026l0.026-0.026l0.026-0.026
			v-0.026v-0.052l0.026-0.026l-0.052-0.052l0.052-0.207l0.052-0.026l0.026-0.103l0.052-0.078l0.026-0.052l0.052-0.052l0.026-0.103
			l0.052-0.052v-0.026h0.026h0.026v-0.026v-0.026v-0.026l0.026-0.052l0.052-0.052l0.026-0.103v-0.026v-0.078l0.052-0.077
			l-0.026-0.026l0.026-0.026l0.026-0.103l0.052-0.052l0.026-0.103l0.026-0.052h0.026v-0.026v-0.026l0.026-0.026v-0.026l0.026-0.052
			v-0.026l0.026-0.026l0.052-0.052h0.026h0.077l0.052,0.052l0.129-0.052V29.62v-0.026l0.026-0.052l0.026-0.052l0.026-0.155V29.31
			h-0.026l-0.026-0.052l-0.026-0.077v-0.026L43.639,29v-0.052l0.026-0.052l0.026-0.052l0.026-0.078l0.026-0.052l0.026-0.026v-0.026
			v-0.026l0.077-0.103l0.026-0.026l0.052-0.026v-0.026v-0.052v-0.052l0.026-0.026h0.026v-0.052v-0.026h-0.026l-0.026-0.026
			l0.026-0.052L44,28.122l0.026-0.026l0.103,0.026h0.052l0.052-0.077v-0.052v-0.026v-0.052l0.026-0.103l0.026-0.026h0.052
			l0.026-0.026l0.026-0.026v-0.026v-0.052l0.026-0.078l0.052-0.026v-0.026l-0.026-0.052h0.026l0.026-0.026v-0.026l0.026,0.026
			l0.878,0.775l0.232,0.233l0.052-0.052v-0.052l0.155-0.258l0.129-0.207l0.026-0.026l0.026-0.103l0.077-0.103l0.052-0.129
			l0.026-0.077l0.026-0.077l0.026-0.026v-0.026l0.077-0.155l0.052-0.052l0.026-0.026v-0.052l0.026-0.026l0.078-0.052l0.052-0.026
			l0.129-0.078v-0.026l0.026-0.052l0.052-0.103l0.103-0.129l0.103-0.052h0.026h0.026l0.026-0.026l0.026-0.026l-0.026,0.103
			l-0.026,0.026l0.026,0.026v0.026l-0.026,0.129l0.026,0.026v0.026h0.026v-0.026h0.026v-0.026l0.077-0.077h0.052l0.078-0.077v-0.026
			h0.026l0.052-0.026v0.026l0.052-0.052l0.052-0.052l0.026-0.078l0.026-0.026l0.026-0.052h0.026l0.026-0.078l0.026-0.077
			l0.052-0.103l0.077,0.026l0.052-0.103v-0.026l0.026-0.026h0.026v-0.026h0.026h0.052v0.052v0.052l0.052-0.026h0.026l0.026,0.077
			l0.052,0.052v-0.026l0.026-0.026l0.026-0.026h0.026l0.052-0.078l0.052-0.078v-0.052l0.026-0.026l0.078-0.103v-0.026h0.026
			l0.052-0.077l0.026-0.026l0.052-0.052h0.026v-0.026l-0.052-0.052l-0.026-0.026l-0.026-0.026h-0.026l-0.052-0.077l0.103-0.103
			l0.026-0.026l0.026-0.052l0.052-0.078h0.026l0.026-0.026l0.026-0.052l0.078-0.052l0.052-0.026l0.026-0.026l0.052-0.077
			l0.026-0.026l-0.026-0.026l0.052-0.052l0.026-0.026l0.052-0.026l0.078-0.103v-0.026l0.103-0.077l0.052-0.026l0.026,0.026h0.026
			l0.026-0.026l0.026-0.026h0.052l0.207-0.232v-0.026l0.026-0.078l0.077-0.129l0.129-0.077v-0.026l0.026-0.026l0.052-0.052
			l-0.026-0.026l-0.052-0.026l-0.129-0.129l-0.026-0.052l0.052-0.052v-0.026l-0.052-0.026h-0.052l-0.026-0.026v-0.026l0.052-0.052
			h0.026v-0.026l0.026-0.026l0.026-0.026l0.052-0.078l0.129-0.155v-0.077v-0.026l0.052-0.052l-0.103-0.078l-0.052-0.052H49.76
			v-0.026l0.026-0.052v-0.026l0.129-0.129v-0.026l0.026-0.026l0.052-0.026v-0.026h0.026V22.31l0.026-0.026v-0.026v-0.026
			l0.103-0.103l0.026-0.026l0.052-0.052l0.026-0.078h0.026h0.026v-0.026l0.103-0.232l0.026-0.026h-0.026v-0.026l0.026-0.026h0.026
			l0.026-0.026v-0.026l-0.026-0.026l-0.077-0.026l-0.052-0.026h-0.052l-0.052-0.026l0.052-0.026l0.052-0.103l0.103-0.207
			l-0.052-0.052v-0.052l-0.077-0.077l-0.026-0.052l0.026-0.052l0.026-0.026l0.052-0.078l0.026-0.026v-0.052v-0.026l-0.052-0.077
			l0.052-0.052v-0.026v-0.026V20.45v-0.026v-0.026l0.026-0.078l-0.052-0.026L50.405,20.244 M50.405,19.037
			c-0.088,0-0.176,0.01-0.263,0.029c-0.354,0.079-0.653,0.313-0.815,0.637l-0.026,0.052c-0.09,0.18-0.133,0.377-0.127,0.574
			c-0.011,0.05-0.018,0.1-0.022,0.15c-0.076,0.197-0.099,0.408-0.068,0.614c-0.042,0.124-0.065,0.256-0.065,0.391
			c0,0.035,0.002,0.07,0.005,0.105c-0.027,0.043-0.051,0.087-0.072,0.133c0,0-0.001,0.001-0.001,0.001l-0.017,0.017
			c-0.144,0.144-0.248,0.32-0.304,0.512c-0.05,0.134-0.075,0.276-0.075,0.419c0,0.012,0,0.024,0.001,0.035
			c-0.118,0.189-0.181,0.409-0.181,0.636c0,0.054,0.004,0.109,0.011,0.164l-0.045,0.034c-0.103,0.077-0.192,0.17-0.264,0.272
			l-0.071,0.071c-0.054,0.054-0.103,0.113-0.145,0.175c-0.041,0.036-0.08,0.075-0.116,0.116c-0.065,0.061-0.124,0.129-0.174,0.203
			l-0.037,0.056l-0.019,0.019c-0.122,0.122-0.212,0.264-0.272,0.416c-0.023,0.014-0.046,0.029-0.069,0.044
			c-0.071,0.044-0.137,0.095-0.195,0.153c-0.084,0.059-0.161,0.128-0.228,0.208c-0.103,0.026-0.203,0.066-0.296,0.12
			c-0.016,0.007-0.032,0.014-0.047,0.022l-0.103,0.052c-0.156,0.078-0.293,0.189-0.402,0.325l-0.103,0.129
			c-0.022,0.027-0.043,0.056-0.062,0.085l0,0c-0.066,0.044-0.128,0.095-0.184,0.151c-0.081,0.081-0.153,0.176-0.212,0.279
			c-0.02,0.026-0.038,0.053-0.056,0.08c-0.223-0.184-0.506-0.283-0.789-0.283c-0.152,0-0.305,0.029-0.45,0.089
			c-0.141,0.058-0.268,0.14-0.375,0.24c-0.094,0.079-0.175,0.173-0.241,0.279c-0.044,0.071-0.08,0.145-0.109,0.222
			c-0.03,0.04-0.059,0.081-0.086,0.125c-0.019,0.017-0.037,0.034-0.055,0.052l-0.081,0.081c-0.091,0.091-0.167,0.197-0.225,0.313
			l-0.026,0.052c-0.053,0.106-0.089,0.217-0.109,0.33c-0.046,0.076-0.083,0.156-0.111,0.24c-0.019,0.041-0.036,0.084-0.051,0.127
			l-0.014,0.029c-0.055,0.11-0.092,0.228-0.112,0.349l-0.005,0.014c-0.004,0.013-0.008,0.026-0.012,0.039l-0.032,0.032
			c-0.124,0.124-0.226,0.28-0.293,0.448c-0.003,0.007-0.007,0.014-0.01,0.022c-0.01,0.017-0.019,0.035-0.028,0.052l-0.026,0.052
			c-0.012,0.025-0.024,0.051-0.035,0.076c-0.06,0.101-0.105,0.21-0.133,0.324l-0.003,0.014c-0.004,0.01-0.007,0.02-0.01,0.031
			c-0.033,0.075-0.058,0.154-0.074,0.234c-0.057,0.078-0.104,0.162-0.141,0.251c-0.012,0.02-0.023,0.04-0.033,0.06l-0.011,0.016
			c-0.024,0.036-0.046,0.074-0.066,0.113c-0.081,0.118-0.142,0.251-0.177,0.393l-0.031,0.126c-0.03,0.033-0.058,0.068-0.085,0.104
			l-0.283-0.107c-0.012-0.03-0.024-0.058-0.038-0.086l-0.103-0.207l-0.052-0.103l-0.051-0.103c-0.035-0.071-0.078-0.138-0.126-0.2
			l-0.003-0.007c-0.121-0.241-0.316-0.43-0.549-0.545l-0.089-0.054c-0.096-0.058-0.2-0.102-0.308-0.131l-0.642-0.309
			c-0.165-0.079-0.344-0.119-0.523-0.119c-0.143,0-0.287,0.025-0.423,0.077c-0.308,0.116-0.556,0.352-0.685,0.655L37.3,30.07
			c-0.003,0.006-0.006,0.012-0.01,0.019l-0.026,0.052c-0.033,0.067-0.06,0.136-0.08,0.206c-0.021,0.056-0.037,0.114-0.049,0.174
			l-0.011,0.055l-0.002,0.006c-0.025,0.076-0.043,0.154-0.053,0.233c-0.077,0.105-0.142,0.222-0.18,0.336l-0.026,0.077
			c-0.035,0.106-0.056,0.217-0.061,0.328c-0.027,0.14-0.029,0.284-0.005,0.425c-0.009,0.017-0.018,0.034-0.027,0.052
			c-0.029,0.037-0.056,0.076-0.08,0.117c-0.153,0.108-0.281,0.253-0.371,0.425c-0.006,0.005-0.011,0.011-0.017,0.017l-0.077,0.078
			c-0.056,0.056-0.106,0.116-0.149,0.182c-0.056,0.067-0.105,0.14-0.146,0.219c-0.106,0.174-0.174,0.375-0.185,0.573
			c-0.009,0.01-0.019,0.019-0.028,0.029c-0.063,0.055-0.121,0.117-0.172,0.185l-0.007,0.009c-0.099,0.061-0.188,0.136-0.264,0.221
			c-0.058,0.039-0.112,0.083-0.161,0.133c-0.057,0.057-0.109,0.121-0.155,0.189c-0.145,0.177-0.238,0.392-0.266,0.621
			c-0.137,0.197-0.215,0.435-0.215,0.688v0.077v0.052c0,0.001,0,0.002,0,0.002c-0.006,0.013-0.012,0.027-0.017,0.04l-0.052,0.129
			c-0.024,0.059-0.042,0.119-0.056,0.181c-0.002,0.004-0.004,0.008-0.006,0.013l-0.026,0.052c-0.014,0.028-0.026,0.056-0.038,0.084
			c-0.014,0.024-0.028,0.047-0.039,0.07l-0.044,0.088l-0.01,0.014c-0.013,0.02-0.026,0.04-0.038,0.061
			c-0.028,0.033-0.056,0.067-0.082,0.104l-0.014,0.014l-0.044,0.044c-0.089,0.055-0.171,0.121-0.243,0.197
			c-0.116,0.079-0.216,0.175-0.297,0.285c-0.049,0.036-0.096,0.076-0.14,0.12l-0.052,0.052l-0.103,0.103
			c-0.018,0.018-0.036,0.037-0.053,0.056c-0.084,0.048-0.161,0.106-0.23,0.175c0,0-0.052,0.052-0.052,0.052l-0.078,0.077
			l-0.078,0.078c-0.1,0.1-0.181,0.216-0.24,0.343c-0.049,0.069-0.093,0.144-0.128,0.222c-0.017,0.021-0.033,0.043-0.048,0.066
			c-0.09,0.079-0.168,0.171-0.23,0.274l-0.077,0.129c-0.016,0.026-0.03,0.052-0.044,0.08l-0.026,0.052
			c-0.022,0.043-0.04,0.087-0.057,0.132c-0.054,0.065-0.1,0.134-0.139,0.208c-0.07,0.105-0.124,0.222-0.155,0.348l-0.04,0.158
			c-0.001,0.001-0.003,0.003-0.004,0.004c-0.368,0.367-0.476,0.945-0.258,1.406c-0.246,0.194-0.405,0.476-0.447,0.782
			c-0.106-0.049-0.22-0.084-0.338-0.101c-0.057-0.008-0.115-0.012-0.171-0.012c-0.135,0-0.268,0.023-0.394,0.066
			c-0.059,0.009-0.117,0.023-0.173,0.04c-0.043,0.009-0.085,0.02-0.124,0.033l-0.077,0.026l-0.078,0.026
			c-0.144,0.048-0.277,0.123-0.393,0.22L28.99,42.47c-0.078,0.044-0.15,0.097-0.216,0.157l-0.035,0.017l-0.053,0.026
			c-0.03,0.015-0.06,0.032-0.089,0.049c-0.094,0.045-0.182,0.1-0.26,0.167c-0.046,0.027-0.091,0.057-0.134,0.09l-0.073,0.036
			l-0.04-0.04c-0.198-0.197-0.457-0.319-0.732-0.347c-0.112-0.032-0.228-0.048-0.342-0.048c-0.309,0-0.612,0.117-0.839,0.345
			l-0.052,0.052c-0.091,0.092-0.167,0.197-0.225,0.313l-0.026,0.052c-0.043,0.086-0.075,0.177-0.097,0.27l-0.009,0.013
			c-0.087,0.131-0.146,0.274-0.177,0.422l-0.076,0.013c-0.095,0.016-0.187,0.043-0.275,0.08l-0.022,0.004l-0.128,0.025l-0.024,0.004
			c-0.027,0.001-0.054,0.003-0.081,0.006l-0.232,0.026c-0.054,0.006-0.107,0.016-0.16,0.029l-0.103,0.026l-0.219,0.062l-0.066,0.016
			c-0.062,0.016-0.123,0.036-0.182,0.062l-0.047,0.02l-0.012,0.002c-0.061,0.01-0.122,0.025-0.181,0.045l-0.064,0.021
			c-0.008-0.006-0.017-0.013-0.025-0.018l-0.124-0.124c-0.005-0.005-0.01-0.01-0.015-0.015c-0.003-0.003-0.007-0.007-0.01-0.01
			l-0.095-0.095l-0.181-0.242c-0.234-0.312-0.596-0.482-0.966-0.482c-0.181,0-0.365,0.041-0.536,0.126l-0.052,0.026
			c-0.139,0.069-0.261,0.163-0.361,0.275c-0.058,0.039-0.112,0.084-0.161,0.133l-0.052,0.052l-0.053,0.053
			c-0.07,0.07-0.13,0.147-0.18,0.23c-0.025,0.011-0.05,0.022-0.075,0.034c-0.009,0.001-0.018,0.003-0.028,0.004
			c-0.343,0.056-0.653,0.245-0.839,0.533c-0.013,0.007-0.026,0.015-0.039,0.023l-0.079,0.007c-0.024-0.029-0.049-0.056-0.075-0.082
			c-0.013-0.013-0.026-0.025-0.039-0.037c-0.059-0.105-0.133-0.202-0.219-0.285c-0.142-0.181-0.33-0.323-0.545-0.402
			c-0.026-0.017-0.053-0.031-0.078-0.044l-0.052-0.026c-0.089-0.044-0.182-0.078-0.278-0.099c-0.051-0.06-0.108-0.116-0.171-0.165
			c-0.031-0.037-0.064-0.073-0.099-0.106c0-0.008,0-0.016,0-0.024v-0.052c0-0.2-0.049-0.392-0.139-0.563
			c-0.002-0.009-0.004-0.018-0.007-0.027c0.108-0.176,0.172-0.381,0.172-0.599c0-0.32-0.127-0.653-0.354-0.879l-0.023-0.023
			c-0.038-0.055-0.081-0.107-0.129-0.155c-0.143-0.143-0.317-0.247-0.504-0.308c-0.023-0.013-0.047-0.025-0.072-0.037
			c-0.163-0.076-0.338-0.114-0.511-0.114c-0.277,0-0.551,0.095-0.772,0.28l-0.775,0.646l-0.111,0.088l-0.173,0.144l-0.187,0.156
			c-0.084,0.049-0.162,0.108-0.23,0.176l-0.046,0.046c-0.044,0.031-0.085,0.064-0.124,0.1c-0.059,0.041-0.114,0.086-0.164,0.137
			l-0.406,0.316l-0.187,0.155l-0.316,0.267l-0.282,0.211c-0.034,0.026-0.067,0.053-0.099,0.083c-0.083,0.049-0.16,0.108-0.229,0.176
			c-0.043,0.02-0.085,0.042-0.125,0.068c-0.044,0.027-0.086,0.057-0.125,0.089c-0.06,0.015-0.118,0.034-0.174,0.058l-0.051,0.011
			c-0.054,0.012-0.108,0.028-0.16,0.047c-0.018,0.004-0.035,0.008-0.053,0.012l-0.059,0.015c-0.085,0.017-0.169,0.043-0.249,0.076
			c-0.058,0.017-0.115,0.039-0.17,0.065c-0.036,0.012-0.072,0.026-0.106,0.041c-0.03,0.011-0.061,0.023-0.09,0.037
			c-0.106,0.034-0.207,0.08-0.295,0.139l-0.033,0.022c-0.02,0.009-0.041,0.018-0.061,0.027c-0.021,0.009-0.041,0.018-0.061,0.027
			c-0.133,0.038-0.26,0.099-0.375,0.182c-0.013,0.008-0.026,0.016-0.039,0.025l-0.055,0.037c-0.034,0.013-0.067,0.027-0.098,0.043
			l-0.052,0.026c-0.107,0.053-0.203,0.121-0.288,0.2c-0.064,0.033-0.124,0.072-0.181,0.115c-0.097,0.037-0.19,0.085-0.275,0.144
			l-0.055,0.018c-0.109,0.036-0.213,0.088-0.307,0.153c-0.012,0.005-0.023,0.011-0.034,0.016l-0.052,0.026l-0.05,0.025
			C8.788,45.777,8.642,45.9,8.53,46.049c-0.181,0.21-0.292,0.48-0.292,0.775c0,0.013,0,0.026,0.001,0.038
			c-0.232,0.04-0.453,0.147-0.629,0.323c-0.033,0.033-0.063,0.067-0.093,0.104C7.403,47.35,7.3,47.428,7.21,47.519
			c-0.185,0.179-0.314,0.415-0.354,0.679c-0.025,0.095-0.038,0.191-0.039,0.287c-0.075,0.003-0.149,0.012-0.221,0.029
			C6.564,48.512,6.532,48.51,6.5,48.51H6.345c-0.026,0-0.052,0.001-0.077,0.002C6.241,48.511,6.216,48.51,6.19,48.51
			c-0.018,0-0.036,0-0.054,0.001c-0.017-0.001-0.033-0.001-0.049-0.001c-0.32,0-0.653,0.127-0.879,0.354
			c-0.039,0.039-0.076,0.081-0.11,0.126c-0.234,0.161-0.41,0.4-0.486,0.678c-0.052,0.056-0.099,0.116-0.14,0.182
			c-0.054,0.014-0.105,0.03-0.151,0.05l-0.042,0.018c-0.079,0.01-0.157,0.027-0.226,0.05L3.98,49.991
			c-0.051,0.012-0.102,0.026-0.15,0.044c-0.042,0.008-0.083,0.018-0.121,0.03c-0.076,0.006-0.153,0.019-0.229,0.039
			c-0.099,0.017-0.194,0.046-0.283,0.085c-0.092,0.018-0.184,0.045-0.266,0.082c-0.073,0.016-0.144,0.039-0.213,0.069l-0.112,0.048
			c-0.143,0.049-0.277,0.122-0.393,0.217c-0.018,0.008-0.035,0.016-0.052,0.024c-0.504,0.253-0.797,0.837-0.661,1.384
			c0.072,0.291,0.151,0.578,0.23,0.866c0.144,0.524,0.62,0.886,1.163,0.886h0.11l0.198,0.02c0.04,0.004,0.08,0.006,0.12,0.006h0.313
			l0.132,0.016c0.001,0,0.003,0,0.004,0.001c0.122,0.04,0.249,0.06,0.377,0.06h0.036l0.166,0.018
			c0.044,0.005,0.089,0.007,0.134,0.007h0.083l0.29,0.022l0.745,0.028l0.669,0.026c0.006,0,0.016,0,0.027,0.001l0.326,0.022
			l0.206,0.023c0.044,0.005,0.089,0.007,0.133,0.007h0.247l0.376,0.023l0.56,0.027l0.455,0.025l0.58,0.027
			c0.018,0.001,0.037,0.001,0.055,0.001h0.139c0.082,0.017,0.165,0.026,0.248,0.026h0.232h0.131l0.132,0.017
			c0.05,0.006,0.1,0.009,0.15,0.009h0.155h0.052h0.155h0.103h0.052h0.052h0.052h0.191l0.166,0.018
			c0.039,0.004,0.078,0.007,0.117,0.007c0.082,0.017,0.165,0.026,0.248,0.026h0.468l0.056,0.009
			c0.066,0.011,0.132,0.017,0.199,0.017h0.052h0.56l0.096,0.014c0.056,0.008,0.113,0.012,0.171,0.012h0.232h0.103h0.01
			c0.082,0.017,0.165,0.026,0.249,0.026h0.077h0.052h0.041c0.079,0.017,0.16,0.026,0.244,0.026h0.103h0.052h0.077h0.052h0.043
			l0.096,0.014c0.057,0.008,0.114,0.012,0.171,0.012h0.232h0.077h0.049l0.23,0.021c0.036,0.003,0.073,0.005,0.109,0.005h0.297
			l0.762,0.049c0.026,0.002,0.052,0.003,0.078,0.003c0.256,0,0.5-0.081,0.7-0.224l0.226,0.015l0.446,0.021
			c0.072,0.017,0.146,0.028,0.22,0.031c0.207,0.187,0.476,0.3,0.766,0.311l0.67,0.024l0.523,0.065l0.086,0.017
			c0.029,0.006,0.058,0.011,0.087,0.014l0.207,0.026c0.05,0.006,0.099,0.009,0.149,0.009h0.103h0.018l0.096,0.014
			c0.003,0,0.006,0.001,0.01,0.001c0.093,0.024,0.19,0.037,0.29,0.037l0.546,0.023l0.157,0.02c0.05,0.006,0.1,0.009,0.15,0.009
			h0.284h0.109l0.29,0.022c0.015,0.001,0.031,0.002,0.046,0.003c0.083,0.018,0.168,0.027,0.253,0.027h0.284h0.114l0.166,0.018
			c0.026,0.003,0.052,0.005,0.078,0.006l0.064,0.011c0.066,0.011,0.132,0.016,0.198,0.016h0.036
			c0.082,0.017,0.165,0.026,0.249,0.026h0.121l0.096,0.014c0.056,0.008,0.113,0.012,0.17,0.012h0.129h0.033l0.369,0.043
			c0.044,0.005,0.088,0.008,0.133,0.008l0.096,0.014c0.056,0.008,0.113,0.012,0.17,0.012h0.052h0.295l0.347,0.023
			c0.015,0.001,0.031,0.002,0.046,0.002l0.519,0.047c0.036,0.003,0.073,0.005,0.109,0.005h0.155h0.155h0.052h0.052h0.207h0.258
			h0.155h0.232h0.011l0.166,0.018c0.018,0.002,0.036,0.004,0.054,0.005c0.085,0.019,0.173,0.028,0.26,0.028h0.138l0.011,0.002
			c0.078,0.016,0.158,0.024,0.238,0.024h0.173l0.096,0.014c0.044,0.006,0.088,0.01,0.132,0.012l0.1,0.014
			c0.056,0.008,0.113,0.012,0.17,0.012h0.208l0.26,0.022l0.28,0.019c0.071,0.019,0.143,0.031,0.215,0.035l0.439,0.026
			c0.022,0.001,0.045,0.002,0.067,0.002l0.23,0.021c0.036,0.003,0.073,0.005,0.109,0.005h0.004l0.056,0.009
			c0.066,0.011,0.132,0.016,0.198,0.016h0.232l0.596,0.025c0.017,0.001,0.033,0.001,0.05,0.001h0.268
			c0.082,0.017,0.165,0.026,0.249,0.026h0.491h0.178l0.229,0.021c0.036,0.003,0.073,0.005,0.109,0.005h0.129h0.232h0.336h0.052
			h0.181h0.295c0.081,0.017,0.164,0.026,0.248,0.026h0.052h0.052c0.052,0,0.104-0.003,0.155-0.01l0.006,0.001
			c0.049,0.006,0.099,0.009,0.149,0.009h0.232h0.129h0.181h0.258h0.052h0.005l0.29,0.022c0.031,0.002,0.062,0.004,0.093,0.004h0.181
			h0.465h0.287l0.132,0.016c0.05,0.006,0.099,0.009,0.149,0.009h0.801h0.103h0.129h0.258h0.052H40.1h0.052h0.362h0.043l0.198,0.02
			c0.04,0.004,0.08,0.006,0.121,0.006h0.181h0.749h0.129h0.31h0.052h0.052h0.181h0.465h0.129h0.646h0.723h0.077h0.052h0.232h0.207
			h0.052h0.103h0.217l0.166,0.018c0.044,0.005,0.089,0.007,0.134,0.007h0.491h0.103h0.103h0.077h0.077h0.233h0.594h0.077h0.077
			h0.258h0.052h0.155h0.077h0.542h0.052h0.232h0.258h0.052h0.052c0.08,0,0.159-0.008,0.237-0.024l0.012-0.002h0.035h0.052h0.491
			h0.568h0.103h0.439h0.181c0.067,0,0.133-0.006,0.197-0.016l0.181,0.013c0.029,0.002,0.058,0.003,0.086,0.003h0.594h0.052h0.129
			h0.077c0.018,0,0.037,0,0.055-0.001l0.541-0.025h0.05h1.317h0.103h0.052h0.077h0.052l0.988-0.026l0.122,0h0.103h0.646h0.258h0.439
			h0.103h0.103l0.766-0.027l0.189,0.001h0.568h0.387h0.542h0.181c0.025,0,0.05-0.001,0.075-0.002l0.376-0.023h0.221h0.181
			c0.067,0,0.133-0.006,0.199-0.017l0.056-0.009h0.013l0.012,0.002c0.078,0.016,0.157,0.024,0.237,0.024h0.258h0.207h0.077h0.129
			c0.084,0,0.167-0.009,0.249-0.026h0.397h0.852h0.052c0.174,0,0.34-0.037,0.489-0.103h0.544h0.232h0.258h0.052
			c0.083,0,0.166-0.009,0.248-0.026h0.062h0.439h0.336c0.019,0,0.039,0,0.058-0.001l0.513-0.025h0.307h0.465
			c0.04,0,0.08-0.002,0.119-0.006l0.199-0.02h0.663h0.103c0.018,0,0.035,0,0.053-0.001l0.59-0.026
			c0.504-0.02,0.961-0.351,1.118-0.832c0.485-1.489,0.876-3.039,1.164-4.608c0.119-0.648-0.304-1.272-0.95-1.401l-0.011-0.002
			l-0.006-0.002l-0.047-0.016l0.024-0.063c0.167-0.338,0.166-0.735-0.003-1.073l-0.052-0.103l-0.064-0.143
			c-0.076-0.303-0.263-0.554-0.51-0.716c-0.017-0.014-0.033-0.027-0.049-0.039c0.346-0.16,0.599-0.477,0.676-0.857l0.026-0.129
			c0.012-0.06,0.019-0.12,0.022-0.18c0.111-0.164,0.181-0.353,0.201-0.551l0.009-0.046c0.025-0.127,0.03-0.256,0.014-0.384
			l-0.026-0.207l-0.029-0.203c-0.004-0.03-0.01-0.059-0.016-0.088c-0.005-0.081-0.016-0.169-0.034-0.241l-0.026-0.103L71.082,43.1
			c-0.021-0.096-0.054-0.188-0.098-0.276l-0.021-0.041c-0.021-0.063-0.047-0.123-0.077-0.179l-0.155-0.284
			c-0.002-0.005-0.005-0.009-0.008-0.014c0-0.018,0-0.037-0.001-0.055c0.101-0.179,0.156-0.383,0.156-0.593v-0.052
			c0-0.187-0.044-0.372-0.127-0.539l-0.077-0.155c-0.005-0.01-0.01-0.02-0.015-0.03c0.031-0.204,0.009-0.412-0.064-0.606
			c-0.001-0.05-0.004-0.1-0.011-0.149c0.038-0.038,0.073-0.079,0.105-0.122l0.155-0.207c0.132-0.176,0.214-0.385,0.235-0.604
			l0.026-0.258c0.001-0.012,0.002-0.025,0.003-0.037l0.044-0.177c0.024-0.096,0.036-0.194,0.036-0.293
			c0-0.393-0.188-0.752-0.48-0.979l-0.028-0.028l-0.104-0.104c-0.118-0.118-0.258-0.209-0.409-0.269l-0.224-0.138
			c-0.051-0.031-0.104-0.059-0.158-0.082c-0.034-0.017-0.069-0.033-0.104-0.046l-0.031-0.018c-0.104-0.068-0.219-0.123-0.337-0.16
			c-0.113-0.051-0.234-0.083-0.357-0.097c-0.025-0.02-0.05-0.038-0.076-0.056c-0.052-0.089-0.115-0.171-0.189-0.244l-0.052-0.052
			c-0.106-0.106-0.23-0.191-0.365-0.25l-0.028-0.056c-0.032-0.065-0.07-0.126-0.114-0.184l-0.077-0.103
			c-0.113-0.15-0.258-0.272-0.426-0.356l-0.004-0.002c0-0.001-0.001-0.002-0.001-0.003l-0.103-0.233
			c-0.161-0.361-0.485-0.616-0.863-0.693c-0.111-0.033-0.226-0.05-0.343-0.05h-0.129c-0.02,0-0.039,0-0.059,0.001
			c-0.115-0.035-0.234-0.053-0.354-0.053c-0.06,0-0.12,0.004-0.18,0.013c-0.162-0.077-0.339-0.117-0.518-0.117h-0.01
			c-0.081-0.017-0.164-0.026-0.248-0.026c-0.091,0-0.204,0.01-0.296,0.031c-0.054-0.053-0.113-0.1-0.176-0.142l-0.001-0.002
			c-0.041-0.14-0.104-0.274-0.189-0.387l-0.078-0.103c-0.038-0.051-0.08-0.098-0.125-0.142c-0.003-0.004-0.007-0.007-0.01-0.011
			c-0.001-0.001-0.028-0.028-0.044-0.044c0.004-0.03,0.006-0.061,0.007-0.092l0.003-0.016c0.079-0.393-0.043-0.799-0.324-1.084
			c-0.081-0.116-0.182-0.216-0.296-0.296l-0.02-0.02c-0.23-0.23-0.538-0.353-0.853-0.353c-0.128,0-0.257,0.02-0.382,0.062
			l-0.078,0.026c-0.177,0.059-0.339,0.159-0.471,0.291c-0.004,0.004-0.008,0.008-0.012,0.012c-0.089,0.007-0.176,0.023-0.259,0.048
			c0.017-0.03,0.033-0.06,0.048-0.092c0.004-0.008,0.008-0.015,0.012-0.023l0.026-0.052c0.043-0.086,0.076-0.177,0.097-0.271
			c0.048-0.071,0.088-0.145,0.12-0.222c0.076-0.022,0.15-0.052,0.22-0.089c0.309-0.038,0.596-0.195,0.795-0.444
			c0.134-0.167,0.218-0.364,0.25-0.569c0.051-0.025,0.101-0.053,0.148-0.084l0.077-0.052c0.175-0.117,0.316-0.277,0.41-0.465
			l0.026-0.052c0.024-0.049,0.046-0.1,0.063-0.151c0.057-0.141,0.09-0.292,0.09-0.439v-0.052v-0.129
			c0-0.084-0.009-0.167-0.026-0.249v-0.087v-0.025c0.017-0.077,0.026-0.156,0.026-0.233v-0.035c0.023-0.108,0.03-0.217,0.023-0.325
			c0.018-0.084,0.028-0.171,0.028-0.26v-0.103c0-0.153-0.029-0.305-0.086-0.447l-0.022-0.055c-0.05-0.219-0.161-0.421-0.322-0.583
			c-0.02-0.02-0.04-0.039-0.061-0.057c-0.127-0.23-0.324-0.416-0.562-0.525c-0.008-0.011-0.017-0.022-0.025-0.032l-0.002-0.002
			l-0.052-0.078l-0.051-0.076c-0.013-0.019-0.026-0.038-0.04-0.056l-0.078-0.103c-0.034-0.045-0.071-0.088-0.111-0.127
			c-0.183-0.183-0.435-0.318-0.694-0.364l-0.011-0.022c-0.058-0.116-0.134-0.221-0.225-0.313l-0.077-0.077
			c-0.141-0.142-0.314-0.245-0.503-0.302c-0.054-0.04-0.112-0.075-0.172-0.105l-0.052-0.026l-0.054-0.027
			c-0.059-0.029-0.119-0.054-0.182-0.073c-0.03-0.015-0.06-0.029-0.091-0.042c-0.172-0.089-0.363-0.141-0.55-0.141h-0.052h-0.046
			c0.106-0.177,0.167-0.383,0.167-0.602v-0.052c0-0.321-0.128-0.68-0.355-0.907c-0.049-0.049-0.124-0.114-0.185-0.159
			c-0.007-0.007-0.014-0.014-0.021-0.021l-0.004,0.004l-0.047-0.032l-0.01-0.007l0.013-0.014c-0.087-0.087-0.186-0.16-0.294-0.217
			c-0.055-0.035-0.112-0.066-0.172-0.093c-0.058-0.126-0.136-0.241-0.232-0.337c-0.226-0.227-0.559-0.38-0.88-0.38h-0.052h-0.077
			c-0.058,0-0.115,0.004-0.172,0.012c-0.038-0.024-0.076-0.046-0.117-0.067l-0.052-0.026c-0.167-0.083-0.351-0.127-0.538-0.127
			c-0.084,0-0.172,0.009-0.258,0.026c-0.009,0-0.017,0-0.026,0c-0.08,0-0.16,0.008-0.239,0.024c-0.106,0.012-0.21,0.039-0.311,0.08
			c-0.068,0.028-0.132,0.061-0.193,0.099c-0.001,0.001-0.003,0.001-0.004,0.002l-0.052,0.026c-0.233,0.117-0.422,0.306-0.539,0.539
			l-0.103,0.207c-0.026,0.051-0.047,0.104-0.066,0.158l-0.026,0.077l-0.026,0.077c-0.003,0.008-0.005,0.017-0.008,0.025
			c-0.025,0.036-0.048,0.074-0.069,0.113l-0.142-0.114l-0.082-0.082c-0.035-0.035-0.073-0.069-0.112-0.099l-0.232-0.181L53.6,21.301
			l-0.272-0.218l-0.226-0.181c-0.047-0.042-0.099-0.084-0.142-0.113l-0.05-0.033l-0.008-0.006l-0.043-0.043
			c-0.026-0.026-0.052-0.05-0.08-0.073l-0.155-0.129l-0.156-0.13l-0.185-0.162l-0.289-0.265c-0.029-0.027-0.06-0.052-0.092-0.076
			L51.8,19.795c-0.033-0.025-0.067-0.048-0.103-0.069l-0.042-0.025l-0.104-0.089c-0.013-0.011-0.026-0.022-0.04-0.032l-0.362-0.284
			C50.936,19.126,50.673,19.037,50.405,19.037L50.405,19.037z"/>
	</g>
	<path fill="#FFFFFF" d="M48.877,39.93l2.974,1.794c0.148,0.089,0.33-0.043,0.291-0.211l-0.787-3.383
		c-0.016-0.07,0.008-0.144,0.062-0.192l2.626-2.275c0.13-0.113,0.061-0.327-0.111-0.342l-3.461-0.297
		c-0.072-0.006-0.135-0.052-0.163-0.118l-1.352-3.19c-0.067-0.159-0.292-0.159-0.359,0l-1.352,3.19
		c-0.028,0.067-0.091,0.112-0.163,0.118l-3.461,0.297c-0.172,0.015-0.241,0.229-0.111,0.342l2.626,2.275
		c0.055,0.047,0.079,0.121,0.062,0.192l-0.787,3.383c-0.039,0.168,0.143,0.3,0.291,0.211l2.974-1.794
		C48.737,39.893,48.815,39.893,48.877,39.93z"/>
</g>
</svg>
