<?xml version="1.0" encoding="utf-8"?>
<!-- Generator: Adobe Illustrator 18.1.1, SVG Export Plug-In . SVG Version: 6.00 Build 0)  -->
<svg version="1.1" id="Layer_1" xmlns="http://www.w3.org/2000/svg" xmlns:xlink="http://www.w3.org/1999/xlink" x="0px" y="0px"
	 viewBox="0 0 260 74" enable-background="new 0 0 260 74" xml:space="preserve">
<g>
	<g>
		
			<path fill="#03A9F4" stroke="#03A9F4" stroke-width="2.3014" stroke-linecap="round" stroke-linejoin="round" stroke-miterlimit="10" d="
			M12.092,13.799c0-4.2,1.093-6.847,2.705-8.342c1.611-1.496,3.682-1.899,5.581-1.899c1.841,0,3.912,0.403,5.523,1.899
			c1.611,1.496,2.705,4.143,2.705,8.342v0.921h-1.842v-0.921c0-5.926-2.244-8.458-6.386-8.458c-4.2,0-6.444,2.532-6.444,8.458v18.24
			c0,5.926,2.128,8.515,6.444,8.515c2.071,0,3.682-0.691,4.775-2.014c1.093-1.438,1.611-3.568,1.611-6.502v-0.921h1.842v0.921
			c0,4.315-1.093,6.789-2.705,8.342c-1.611,1.554-3.682,1.956-5.523,1.956c-1.899,0-3.97-0.402-5.581-1.956
			c-1.611-1.553-2.705-4.027-2.705-8.342V13.799z"/>
		
			<path fill="#03A9F4" stroke="#03A9F4" stroke-width="2.3014" stroke-linecap="round" stroke-linejoin="round" stroke-miterlimit="10" d="
			M45.865,37.678L53.805,3.5h1.899l-9.149,38.78h-1.38L36.025,3.5h1.842L45.865,37.678z"/>
		
			<path fill="#03A9F4" stroke="#03A9F4" stroke-width="2.3014" stroke-linecap="round" stroke-linejoin="round" stroke-miterlimit="10" d="
			M64.16,42.338h-1.784V3.557h1.784V42.338z"/>
		
			<path fill="#03A9F4" stroke="#03A9F4" stroke-width="2.3014" stroke-linecap="round" stroke-linejoin="round" stroke-miterlimit="10" d="
			M85.849,42.338H72.156V3.557h1.842v36.997h11.852V42.338z"/>
		
			<path fill="#03A9F4" stroke="#03A9F4" stroke-width="2.3014" stroke-linecap="round" stroke-linejoin="round" stroke-miterlimit="10" d="
			M106.274,42.338H92.58V3.557h1.841v36.997h11.853V42.338z"/>
		
			<path fill="#03A9F4" stroke="#03A9F4" stroke-width="2.3014" stroke-linecap="round" stroke-linejoin="round" stroke-miterlimit="10" d="
			M115.305,42.338h-1.783V3.557h1.783V42.338z"/>
		
			<path fill="#03A9F4" stroke="#03A9F4" stroke-width="2.3014" stroke-linecap="round" stroke-linejoin="round" stroke-miterlimit="10" d="
			M140.218,5.226l-14.844,35.328h14.556v1.783h-16.57v-1.783l14.787-35.213h-15.075V3.557h17.146V5.226z"/>
		
			<path fill="#03A9F4" stroke="#03A9F4" stroke-width="2.3014" stroke-linecap="round" stroke-linejoin="round" stroke-miterlimit="10" d="
			M163.174,30.485h-10.241l-2.647,11.853h-1.841l3.05-13.464v-0.172l5.868-25.144h1.438l8.862,38.78h-1.842L163.174,30.485z
			 M153.392,28.701h9.378l-4.717-20.253L153.392,28.701z"/>
		
			<path fill="#03A9F4" stroke="#03A9F4" stroke-width="2.3014" stroke-linecap="round" stroke-linejoin="round" stroke-miterlimit="10" d="
			M169.041,3.5h16.916v1.841h-7.595V42.28h-1.783V5.341h-7.538V3.5z"/>
		
			<path fill="#03A9F4" stroke="#03A9F4" stroke-width="2.3014" stroke-linecap="round" stroke-linejoin="round" stroke-miterlimit="10" d="
			M195.506,42.338h-1.783V3.557h1.783V42.338z"/>
		
			<path fill="#03A9F4" stroke="#03A9F4" stroke-width="2.3014" stroke-linecap="round" stroke-linejoin="round" stroke-miterlimit="10" d="
			M203.849,13.799c0-6.616,2.762-10.241,8.228-10.241c5.524,0,8.286,3.567,8.286,10.241v18.24c0,4.315-1.093,6.789-2.705,8.342
			c-1.611,1.554-3.682,1.956-5.581,1.956c-1.841,0-3.912-0.402-5.523-1.956c-1.611-1.553-2.705-4.027-2.705-8.342V13.799z
			 M205.633,32.039c0,5.811,2.128,8.515,6.443,8.515c4.2,0,6.444-2.532,6.444-8.515v-18.24c0-5.926-2.128-8.458-6.444-8.458
			c-4.372,0-6.443,2.704-6.443,8.458V32.039z"/>
		
			<path fill="#03A9F4" stroke="#03A9F4" stroke-width="2.3014" stroke-linecap="round" stroke-linejoin="round" stroke-miterlimit="10" d="
			M243.547,42.338L230.14,9.139v33.199h-1.841V3.557h1.553l13.349,33.199V3.557h1.842v38.78H243.547z"/>
	</g>
	<g>
		<path fill="#0277BD" d="M17.999,55.869c-1.474,0-2.637,0.491-3.49,1.472c-0.853,0.982-1.28,2.325-1.28,4.032
			c0,1.756,0.411,3.111,1.234,4.068c0.822,0.957,1.995,1.436,3.518,1.436c0.936,0,2.003-0.168,3.201-0.505v1.367
			c-0.93,0.349-2.077,0.523-3.44,0.523c-1.976,0-3.5-0.599-4.573-1.798c-1.073-1.198-1.61-2.902-1.61-5.109
			c0-1.382,0.258-2.593,0.775-3.633c0.517-1.039,1.262-1.84,2.238-2.403c0.975-0.562,2.124-0.844,3.445-0.844
			c1.406,0,2.636,0.257,3.688,0.771l-0.66,1.339C20.03,56.107,19.014,55.869,17.999,55.869z"/>
		<path fill="#0277BD" d="M36.733,68.078h-1.559v-6.311H28.11v6.311h-1.559V54.667h1.559v5.706h7.063v-5.706h1.559V68.078z"/>
		<path fill="#0277BD" d="M51.284,68.078l-1.67-4.265h-5.375l-1.651,4.265H41.01l5.302-13.466h1.312l5.275,13.466H51.284z
			 M49.128,62.409l-1.559-4.155c-0.202-0.526-0.41-1.171-0.624-1.936c-0.135,0.587-0.327,1.233-0.578,1.936l-1.578,4.155H49.128z"/>
		<path fill="#0277BD" d="M58.744,62.501v5.577h-1.559V54.667h3.678c1.645,0,2.86,0.315,3.646,0.945
			c0.785,0.63,1.179,1.578,1.179,2.844c0,1.774-0.899,2.972-2.697,3.596l3.642,6.027h-1.844l-3.247-5.577H58.744z M58.744,61.162
			h2.137c1.101,0,1.908-0.218,2.422-0.656c0.514-0.437,0.771-1.093,0.771-1.968c0-0.886-0.261-1.526-0.784-1.917
			c-0.523-0.391-1.362-0.587-2.518-0.587h-2.027V61.162z"/>
		<path fill="#0277BD" d="M71.24,68.078V54.667h1.559v11.998h5.917v1.413H71.24z"/>
		<path fill="#0277BD" d="M95.074,61.354c0,2.147-0.543,3.834-1.628,5.064c-1.086,1.229-2.595,1.844-4.527,1.844
			c-1.976,0-3.5-0.604-4.573-1.812c-1.073-1.207-1.61-2.912-1.61-5.114c0-2.183,0.538-3.876,1.614-5.077
			c1.076-1.202,2.605-1.803,4.587-1.803c1.926,0,3.431,0.612,4.513,1.835C94.532,57.514,95.074,59.202,95.074,61.354z
			 M84.387,61.354c0,1.816,0.386,3.194,1.16,4.132c0.773,0.939,1.897,1.408,3.371,1.408c1.486,0,2.608-0.468,3.367-1.403
			c0.758-0.936,1.137-2.314,1.137-4.137c0-1.804-0.378-3.172-1.133-4.105c-0.756-0.932-1.873-1.399-3.353-1.399
			c-1.486,0-2.616,0.47-3.389,1.408C84.773,58.198,84.387,59.563,84.387,61.354z"/>
		<path fill="#0277BD" d="M104.634,68.078h-1.559V56.052h-4.247v-1.385h10.054v1.385h-4.247V68.078z"/>
		<path fill="#0277BD" d="M117.47,68.078h-1.559V56.052h-4.247v-1.385h10.054v1.385h-4.247V68.078z"/>
		<path fill="#0277BD" d="M133.653,68.078h-7.476V54.667h7.476v1.385h-5.917v4.321h5.559v1.376h-5.559v4.935h5.917V68.078z"/>
		<path fill="#0277BD" d="M146.636,64.51c0,1.18-0.428,2.101-1.284,2.761c-0.857,0.66-2.018,0.991-3.486,0.991
			c-1.59,0-2.813-0.205-3.669-0.615v-1.504c0.55,0.233,1.15,0.416,1.798,0.55c0.648,0.135,1.29,0.202,1.926,0.202
			c1.039,0,1.822-0.197,2.348-0.592c0.526-0.394,0.789-0.943,0.789-1.647c0-0.464-0.093-0.845-0.28-1.142
			c-0.187-0.296-0.499-0.57-0.936-0.821c-0.437-0.251-1.102-0.535-1.995-0.853c-1.248-0.446-2.139-0.975-2.674-1.587
			c-0.535-0.611-0.803-1.409-0.803-2.394c0-1.033,0.388-1.856,1.165-2.468c0.776-0.611,1.804-0.917,3.082-0.917
			c1.333,0,2.559,0.245,3.678,0.734l-0.486,1.358c-1.107-0.464-2.183-0.697-3.229-0.697c-0.826,0-1.471,0.178-1.936,0.532
			c-0.465,0.355-0.697,0.847-0.697,1.477c0,0.465,0.085,0.846,0.257,1.142c0.171,0.297,0.46,0.569,0.867,0.816
			c0.406,0.248,1.029,0.522,1.867,0.821c1.406,0.502,2.374,1.04,2.903,1.614C146.371,62.847,146.636,63.593,146.636,64.51z"/>
		<path fill="#0277BD" d="M159.48,54.667h1.679l-4.834,13.411h-1.541l-4.807-13.411h1.651l3.082,8.678
			c0.354,0.997,0.636,1.966,0.844,2.908c0.22-0.991,0.507-1.978,0.862-2.963L159.48,54.667z"/>
		<path fill="#0277BD" d="M165.445,68.078V54.667h1.559v13.411H165.445z"/>
		<path fill="#0277BD" d="M173.125,68.078V54.667h1.559v11.998h5.917v1.413H173.125z"/>
		<path fill="#0277BD" d="M185.318,68.078V54.667h1.559v11.998h5.917v1.413H185.318z"/>
		<path fill="#0277BD" d="M204.988,68.078h-7.476V54.667h7.476v1.385h-5.917v4.321h5.559v1.376h-5.559v4.935h5.917V68.078z"/>
		<path fill="#0277BD" d="M211.769,65.895l0.138,0.211c-0.159,0.612-0.389,1.323-0.688,2.133c-0.3,0.81-0.612,1.564-0.936,2.261
			h-1.147c0.165-0.636,0.347-1.422,0.546-2.357c0.198-0.936,0.338-1.684,0.417-2.247H211.769z"/>
		<path fill="#0277BD" d="M232.431,54.667h1.679l-4.834,13.411h-1.541l-4.807-13.411h1.651l3.082,8.678
			c0.354,0.997,0.636,1.966,0.844,2.908c0.22-0.991,0.507-1.978,0.862-2.963L232.431,54.667z"/>
		<path fill="#0277BD" d="M246.826,68.078l-1.669-4.265h-5.375l-1.651,4.265h-1.578l5.302-13.466h1.312l5.275,13.466H246.826z
			 M244.67,62.409l-1.559-4.155c-0.202-0.526-0.41-1.171-0.624-1.936c-0.135,0.587-0.327,1.233-0.578,1.936l-1.578,4.155H244.67z"/>
	</g>
</g>
</svg>
